<svg xmlns="http://www.w3.org/2000/svg" xmlns:xlink="http://www.w3.org/1999/xlink" width="500" zoomAndPan="magnify" viewBox="0 0 375 374.999991" height="500" preserveAspectRatio="xMidYMid meet" version="1.0"><path fill="#1a1a1a" d="M 224.894531 344.621094 C 221.304688 344.621094 217.554688 344.621094 213.890625 344.5 C 211.320312 344.46875 208.765625 344.21875 206.234375 343.730469 C 203.707031 343.253906 201.242188 342.542969 198.839844 341.617188 C 196.4375 340.691406 194.136719 339.558594 191.9375 338.214844 C 189.742188 336.875 187.683594 335.351562 185.757812 333.640625 C 183.832031 331.929688 182.074219 330.058594 180.488281 328.03125 C 178.90625 326 177.503906 323.851562 176.308594 321.566406 C 175.101562 319.296875 174.121094 316.921875 173.34375 314.46875 C 172.570312 312.011719 172.015625 309.503906 171.691406 306.953125 L 167.0625 306.953125 C 163.203125 306.96875 159.378906 306.566406 155.601562 305.734375 C 151.832031 304.902344 148.195312 303.667969 144.691406 302.023438 C 141.195312 300.386719 137.921875 298.375 134.867188 296.011719 C 131.816406 293.636719 129.058594 290.960938 126.601562 287.976562 C 121.730469 282.320312 118.085938 275.960938 115.691406 268.890625 C 110.832031 268.050781 106.25 266.402344 101.957031 263.972656 C 97.667969 261.53125 93.910156 258.445312 90.683594 254.703125 L 70.546875 254.703125 C 66.648438 254.730469 62.769531 254.460938 58.917969 253.882812 C 44.558594 251.5625 32.984375 243.34375 25.160156 230.109375 C 19.644531 220.300781 16.484375 209.796875 15.679688 198.578125 C 14.34375 185.363281 14.746094 172.195312 16.875 159.085938 C 19.007812 145.972656 22.792969 133.359375 28.246094 121.25 C 33.207031 110.035156 39.359375 99.523438 46.707031 89.707031 C 54.046875 79.894531 62.386719 71.019531 71.734375 63.089844 C 81.230469 55.019531 91.507812 48.109375 102.554688 42.347656 C 113.605469 36.589844 125.160156 32.128906 137.210938 28.976562 C 152.507812 24.898438 168.0625 22.898438 183.878906 22.953125 C 188.722656 22.953125 193.734375 23.140625 198.746094 23.496094 C 210.347656 24.347656 221.742188 26.386719 232.933594 29.613281 C 244.113281 32.828125 254.847656 37.175781 265.121094 42.640625 C 272.757812 46.613281 280.03125 51.167969 286.941406 56.300781 C 293.859375 61.425781 300.328125 67.066406 306.347656 73.21875 C 312.367188 79.371094 317.875 85.957031 322.855469 92.976562 C 327.839844 100 332.242188 107.371094 336.058594 115.085938 C 344.210938 131.179688 349.425781 148.179688 351.726562 166.078125 C 353.304688 178.917969 353.390625 191.769531 351.960938 204.625 C 350.164062 221.945312 345.707031 238.535156 338.570312 254.414062 C 330.066406 273.203125 319.0625 287.726562 304.945312 298.835938 C 298.542969 303.902344 290.585938 309.195312 280.300781 311.121094 C 279.648438 313.460938 278.804688 315.742188 277.777344 317.957031 C 276.757812 320.164062 275.5625 322.277344 274.199219 324.296875 C 272.84375 326.328125 271.328125 328.226562 269.664062 330.003906 C 268 331.78125 266.195312 333.417969 264.269531 334.902344 C 262.34375 336.398438 260.316406 337.726562 258.175781 338.894531 C 256.03125 340.054688 253.816406 341.046875 251.519531 341.859375 C 249.21875 342.675781 246.871094 343.292969 244.476562 343.730469 C 242.074219 344.171875 239.664062 344.414062 237.222656 344.460938 C 233.242188 344.574219 229.0625 344.621094 224.894531 344.621094 Z M 180.9375 297.113281 L 181.085938 301.890625 C 181.121094 304.042969 181.367188 306.175781 181.8125 308.28125 C 182.261719 310.382812 182.90625 312.421875 183.75 314.40625 C 184.601562 316.386719 185.621094 318.265625 186.824219 320.042969 C 188.039062 321.828125 189.40625 323.476562 190.929688 325 C 192.453125 326.515625 194.117188 327.871094 195.902344 329.066406 C 197.6875 330.265625 199.578125 331.285156 201.558594 332.117188 C 203.550781 332.949219 205.597656 333.585938 207.699219 334.015625 C 209.804688 334.453125 211.9375 334.6875 214.085938 334.707031 C 221.769531 334.875 229.546875 334.875 237.027344 334.707031 C 239.054688 334.667969 241.066406 334.464844 243.058594 334.082031 C 245.058594 333.695312 247.003906 333.144531 248.898438 332.433594 C 250.796875 331.722656 252.628906 330.863281 254.378906 329.835938 C 256.136719 328.816406 257.789062 327.65625 259.34375 326.355469 C 260.902344 325.046875 262.335938 323.625 263.652344 322.082031 C 264.960938 320.53125 266.140625 318.882812 267.175781 317.144531 C 268.214844 315.394531 269.09375 313.582031 269.824219 311.683594 C 270.550781 309.785156 271.113281 307.847656 271.515625 305.855469 L 272.226562 302.265625 L 276.105469 301.855469 C 285.585938 300.78125 292.941406 295.84375 298.898438 291.082031 C 311.730469 280.953125 321.800781 267.609375 329.664062 250.308594 C 336.355469 235.382812 340.542969 219.785156 342.226562 203.515625 C 343.582031 191.414062 343.507812 179.320312 342.011719 167.25 C 339.863281 150.460938 334.972656 134.519531 327.335938 119.414062 C 323.746094 112.148438 319.605469 105.210938 314.910156 98.597656 C 310.226562 91.976562 305.046875 85.777344 299.382812 79.988281 C 293.71875 74.191406 287.621094 68.878906 281.117188 64.054688 C 274.609375 59.21875 267.765625 54.925781 260.578125 51.1875 C 250.871094 46.042969 240.738281 41.957031 230.175781 38.925781 C 219.621094 35.90625 208.859375 34.007812 197.902344 33.230469 C 178.214844 31.652344 158.816406 33.363281 139.707031 38.367188 C 128.347656 41.339844 117.457031 45.546875 107.042969 50.972656 C 96.628906 56.394531 86.945312 62.914062 77.996094 70.523438 C 69.210938 77.980469 61.355469 86.320312 54.457031 95.550781 C 47.550781 104.769531 41.761719 114.65625 37.089844 125.195312 C 31.992188 136.527344 28.449219 148.332031 26.457031 160.597656 C 24.46875 172.867188 24.09375 185.183594 25.335938 197.558594 C 26.019531 207.328125 28.75 216.503906 33.515625 225.058594 C 39.816406 235.71875 49.121094 242.3125 60.441406 244.164062 C 63.796875 244.660156 67.171875 244.886719 70.566406 244.847656 L 95.300781 244.847656 L 96.769531 246.644531 C 103.109375 254.414062 110.875 258.726562 119.871094 259.445312 L 123.265625 259.734375 L 124.179688 263.019531 C 126.105469 269.929688 129.425781 276.101562 134.128906 281.523438 C 136.128906 283.964844 138.371094 286.164062 140.867188 288.097656 C 143.355469 290.042969 146.027344 291.691406 148.878906 293.035156 C 151.730469 294.382812 154.703125 295.402344 157.777344 296.085938 C 160.863281 296.777344 163.976562 297.113281 167.136719 297.113281 Z M 180.9375 297.113281 " fill-opacity="1" fill-rule="nonzero"/><path fill="#cc5500" d="M 270.699219 259.175781 C 272.730469 259.238281 274.675781 258.855469 276.535156 258.035156 C 278.394531 257.210938 279.976562 256.023438 281.292969 254.46875 C 287.726562 247.082031 292.71875 238.824219 296.261719 229.6875 C 299.851562 220.710938 301.644531 211.324219 303.261719 201.773438 C 303.261719 201.539062 303.65625 199.164062 303.730469 199.164062 L 273.214844 199.164062 L 273.214844 203.175781 C 273.214844 215.34375 273.214844 227.5 273.214844 239.675781 C 273.214844 240.535156 273.046875 241.367188 272.710938 242.164062 C 272.382812 242.957031 271.917969 243.660156 271.308594 244.269531 C 270.699219 244.875 270 245.34375 269.207031 245.671875 C 268.410156 246.007812 267.578125 246.175781 266.71875 246.175781 L 246.722656 246.175781 C 246.394531 246.175781 246.066406 246.242188 245.769531 246.371094 C 245.460938 246.503906 245.1875 246.679688 244.953125 246.914062 C 244.722656 247.148438 244.542969 247.417969 244.414062 247.726562 C 244.292969 248.035156 244.226562 248.355469 244.226562 248.691406 L 244.226562 256.460938 C 244.226562 256.789062 244.28125 257.117188 244.414062 257.417969 C 244.535156 257.726562 244.710938 257.996094 244.945312 258.230469 C 245.179688 258.472656 245.441406 258.652344 245.75 258.78125 C 246.058594 258.914062 246.375 258.976562 246.703125 258.976562 C 252.441406 259.035156 265.355469 259.175781 270.699219 259.175781 Z M 270.699219 259.175781 " fill-opacity="1" fill-rule="nonzero"/><path fill="#cc5500" d="M 329.859375 168.875 C 328.605469 159.167969 326.335938 149.714844 323.042969 140.492188 C 319.761719 131.273438 315.527344 122.511719 310.347656 114.207031 C 307.339844 109.316406 304.046875 104.628906 300.476562 100.132812 C 296.90625 95.632812 293.082031 91.371094 289.015625 87.320312 C 284.9375 83.28125 280.640625 79.492188 276.113281 75.957031 C 271.589844 72.421875 266.878906 69.167969 261.96875 66.1875 C 257.050781 63.210938 251.984375 60.539062 246.757812 58.164062 C 241.535156 55.789062 236.1875 53.730469 230.71875 51.992188 C 225.25 50.25 219.695312 48.839844 214.058594 47.753906 C 208.429688 46.667969 202.746094 45.921875 197.023438 45.511719 C 178.703125 44.023438 160.648438 45.601562 142.867188 50.269531 C 132.398438 52.980469 122.355469 56.835938 112.757812 61.820312 C 103.15625 66.804688 94.238281 72.796875 85.980469 79.800781 C 77.886719 86.648438 70.648438 94.316406 64.285156 102.796875 C 57.917969 111.289062 52.589844 120.378906 48.289062 130.074219 C 43.613281 140.4375 40.359375 151.230469 38.527344 162.460938 C 36.703125 173.683594 36.367188 184.949219 37.519531 196.257812 C 38.332031 204.140625 39.910156 211.847656 44.035156 218.8125 C 48.167969 225.78125 54.09375 230.699219 62.367188 232.046875 C 65.085938 232.4375 67.828125 232.617188 70.585938 232.578125 C 81.0625 232.578125 91.554688 232.578125 101.921875 232.578125 C 109.335938 246.042969 119.75 250.953125 134.230469 244.484375 C 134.296875 244.605469 134.34375 244.734375 134.378906 244.867188 C 134.378906 246.136719 134.378906 247.390625 134.378906 248.652344 C 134.277344 253.207031 134.996094 257.632812 136.53125 261.921875 C 138.070312 266.214844 140.324219 270.085938 143.296875 273.539062 C 144.738281 275.332031 146.355469 276.941406 148.148438 278.363281 C 149.953125 279.785156 151.898438 280.992188 153.972656 281.972656 C 156.050781 282.957031 158.210938 283.683594 160.453125 284.179688 C 162.695312 284.667969 164.96875 284.902344 167.257812 284.871094 C 174.699219 284.871094 182.140625 284.871094 189.59375 284.871094 L 193.304688 284.871094 C 193.304688 290.519531 193.210938 295.859375 193.304688 301.210938 C 193.332031 302.59375 193.492188 303.96875 193.78125 305.324219 C 194.070312 306.691406 194.480469 308.007812 195.023438 309.28125 C 195.574219 310.5625 196.230469 311.777344 197.003906 312.925781 C 197.78125 314.078125 198.660156 315.144531 199.640625 316.125 C 200.625 317.105469 201.691406 317.996094 202.839844 318.773438 C 203.988281 319.546875 205.203125 320.210938 206.484375 320.753906 C 207.765625 321.296875 209.085938 321.71875 210.441406 322.007812 C 211.796875 322.296875 213.167969 322.457031 214.554688 322.484375 C 221.921875 322.644531 229.296875 322.644531 236.671875 322.484375 C 239.046875 322.464844 241.375 322.101562 243.644531 321.371094 C 245.910156 320.640625 248.011719 319.59375 249.964844 318.21875 C 251.910156 316.84375 253.601562 315.21875 255.050781 313.328125 C 256.5 311.429688 257.632812 309.375 258.445312 307.128906 C 251.5 307.296875 237.410156 307.363281 236.4375 307.363281 C 229.59375 307.363281 222.742188 307.363281 215.898438 307.363281 C 211.148438 307.363281 209.085938 305.332031 209.101562 300.609375 C 209.101562 293.429688 209.101562 279.28125 209.1875 273.230469 C 209.1875 272.863281 209.121094 272.5 208.972656 272.164062 C 208.832031 271.816406 208.636719 271.519531 208.375 271.257812 C 208.101562 270.984375 207.804688 270.789062 207.457031 270.648438 C 207.121094 270.5 206.757812 270.433594 206.390625 270.433594 L 189.425781 270.433594 C 182.730469 270.433594 176.019531 270.285156 169.324219 270.433594 C 160.546875 270.648438 151.375 262.585938 150.027344 252.851562 C 149.234375 247.09375 149.8125 241.554688 153.617188 236.691406 C 154.609375 235.300781 155.863281 234.214844 157.378906 233.421875 C 158.890625 232.625 160.507812 232.214844 162.21875 232.1875 C 175.605469 232.1875 188.992188 232.1875 202.53125 232.1875 C 203.308594 232.1875 204.054688 232.335938 204.785156 232.632812 C 205.503906 232.933594 206.140625 233.355469 206.691406 233.90625 C 207.242188 234.457031 207.664062 235.09375 207.960938 235.8125 C 208.261719 236.535156 208.410156 237.28125 208.421875 238.058594 L 208.421875 238.292969 C 208.421875 239.039062 208.28125 239.761719 208 240.453125 C 207.71875 241.144531 207.308594 241.761719 206.785156 242.285156 C 206.261719 242.820312 205.652344 243.230469 204.960938 243.519531 C 204.269531 243.800781 203.550781 243.949219 202.800781 243.949219 L 168.269531 243.949219 C 165.445312 243.949219 162.519531 243.949219 161.660156 248.1875 C 161.433594 249.375 161.472656 250.5625 161.761719 251.738281 C 162.042969 252.917969 162.566406 253.984375 163.3125 254.9375 C 164.117188 256.136719 165.15625 257.070312 166.425781 257.742188 C 167.699219 258.417969 169.054688 258.746094 170.492188 258.746094 C 183.898438 258.746094 197.285156 258.746094 210.683594 258.847656 L 229.101562 258.847656 C 229.5 258.847656 229.886719 258.773438 230.257812 258.613281 C 230.632812 258.453125 230.960938 258.238281 231.25 257.949219 C 231.53125 257.667969 231.753906 257.339844 231.914062 256.96875 C 232.0625 256.59375 232.148438 256.199219 232.148438 255.796875 C 232.148438 255.152344 232.148438 254.507812 232.148438 253.863281 C 232.25 249.550781 232.148438 245.203125 232.578125 240.949219 C 232.691406 240.070312 232.953125 239.226562 233.363281 238.441406 C 233.765625 237.648438 234.308594 236.957031 234.960938 236.355469 C 235.617188 235.757812 236.363281 235.289062 237.1875 234.953125 C 238.007812 234.625 238.867188 234.441406 239.757812 234.410156 C 244.945312 234.308594 255.425781 234.269531 259.5 234.269531 C 259.949219 234.269531 260.324219 234.113281 260.640625 233.792969 C 260.949219 233.476562 261.101562 233.101562 261.101562 232.652344 L 261.101562 158.625 C 261.101562 158.128906 260.921875 157.710938 260.578125 157.355469 C 260.222656 157.007812 259.800781 156.832031 259.304688 156.832031 L 220.171875 156.832031 C 219.441406 156.832031 218.683594 156.832031 217.945312 156.832031 C 212.675781 156.476562 210.046875 153.707031 210 148.378906 C 210 143.832031 210 139.289062 209.90625 134.742188 C 209.90625 124.257812 209.90625 113.765625 209.90625 103.253906 C 209.90625 97.484375 212.597656 94.867188 218.414062 94.886719 C 222.164062 94.886719 225.902344 94.886719 229.632812 94.886719 C 230.230469 94.90625 230.820312 94.988281 231.398438 95.15625 C 231.980469 95.316406 232.53125 95.550781 233.042969 95.859375 C 233.570312 96.15625 234.046875 96.511719 234.464844 96.933594 C 234.894531 97.355469 235.269531 97.824219 235.578125 98.335938 C 235.894531 98.851562 236.140625 99.394531 236.308594 99.972656 C 236.484375 100.542969 236.589844 101.132812 236.617188 101.730469 C 236.644531 102.328125 236.597656 102.929688 236.476562 103.519531 C 236.355469 104.105469 236.15625 104.667969 235.894531 105.210938 C 235.503906 106.15625 234.878906 106.921875 234.027344 107.511719 C 233.183594 108.089844 232.242188 108.398438 231.210938 108.425781 C 228.183594 108.425781 225.144531 108.425781 221.984375 108.425781 L 221.984375 144.851562 L 224.539062 144.851562 C 238.082031 144.851562 251.628906 144.851562 265.175781 144.851562 C 271.167969 144.851562 273.179688 146.84375 273.195312 152.902344 C 273.195312 163.3125 273.195312 173.746094 273.195312 184.15625 L 273.195312 187.746094 L 303.945312 187.746094 C 303.765625 183.875 303.589844 179.976562 303.402344 175.84375 C 303.011719 171.523438 302.375 167.238281 301.484375 162.992188 C 299.4375 153.734375 296.269531 144.890625 291.960938 136.453125 C 287.660156 128.007812 282.359375 120.246094 276.066406 113.167969 C 273.121094 109.78125 270 106.574219 266.699219 103.535156 C 239.308594 78.746094 206.550781 69.75 169.660156 72.769531 L 169.660156 87.917969 C 169.660156 88.320312 169.746094 88.703125 169.894531 89.070312 C 170.042969 89.445312 170.269531 89.769531 170.550781 90.050781 C 170.828125 90.332031 171.15625 90.554688 171.53125 90.707031 C 171.894531 90.855469 172.277344 90.941406 172.679688 90.941406 L 189.285156 90.941406 C 190.144531 90.941406 190.976562 91.097656 191.769531 91.425781 C 192.566406 91.761719 193.265625 92.230469 193.875 92.839844 C 194.492188 93.445312 194.957031 94.148438 195.285156 94.953125 C 195.613281 95.746094 195.78125 96.570312 195.78125 97.4375 L 195.78125 158.71875 C 195.800781 159.46875 195.679688 160.1875 195.425781 160.898438 C 195.183594 161.601562 194.808594 162.234375 194.324219 162.804688 C 193.835938 163.378906 193.277344 163.835938 192.613281 164.199219 C 191.957031 164.554688 191.265625 164.789062 190.519531 164.890625 C 189.695312 164.976562 188.882812 164.890625 188.097656 164.628906 C 187.300781 164.367188 186.601562 163.964844 185.984375 163.40625 C 185.367188 162.84375 184.890625 162.1875 184.554688 161.433594 C 184.21875 160.664062 184.039062 159.871094 184.039062 159.039062 L 184.039062 105.816406 C 184.039062 105.386719 183.957031 104.96875 183.796875 104.566406 C 183.628906 104.164062 183.386719 103.808594 183.078125 103.5 C 182.777344 103.191406 182.421875 102.945312 182.011719 102.789062 C 181.609375 102.621094 181.199219 102.535156 180.757812 102.535156 L 162.472656 102.535156 C 161.84375 102.535156 161.238281 102.414062 160.660156 102.171875 C 160.078125 101.9375 159.574219 101.589844 159.125 101.152344 C 158.6875 100.710938 158.347656 100.199219 158.105469 99.617188 C 157.863281 99.039062 157.75 98.441406 157.75 97.8125 L 157.75 74.238281 C 154.160156 75.023438 150.945312 75.621094 147.765625 76.480469 C 137.671875 79.136719 128.144531 83.140625 119.1875 88.507812 C 110.230469 93.867188 102.203125 100.367188 95.085938 108.015625 C 78.933594 125.230469 68.164062 145.105469 64.574219 168.613281 C 62.757812 178.929688 62.972656 189.207031 65.21875 199.4375 C 65.554688 201.128906 66.21875 202.679688 67.210938 204.085938 C 68.105469 205.300781 69.304688 206.019531 70.800781 206.246094 C 80.355469 206.402344 89.898438 206.347656 99.613281 206.347656 C 100.050781 206.347656 100.472656 206.261719 100.875 206.09375 C 101.285156 205.925781 101.640625 205.683594 101.949219 205.375 C 102.265625 205.066406 102.5 204.703125 102.667969 204.300781 C 102.835938 203.886719 102.929688 203.46875 102.929688 203.027344 L 102.929688 194.320312 C 102.929688 193.882812 102.847656 193.460938 102.679688 193.050781 C 102.511719 192.648438 102.265625 192.28125 101.957031 191.972656 C 101.648438 191.65625 101.285156 191.421875 100.882812 191.253906 C 100.472656 191.085938 100.050781 191 99.613281 191 L 84.066406 191 C 83.242188 191 82.449219 190.84375 81.691406 190.535156 C 80.933594 190.214844 80.269531 189.765625 79.691406 189.179688 C 79.109375 188.597656 78.660156 187.925781 78.351562 187.167969 C 78.042969 186.402344 77.894531 185.605469 77.902344 184.78125 L 77.902344 184.625 C 77.914062 183.808594 78.082031 183.035156 78.398438 182.285156 C 78.71875 181.539062 79.15625 180.882812 79.738281 180.3125 C 80.308594 179.742188 80.96875 179.300781 81.726562 178.984375 C 82.476562 178.675781 83.25 178.527344 84.066406 178.515625 C 93.394531 178.515625 118.832031 178.375 128.164062 178.339844 C 128.628906 178.332031 129.078125 178.226562 129.507812 178.039062 C 129.9375 177.851562 130.3125 177.589844 130.640625 177.253906 C 130.957031 176.917969 131.210938 176.535156 131.386719 176.09375 C 131.566406 175.664062 131.648438 175.214844 131.648438 174.75 L 131.648438 168.519531 C 131.660156 168.054688 131.585938 167.59375 131.414062 167.164062 C 131.246094 166.726562 131.003906 166.339844 130.675781 165.996094 C 130.359375 165.660156 129.976562 165.398438 129.546875 165.210938 C 129.117188 165.03125 128.667969 164.929688 128.199219 164.929688 C 122.984375 164.929688 113.140625 164.714844 108.257812 164.714844 C 107.605469 164.714844 106.980469 164.59375 106.371094 164.347656 C 105.753906 164.105469 105.210938 163.761719 104.734375 163.3125 C 104.257812 162.863281 103.882812 162.347656 103.605469 161.75 C 103.324219 161.160156 103.164062 160.535156 103.125 159.878906 C 103.125 154.492188 103.125 148.910156 103.125 143.441406 L 103.125 130.441406 C 103.125 129.617188 103.285156 128.824219 103.59375 128.066406 C 103.914062 127.296875 104.359375 126.625 104.941406 126.046875 C 105.519531 125.457031 106.183594 125.007812 106.949219 124.691406 C 107.707031 124.371094 108.492188 124.210938 109.316406 124.203125 C 116.644531 124.203125 123.984375 124.203125 131.539062 124.203125 L 131.539062 103.238281 C 131.539062 102.433594 131.695312 101.667969 132.023438 100.9375 C 132.351562 100.199219 132.808594 99.5625 133.398438 99.027344 C 133.996094 98.488281 134.667969 98.09375 135.4375 97.839844 C 136.191406 97.589844 136.96875 97.503906 137.773438 97.578125 C 138.59375 97.691406 139.382812 97.933594 140.109375 98.328125 C 140.847656 98.71875 141.492188 99.234375 142.046875 99.859375 C 142.597656 100.476562 143.015625 101.1875 143.316406 101.964844 C 143.605469 102.742188 143.757812 103.554688 143.765625 104.386719 C 143.765625 110.886719 143.765625 117.386719 143.765625 124.257812 C 144.679688 124.257812 157.40625 124.257812 162.984375 124.257812 C 167.652344 124.257812 169.59375 126.195312 169.613281 130.917969 C 169.613281 145.382812 169.613281 159.824219 169.613281 174.242188 L 169.613281 178.238281 C 171.027344 178.246094 172.4375 178.132812 173.832031 177.890625 L 202.550781 177.695312 C 202.550781 177.695312 208.128906 178.238281 209.730469 176.132812 C 213.570312 171.269531 218.703125 170.867188 225.398438 171.074219 C 230.007812 171.214844 238.410156 170.859375 240.347656 170.867188 C 240.792969 170.832031 241.242188 170.839844 241.683594 170.90625 C 242.132812 170.960938 242.5625 171.074219 242.984375 171.230469 C 243.402344 171.382812 243.796875 171.585938 244.167969 171.832031 C 244.542969 172.074219 244.890625 172.355469 245.207031 172.683594 C 245.515625 173 245.785156 173.355469 246.019531 173.738281 C 246.253906 174.121094 246.441406 174.523438 246.589844 174.945312 C 246.730469 175.367188 246.824219 175.804688 246.871094 176.253906 C 246.917969 176.695312 246.917969 177.140625 246.863281 177.589844 C 246.722656 189.5625 246.863281 201.558594 246.863281 213.5 C 246.871094 214.238281 246.730469 214.949219 246.449219 215.632812 C 246.171875 216.316406 245.777344 216.925781 245.253906 217.449219 C 244.738281 217.980469 244.140625 218.390625 243.460938 218.683594 C 242.785156 218.972656 242.074219 219.121094 241.335938 219.132812 L 240.550781 219.132812 C 239.804688 219.132812 239.085938 218.992188 238.402344 218.710938 C 237.710938 218.421875 237.113281 218.019531 236.578125 217.496094 C 236.054688 216.972656 235.644531 216.363281 235.363281 215.679688 C 235.074219 214.988281 234.933594 214.277344 234.933594 213.53125 L 234.933594 186.511719 C 234.925781 186.128906 234.847656 185.753906 234.699219 185.398438 C 234.558594 185.042969 234.34375 184.726562 234.074219 184.457031 C 233.800781 184.183594 233.484375 183.976562 233.128906 183.828125 C 232.773438 183.679688 232.410156 183.605469 232.027344 183.605469 C 228.679688 183.605469 225.453125 183.605469 222.238281 183.726562 C 221.125 183.726562 219.917969 184.988281 219.011719 185.914062 C 217.5 187.503906 215.722656 188.691406 213.675781 189.476562 C 211.636719 190.273438 209.523438 190.589844 207.34375 190.441406 C 192.855469 190.1875 178.375 190.441406 163.882812 190.441406 C 159.433594 190.441406 157.515625 188.5625 157.515625 184.089844 C 157.515625 171.308594 157.515625 146.386719 157.515625 138.484375 C 157.527344 138.164062 157.46875 137.855469 157.359375 137.558594 C 157.246094 137.257812 157.078125 136.988281 156.863281 136.761719 C 156.636719 136.527344 156.386719 136.339844 156.097656 136.210938 C 155.804688 136.078125 155.496094 136.015625 155.179688 136.003906 L 118.421875 136.003906 C 117.972656 136.003906 117.53125 136.089844 117.121094 136.265625 C 116.699219 136.433594 116.335938 136.6875 116.019531 137.003906 C 115.699219 137.324219 115.449219 137.6875 115.28125 138.109375 C 115.113281 138.53125 115.027344 138.960938 115.027344 139.417969 L 115.027344 149.957031 C 115.027344 150.332031 115.09375 150.707031 115.242188 151.050781 C 115.382812 151.40625 115.589844 151.726562 115.859375 151.988281 C 116.128906 152.257812 116.449219 152.464844 116.792969 152.613281 C 117.148438 152.753906 117.515625 152.828125 117.898438 152.828125 C 122.617188 152.828125 131.828125 152.828125 136.472656 152.828125 C 136.960938 152.78125 137.445312 152.792969 137.921875 152.855469 C 138.410156 152.921875 138.875 153.035156 139.335938 153.191406 C 139.792969 153.363281 140.230469 153.578125 140.644531 153.828125 C 141.054688 154.089844 141.429688 154.390625 141.773438 154.734375 C 142.121094 155.074219 142.429688 155.445312 142.691406 155.859375 C 142.953125 156.269531 143.175781 156.699219 143.34375 157.148438 C 143.511719 157.605469 143.632812 158.074219 143.699219 158.5625 C 143.765625 159.039062 143.785156 159.523438 143.746094 160.011719 C 143.820312 168.023438 143.820312 176.058594 143.746094 184.089844 C 143.765625 184.96875 143.617188 185.832031 143.289062 186.652344 C 142.972656 187.476562 142.503906 188.214844 141.894531 188.851562 C 141.289062 189.496094 140.578125 190 139.773438 190.355469 C 138.960938 190.722656 138.117188 190.917969 137.230469 190.945312 C 132.292969 190.945312 122.871094 191.039062 118.058594 191.039062 C 117.664062 191.039062 117.28125 191.113281 116.90625 191.261719 C 116.53125 191.421875 116.214844 191.636719 115.925781 191.917969 C 115.644531 192.199219 115.429688 192.527344 115.269531 192.898438 C 115.121094 193.265625 115.046875 193.648438 115.046875 194.050781 L 115.046875 203.140625 C 115.046875 203.578125 115.128906 204 115.296875 204.402344 C 115.476562 204.804688 115.710938 205.160156 116.027344 205.476562 C 116.335938 205.785156 116.691406 206.019531 117.101562 206.1875 C 117.503906 206.355469 117.925781 206.441406 118.363281 206.441406 L 215.527344 206.441406 C 225.59375 206.28125 225.773438 218 215.703125 218.148438 C 168.53125 218.898438 118.890625 218.148438 71.714844 218.148438 C 62.621094 218.148438 57.628906 214.410156 54.914062 205.582031 C 52.558594 197.660156 51.578125 189.570312 51.988281 181.324219 C 52.410156 165.191406 56.074219 149.84375 62.992188 135.265625 C 80.941406 98.300781 109.484375 74.21875 149.523438 64.523438 C 180.214844 57.105469 210.550781 58.882812 239.429688 72.085938 C 278.347656 89.875 303.890625 119.554688 313.023438 161.695312 C 314.78125 169.371094 315.753906 177.132812 315.957031 185.007812 C 316.152344 192.871094 315.582031 200.679688 314.226562 208.433594 C 312.871094 216.183594 310.769531 223.722656 307.917969 231.054688 C 305.058594 238.386719 301.515625 245.371094 297.269531 251.992188 C 293.492188 258.136719 288.835938 263.523438 283.304688 268.152344 C 281.433594 269.769531 279.253906 270.535156 276.785156 270.472656 C 261.855469 270.472656 233.941406 270.472656 224.539062 270.472656 C 224.109375 270.472656 223.707031 270.546875 223.3125 270.714844 C 222.921875 270.875 222.574219 271.105469 222.273438 271.40625 C 221.964844 271.714844 221.742188 272.0625 221.582031 272.453125 C 221.414062 272.847656 221.339844 273.257812 221.339844 273.679688 L 221.339844 291.886719 C 221.339844 292.316406 221.425781 292.726562 221.582031 293.128906 C 221.75 293.523438 221.984375 293.878906 222.285156 294.175781 C 222.59375 294.484375 222.9375 294.71875 223.332031 294.886719 C 223.734375 295.046875 224.144531 295.132812 224.574219 295.140625 L 260.238281 295.226562 C 260.238281 293.429688 260.34375 291.746094 260.4375 289.839844 L 263.109375 289.839844 C 266.980469 289.96875 270.839844 289.894531 274.703125 289.605469 C 281.152344 288.875 286.371094 285.332031 291.324219 281.460938 C 304.046875 271.414062 312.78125 258.332031 319.238281 243.585938 C 324.707031 230.941406 328.242188 217.773438 329.832031 204.085938 C 331.289062 192.359375 331.300781 180.621094 329.859375 168.875 Z M 329.859375 168.875 " fill-opacity="1" fill-rule="nonzero"/></svg>