<?xml version="1.0" standalone="no"?>
<!DOCTYPE svg PUBLIC "-//W3C//DTD SVG 1.1//EN" "http://www.w3.org/Graphics/SVG/1.1/DTD/svg11.dtd">
<svg xmlns="http://www.w3.org/2000/svg" xmlns:xlink="http://www.w3.org/1999/xlink" width="450" zoomAndPan="magnify" viewBox="0 0 450 374.999991" height="375" preserveAspectRatio="xMidYMid meet" version="1.0"><path fill="#212121" d="M 242.128906 195.441406 C 240.628906 195.441406 239.0625 195.441406 237.53125 195.390625 C 236.457031 195.378906 235.390625 195.273438 234.332031 195.070312 C 233.277344 194.871094 232.246094 194.574219 231.242188 194.1875 C 230.238281 193.800781 229.277344 193.328125 228.359375 192.765625 C 227.441406 192.207031 226.582031 191.570312 225.777344 190.855469 C 224.972656 190.140625 224.238281 189.359375 223.574219 188.511719 C 222.914062 187.664062 222.328125 186.765625 221.828125 185.8125 C 221.324219 184.863281 220.914062 183.871094 220.589844 182.847656 C 220.265625 181.820312 220.035156 180.773438 219.898438 179.707031 L 217.964844 179.707031 C 216.351562 179.714844 214.753906 179.546875 213.175781 179.199219 C 211.601562 178.851562 210.082031 178.335938 208.617188 177.648438 C 207.15625 176.964844 205.789062 176.125 204.511719 175.136719 C 203.238281 174.144531 202.085938 173.027344 201.058594 171.78125 C 199.023438 169.417969 197.5 166.761719 196.5 163.808594 C 194.46875 163.457031 192.554688 162.769531 190.761719 161.753906 C 188.96875 160.734375 187.398438 159.445312 186.050781 157.882812 L 177.636719 157.882812 C 176.007812 157.894531 174.386719 157.78125 172.777344 157.539062 C 166.777344 156.570312 161.941406 153.136719 158.671875 147.609375 C 156.367188 143.511719 155.046875 139.125 154.710938 134.4375 C 154.152344 128.917969 154.320312 123.417969 155.210938 117.941406 C 156.101562 112.464844 157.683594 107.195312 159.960938 102.136719 C 162.035156 97.453125 164.605469 93.0625 167.675781 88.960938 C 170.742188 84.863281 174.226562 81.15625 178.132812 77.84375 C 182.101562 74.472656 186.394531 71.585938 191.011719 69.179688 C 195.628906 66.773438 200.457031 64.910156 205.492188 63.59375 C 211.882812 61.890625 218.382812 61.054688 224.992188 61.078125 C 227.015625 61.078125 229.109375 61.15625 231.203125 61.304688 C 236.050781 61.660156 240.8125 62.511719 245.488281 63.859375 C 250.160156 65.203125 254.644531 67.019531 258.9375 69.300781 C 262.128906 70.960938 265.167969 72.863281 268.054688 75.007812 C 270.945312 77.148438 273.648438 79.503906 276.164062 82.074219 C 278.679688 84.644531 280.980469 87.394531 283.0625 90.328125 C 285.144531 93.261719 286.984375 96.339844 288.578125 99.5625 C 291.984375 106.285156 294.164062 113.386719 295.125 120.863281 C 295.785156 126.226562 295.820312 131.59375 295.222656 136.964844 C 294.472656 144.199219 292.609375 151.128906 289.628906 157.761719 C 286.074219 165.609375 281.476562 171.675781 275.578125 176.316406 C 272.902344 178.433594 269.578125 180.644531 265.28125 181.449219 C 265.007812 182.425781 264.65625 183.378906 264.226562 184.304688 C 263.800781 185.226562 263.300781 186.109375 262.730469 186.953125 C 262.164062 187.800781 261.53125 188.59375 260.835938 189.335938 C 260.140625 190.078125 259.386719 190.761719 258.582031 191.382812 C 257.777344 192.007812 256.929688 192.5625 256.035156 193.050781 C 255.140625 193.535156 254.214844 193.949219 253.253906 194.289062 C 252.292969 194.628906 251.3125 194.886719 250.3125 195.070312 C 249.308594 195.253906 248.300781 195.355469 247.28125 195.375 C 245.617188 195.421875 243.871094 195.441406 242.128906 195.441406 Z M 223.761719 175.597656 L 223.824219 177.59375 C 223.839844 178.492188 223.941406 179.382812 224.128906 180.261719 C 224.316406 181.140625 224.585938 181.992188 224.9375 182.820312 C 225.292969 183.648438 225.71875 184.433594 226.222656 185.175781 C 226.730469 185.921875 227.300781 186.609375 227.9375 187.246094 C 228.574219 187.878906 229.269531 188.445312 230.015625 188.945312 C 230.761719 189.445312 231.550781 189.871094 232.378906 190.21875 C 233.210938 190.566406 234.066406 190.832031 234.945312 191.011719 C 235.824219 191.195312 236.714844 191.292969 237.613281 191.300781 C 240.824219 191.371094 244.074219 191.371094 247.199219 191.300781 C 248.046875 191.285156 248.886719 191.199219 249.71875 191.039062 C 250.554688 190.878906 251.367188 190.648438 252.160156 190.351562 C 252.953125 190.054688 253.71875 189.695312 254.449219 189.265625 C 255.183594 188.839844 255.875 188.355469 256.523438 187.8125 C 257.175781 187.265625 257.773438 186.671875 258.324219 186.027344 C 258.871094 185.378906 259.363281 184.691406 259.796875 183.964844 C 260.230469 183.234375 260.597656 182.476562 260.902344 181.683594 C 261.207031 180.890625 261.441406 180.082031 261.609375 179.25 L 261.90625 177.75 L 263.527344 177.578125 C 267.488281 177.128906 270.5625 175.066406 273.050781 173.078125 C 278.414062 168.847656 282.621094 163.273438 285.90625 156.046875 C 288.703125 149.8125 290.453125 143.296875 291.15625 136.5 C 291.722656 131.445312 291.691406 126.394531 291.066406 121.351562 C 290.167969 114.339844 288.125 107.679688 284.933594 101.371094 C 283.433594 98.335938 281.703125 95.4375 279.742188 92.675781 C 277.785156 89.910156 275.621094 87.320312 273.253906 84.902344 C 270.886719 82.480469 268.339844 80.261719 265.621094 78.246094 C 262.902344 76.226562 260.042969 74.433594 257.039062 72.871094 C 252.984375 70.722656 248.75 69.015625 244.335938 67.75 C 239.925781 66.488281 235.429688 65.695312 230.851562 65.371094 C 222.625 64.710938 214.519531 65.425781 206.535156 67.515625 C 201.789062 68.757812 197.238281 70.515625 192.886719 72.78125 C 188.535156 75.046875 184.488281 77.769531 180.75 80.949219 C 177.078125 84.0625 173.796875 87.546875 170.914062 91.402344 C 168.027344 95.253906 165.609375 99.382812 163.65625 103.785156 C 161.527344 108.519531 160.046875 113.449219 159.214844 118.574219 C 158.382812 123.699219 158.226562 128.84375 158.746094 134.011719 C 159.03125 138.09375 160.171875 141.925781 162.164062 145.5 C 164.796875 149.953125 168.683594 152.707031 173.414062 153.480469 C 174.816406 153.6875 176.226562 153.78125 177.644531 153.765625 L 187.980469 153.765625 L 188.59375 154.515625 C 191.242188 157.761719 194.488281 159.5625 198.246094 159.863281 L 199.664062 159.984375 L 200.046875 161.355469 C 200.851562 164.242188 202.238281 166.820312 204.203125 169.085938 C 205.039062 170.105469 205.976562 171.023438 207.019531 171.832031 C 208.058594 172.644531 209.175781 173.332031 210.367188 173.894531 C 211.558594 174.457031 212.800781 174.882812 214.085938 175.167969 C 215.375 175.457031 216.675781 175.597656 217.996094 175.597656 Z M 223.761719 175.597656 " fill-opacity="1" fill-rule="nonzero"/><path fill="#cc5500" d="M 261.269531 159.75 C 262.117188 159.777344 262.929688 159.617188 263.707031 159.273438 C 264.484375 158.929688 265.144531 158.433594 265.695312 157.785156 C 268.382812 154.699219 270.46875 151.25 271.949219 147.433594 C 273.449219 143.683594 274.199219 139.761719 274.875 135.773438 C 274.875 135.675781 275.039062 134.683594 275.070312 134.683594 L 262.320312 134.683594 L 262.320312 136.359375 C 262.320312 141.441406 262.320312 146.519531 262.320312 151.605469 C 262.320312 151.964844 262.25 152.3125 262.109375 152.644531 C 261.972656 152.976562 261.777344 153.269531 261.523438 153.523438 C 261.269531 153.777344 260.976562 153.972656 260.644531 154.109375 C 260.3125 154.25 259.964844 154.320312 259.605469 154.320312 L 251.25 154.320312 C 251.113281 154.320312 250.976562 154.347656 250.851562 154.402344 C 250.722656 154.457031 250.609375 154.53125 250.511719 154.628906 C 250.414062 154.726562 250.339844 154.839844 250.285156 154.96875 C 250.234375 155.097656 250.207031 155.230469 250.207031 155.371094 L 250.207031 158.617188 C 250.207031 158.753906 250.230469 158.890625 250.285156 159.015625 C 250.335938 159.144531 250.410156 159.257812 250.507812 159.355469 C 250.605469 159.457031 250.714844 159.53125 250.84375 159.585938 C 250.972656 159.640625 251.105469 159.667969 251.242188 159.667969 C 253.640625 159.691406 259.035156 159.75 261.269531 159.75 Z M 261.269531 159.75 " fill-opacity="1" fill-rule="nonzero"/><path fill="#cc5500" d="M 285.988281 122.03125 C 285.464844 117.976562 284.515625 114.027344 283.140625 110.175781 C 281.769531 106.324219 280 102.664062 277.835938 99.195312 C 276.578125 97.152344 275.203125 95.195312 273.710938 93.316406 C 272.21875 91.4375 270.621094 89.65625 268.921875 87.964844 C 267.21875 86.277344 265.421875 84.695312 263.53125 83.21875 C 261.640625 81.742188 259.671875 80.382812 257.621094 79.136719 C 255.566406 77.894531 253.449219 76.777344 251.265625 75.785156 C 249.082031 74.792969 246.847656 73.933594 244.5625 73.207031 C 242.277344 72.480469 239.957031 71.890625 237.601562 71.4375 C 235.25 70.984375 232.875 70.671875 230.484375 70.5 C 222.828125 69.878906 215.285156 70.539062 207.855469 72.488281 C 203.480469 73.621094 199.285156 75.230469 195.273438 77.3125 C 191.261719 79.394531 187.535156 81.898438 184.085938 84.824219 C 180.703125 87.683594 177.679688 90.886719 175.019531 94.429688 C 172.359375 97.976562 170.132812 101.773438 168.335938 105.824219 C 166.382812 110.152344 165.023438 114.660156 164.257812 119.351562 C 163.496094 124.039062 163.355469 128.746094 163.835938 133.46875 C 164.175781 136.761719 164.835938 139.980469 166.558594 142.890625 C 168.285156 145.800781 170.761719 147.855469 174.21875 148.417969 C 175.355469 148.582031 176.5 148.65625 177.652344 148.640625 C 182.03125 148.640625 186.414062 148.640625 190.746094 148.640625 C 193.84375 154.265625 198.195312 156.316406 204.246094 153.613281 C 204.273438 153.664062 204.292969 153.71875 204.308594 153.773438 C 204.308594 154.304688 204.308594 154.828125 204.308594 155.355469 C 204.265625 157.257812 204.566406 159.105469 205.207031 160.898438 C 205.851562 162.691406 206.792969 164.308594 208.035156 165.75 C 208.636719 166.5 209.3125 167.171875 210.0625 167.765625 C 210.816406 168.359375 211.628906 168.863281 212.496094 169.273438 C 213.363281 169.683594 214.265625 169.988281 215.203125 170.195312 C 216.140625 170.398438 217.089844 170.496094 218.046875 170.484375 C 221.15625 170.484375 224.265625 170.484375 227.378906 170.484375 L 228.929688 170.484375 C 228.929688 172.84375 228.890625 175.074219 228.929688 177.308594 C 228.941406 177.886719 229.007812 178.460938 229.128906 179.027344 C 229.25 179.597656 229.421875 180.148438 229.648438 180.679688 C 229.878906 181.214844 230.152344 181.722656 230.476562 182.203125 C 230.800781 182.683594 231.167969 183.128906 231.578125 183.539062 C 231.988281 183.949219 232.433594 184.320312 232.914062 184.644531 C 233.394531 184.96875 233.902344 185.246094 234.4375 185.472656 C 234.972656 185.699219 235.523438 185.875 236.089844 185.996094 C 236.65625 186.117188 237.230469 186.183594 237.808594 186.195312 C 240.886719 186.261719 243.96875 186.261719 247.050781 186.195312 C 248.042969 186.1875 249.015625 186.035156 249.964844 185.730469 C 250.910156 185.425781 251.789062 184.988281 252.605469 184.414062 C 253.417969 183.839844 254.125 183.160156 254.730469 182.371094 C 255.335938 181.578125 255.808594 180.71875 256.148438 179.78125 C 253.246094 179.851562 247.359375 179.878906 246.953125 179.878906 C 244.09375 179.878906 241.230469 179.878906 238.371094 179.878906 C 236.386719 179.878906 235.523438 179.03125 235.53125 177.058594 C 235.53125 174.058594 235.53125 168.148438 235.566406 165.621094 C 235.566406 165.46875 235.539062 165.316406 235.476562 165.175781 C 235.417969 165.03125 235.335938 164.90625 235.226562 164.796875 C 235.113281 164.683594 234.988281 164.601562 234.84375 164.542969 C 234.703125 164.480469 234.550781 164.453125 234.398438 164.453125 L 227.308594 164.453125 C 224.511719 164.453125 221.707031 164.390625 218.910156 164.453125 C 215.242188 164.542969 211.410156 161.175781 210.847656 157.109375 C 210.515625 154.703125 210.757812 152.390625 212.347656 150.359375 C 212.761719 149.777344 213.285156 149.324219 213.917969 148.992188 C 214.550781 148.660156 215.226562 148.488281 215.941406 148.476562 C 221.535156 148.476562 227.128906 148.476562 232.785156 148.476562 C 233.109375 148.476562 233.421875 148.539062 233.726562 148.664062 C 234.027344 148.789062 234.292969 148.964844 234.523438 149.195312 C 234.753906 149.425781 234.929688 149.691406 235.054688 149.992188 C 235.179688 150.292969 235.242188 150.605469 235.246094 150.929688 L 235.246094 151.027344 C 235.246094 151.339844 235.1875 151.640625 235.070312 151.929688 C 234.953125 152.21875 234.78125 152.476562 234.5625 152.695312 C 234.34375 152.917969 234.089844 153.089844 233.800781 153.210938 C 233.511719 153.328125 233.210938 153.390625 232.898438 153.390625 L 218.46875 153.390625 C 217.289062 153.390625 216.066406 153.390625 215.707031 155.160156 C 215.613281 155.65625 215.628906 156.152344 215.75 156.644531 C 215.867188 157.136719 216.085938 157.582031 216.398438 157.980469 C 216.734375 158.480469 217.167969 158.871094 217.699219 159.152344 C 218.230469 159.433594 218.796875 159.570312 219.398438 159.570312 C 225 159.570312 230.59375 159.570312 236.191406 159.613281 L 243.886719 159.613281 C 244.054688 159.613281 244.214844 159.582031 244.371094 159.515625 C 244.527344 159.449219 244.664062 159.359375 244.785156 159.238281 C 244.902344 159.121094 244.996094 158.984375 245.0625 158.828125 C 245.125 158.671875 245.160156 158.507812 245.160156 158.339844 C 245.160156 158.070312 245.160156 157.800781 245.160156 157.53125 C 245.203125 155.730469 245.160156 153.914062 245.339844 152.136719 C 245.386719 151.769531 245.496094 151.417969 245.667969 151.089844 C 245.835938 150.757812 246.0625 150.46875 246.335938 150.21875 C 246.609375 149.96875 246.921875 149.773438 247.265625 149.632812 C 247.609375 149.496094 247.96875 149.417969 248.339844 149.40625 C 250.507812 149.363281 254.886719 149.347656 256.589844 149.347656 C 256.777344 149.347656 256.933594 149.28125 257.066406 149.148438 C 257.195312 149.015625 257.257812 148.859375 257.257812 148.671875 L 257.257812 117.75 C 257.257812 117.542969 257.183594 117.367188 257.039062 117.21875 C 256.890625 117.074219 256.714844 117 256.507812 117 L 240.15625 117 C 239.851562 117 239.535156 117 239.226562 117 C 237.023438 116.851562 235.925781 115.695312 235.90625 113.46875 C 235.90625 111.570312 235.90625 109.671875 235.867188 107.773438 C 235.867188 103.394531 235.867188 99.011719 235.867188 94.621094 C 235.867188 92.210938 236.992188 91.117188 239.421875 91.125 C 240.988281 91.125 242.550781 91.125 244.109375 91.125 C 244.359375 91.132812 244.605469 91.167969 244.847656 91.238281 C 245.089844 91.304688 245.320312 91.402344 245.535156 91.53125 C 245.753906 91.65625 245.953125 91.804688 246.128906 91.980469 C 246.308594 92.15625 246.464844 92.351562 246.59375 92.566406 C 246.726562 92.78125 246.828125 93.007812 246.898438 93.25 C 246.972656 93.488281 247.015625 93.734375 247.027344 93.984375 C 247.039062 94.234375 247.019531 94.484375 246.96875 94.730469 C 246.917969 94.976562 246.835938 95.210938 246.726562 95.4375 C 246.5625 95.832031 246.300781 96.152344 245.945312 96.398438 C 245.59375 96.640625 245.199219 96.769531 244.769531 96.78125 C 243.503906 96.78125 242.234375 96.78125 240.914062 96.78125 L 240.914062 111.996094 L 241.980469 111.996094 C 247.640625 111.996094 253.300781 111.996094 258.960938 111.996094 C 261.464844 111.996094 262.304688 112.828125 262.3125 115.359375 C 262.3125 119.707031 262.3125 124.066406 262.3125 128.414062 L 262.3125 129.914062 L 275.160156 129.914062 C 275.085938 128.296875 275.011719 126.667969 274.933594 124.941406 C 274.769531 123.136719 274.503906 121.347656 274.132812 119.574219 C 273.277344 115.707031 271.953125 112.011719 270.152344 108.488281 C 268.355469 104.960938 266.140625 101.71875 263.511719 98.761719 C 262.28125 97.347656 260.976562 96.007812 259.597656 94.738281 C 248.152344 84.382812 234.464844 80.625 219.050781 81.886719 L 219.050781 88.214844 C 219.050781 88.382812 219.085938 88.542969 219.148438 88.695312 C 219.210938 88.851562 219.304688 88.988281 219.421875 89.105469 C 219.539062 89.222656 219.675781 89.316406 219.832031 89.378906 C 219.984375 89.441406 220.144531 89.476562 220.3125 89.476562 L 227.25 89.476562 C 227.609375 89.476562 227.957031 89.542969 228.289062 89.679688 C 228.621094 89.820312 228.914062 90.015625 229.167969 90.269531 C 229.425781 90.523438 229.621094 90.816406 229.757812 91.152344 C 229.894531 91.484375 229.964844 91.828125 229.964844 92.191406 L 229.964844 117.789062 C 229.972656 118.101562 229.921875 118.402344 229.816406 118.699219 C 229.714844 118.992188 229.558594 119.257812 229.355469 119.496094 C 229.152344 119.734375 228.917969 119.925781 228.640625 120.078125 C 228.367188 120.226562 228.078125 120.324219 227.765625 120.367188 C 227.421875 120.402344 227.082031 120.367188 226.753906 120.257812 C 226.421875 120.148438 226.128906 119.980469 225.871094 119.746094 C 225.613281 119.511719 225.414062 119.238281 225.273438 118.921875 C 225.132812 118.601562 225.058594 118.269531 225.058594 117.921875 L 225.058594 95.691406 C 225.058594 95.511719 225.023438 95.335938 224.957031 95.167969 C 224.886719 95 224.785156 94.851562 224.65625 94.722656 C 224.53125 94.59375 224.382812 94.492188 224.210938 94.425781 C 224.042969 94.355469 223.871094 94.320312 223.6875 94.320312 L 216.046875 94.320312 C 215.785156 94.320312 215.53125 94.269531 215.289062 94.167969 C 215.046875 94.070312 214.835938 93.925781 214.648438 93.742188 C 214.464844 93.558594 214.324219 93.34375 214.222656 93.101562 C 214.121094 92.859375 214.074219 92.609375 214.074219 92.347656 L 214.074219 82.5 C 212.574219 82.828125 211.230469 83.078125 209.902344 83.4375 C 205.683594 84.546875 201.703125 86.21875 197.960938 88.460938 C 194.21875 90.699219 190.863281 93.414062 187.890625 96.609375 C 181.140625 103.800781 176.640625 112.101562 175.140625 121.921875 C 174.382812 126.230469 174.472656 130.523438 175.410156 134.796875 C 175.550781 135.503906 175.828125 136.152344 176.242188 136.738281 C 176.617188 137.246094 177.117188 137.546875 177.742188 137.640625 C 181.734375 137.707031 185.722656 137.683594 189.78125 137.683594 C 189.964844 137.683594 190.140625 137.648438 190.308594 137.578125 C 190.480469 137.507812 190.628906 137.40625 190.757812 137.277344 C 190.890625 137.148438 190.988281 136.996094 191.058594 136.828125 C 191.128906 136.65625 191.167969 136.480469 191.167969 136.296875 L 191.167969 132.660156 C 191.167969 132.476562 191.132812 132.300781 191.0625 132.128906 C 190.992188 131.960938 190.890625 131.808594 190.761719 131.679688 C 190.632812 131.546875 190.480469 131.449219 190.3125 131.378906 C 190.140625 131.308594 189.964844 131.273438 189.78125 131.273438 L 183.285156 131.273438 C 182.941406 131.273438 182.609375 131.207031 182.292969 131.078125 C 181.976562 130.945312 181.699219 130.757812 181.457031 130.511719 C 181.214844 130.269531 181.027344 129.988281 180.898438 129.671875 C 180.769531 129.351562 180.707031 129.019531 180.710938 128.675781 L 180.710938 128.609375 C 180.714844 128.269531 180.785156 127.945312 180.917969 127.632812 C 181.050781 127.320312 181.234375 127.046875 181.476562 126.808594 C 181.714844 126.570312 181.992188 126.386719 182.308594 126.253906 C 182.621094 126.125 182.945312 126.0625 183.285156 126.058594 C 187.183594 126.058594 197.8125 126 201.710938 125.984375 C 201.90625 125.980469 202.09375 125.9375 202.273438 125.859375 C 202.453125 125.78125 202.609375 125.671875 202.746094 125.53125 C 202.878906 125.390625 202.984375 125.230469 203.058594 125.046875 C 203.132812 124.867188 203.167969 124.679688 203.167969 124.484375 L 203.167969 121.882812 C 203.171875 121.6875 203.140625 121.496094 203.070312 121.316406 C 203 121.132812 202.898438 120.972656 202.761719 120.828125 C 202.628906 120.6875 202.46875 120.578125 202.289062 120.5 C 202.109375 120.425781 201.921875 120.382812 201.726562 120.382812 C 199.546875 120.382812 195.433594 120.292969 193.394531 120.292969 C 193.121094 120.292969 192.859375 120.242188 192.605469 120.140625 C 192.347656 120.039062 192.121094 119.894531 191.921875 119.707031 C 191.722656 119.519531 191.566406 119.304688 191.449219 119.054688 C 191.332031 118.808594 191.265625 118.546875 191.25 118.273438 C 191.25 116.023438 191.25 113.691406 191.25 111.40625 L 191.25 105.976562 C 191.25 105.632812 191.316406 105.300781 191.445312 104.984375 C 191.578125 104.664062 191.765625 104.382812 192.007812 104.140625 C 192.25 103.894531 192.527344 103.707031 192.847656 103.574219 C 193.164062 103.441406 193.492188 103.375 193.835938 103.371094 C 196.898438 103.371094 199.964844 103.371094 203.121094 103.371094 L 203.121094 94.613281 C 203.121094 94.277344 203.1875 93.957031 203.324219 93.652344 C 203.460938 93.34375 203.652344 93.078125 203.898438 92.855469 C 204.148438 92.628906 204.429688 92.464844 204.75 92.359375 C 205.066406 92.253906 205.390625 92.21875 205.726562 92.25 C 206.070312 92.296875 206.398438 92.398438 206.703125 92.5625 C 207.011719 92.726562 207.28125 92.941406 207.511719 93.203125 C 207.742188 93.460938 207.917969 93.757812 208.042969 94.082031 C 208.164062 94.40625 208.226562 94.746094 208.230469 95.09375 C 208.230469 97.808594 208.230469 100.523438 208.230469 103.394531 C 208.613281 103.394531 213.929688 103.394531 216.261719 103.394531 C 218.210938 103.394531 219.023438 104.203125 219.03125 106.175781 C 219.03125 112.21875 219.03125 118.25 219.03125 124.273438 L 219.03125 125.941406 C 219.621094 125.945312 220.210938 125.898438 220.792969 125.796875 L 232.792969 125.714844 C 232.792969 125.714844 235.125 125.941406 235.792969 125.0625 C 237.398438 123.03125 239.542969 122.863281 242.339844 122.949219 C 244.265625 123.007812 247.777344 122.859375 248.585938 122.863281 C 248.773438 122.847656 248.960938 122.851562 249.144531 122.878906 C 249.332031 122.902344 249.511719 122.949219 249.6875 123.015625 C 249.863281 123.078125 250.027344 123.164062 250.183594 123.265625 C 250.339844 123.367188 250.484375 123.484375 250.617188 123.621094 C 250.746094 123.753906 250.859375 123.902344 250.957031 124.0625 C 251.054688 124.222656 251.132812 124.390625 251.195312 124.566406 C 251.253906 124.742188 251.292969 124.925781 251.3125 125.113281 C 251.332031 125.296875 251.332031 125.484375 251.308594 125.671875 C 251.25 130.671875 251.308594 135.683594 251.308594 140.671875 C 251.3125 140.980469 251.253906 141.277344 251.136719 141.5625 C 251.019531 141.847656 250.855469 142.101562 250.636719 142.320312 C 250.421875 142.542969 250.171875 142.714844 249.886719 142.835938 C 249.605469 142.957031 249.308594 143.019531 249 143.023438 L 248.671875 143.023438 C 248.359375 143.023438 248.058594 142.964844 247.773438 142.847656 C 247.484375 142.726562 247.234375 142.558594 247.011719 142.339844 C 246.792969 142.121094 246.621094 141.867188 246.503906 141.582031 C 246.382812 141.292969 246.324219 140.996094 246.324219 140.683594 L 246.324219 129.398438 C 246.320312 129.238281 246.289062 129.082031 246.226562 128.933594 C 246.167969 128.785156 246.078125 128.652344 245.964844 128.539062 C 245.851562 128.425781 245.71875 128.339844 245.570312 128.277344 C 245.421875 128.214844 245.269531 128.183594 245.109375 128.183594 C 243.710938 128.183594 242.363281 128.183594 241.019531 128.234375 C 240.554688 128.234375 240.050781 128.761719 239.671875 129.148438 C 239.039062 129.8125 238.296875 130.308594 237.441406 130.636719 C 236.589844 130.96875 235.707031 131.101562 234.796875 131.039062 C 228.742188 130.933594 222.691406 131.039062 216.636719 131.039062 C 214.777344 131.039062 213.976562 130.253906 213.976562 128.386719 C 213.976562 123.046875 213.976562 112.636719 213.976562 109.335938 C 213.980469 109.203125 213.957031 109.074219 213.910156 108.949219 C 213.863281 108.824219 213.792969 108.710938 213.703125 108.617188 C 213.609375 108.519531 213.503906 108.441406 213.382812 108.386719 C 213.261719 108.332031 213.132812 108.304688 213 108.300781 L 197.640625 108.300781 C 197.453125 108.300781 197.269531 108.335938 197.097656 108.410156 C 196.921875 108.480469 196.769531 108.585938 196.636719 108.71875 C 196.503906 108.851562 196.398438 109.003906 196.328125 109.179688 C 196.257812 109.355469 196.222656 109.535156 196.222656 109.726562 L 196.222656 114.128906 C 196.222656 114.285156 196.25 114.441406 196.3125 114.585938 C 196.371094 114.734375 196.457031 114.867188 196.570312 114.976562 C 196.683594 115.089844 196.816406 115.175781 196.960938 115.238281 C 197.109375 115.296875 197.261719 115.328125 197.421875 115.328125 C 199.394531 115.328125 203.242188 115.328125 205.183594 115.328125 C 205.386719 115.308594 205.589844 115.3125 205.789062 115.339844 C 205.992188 115.367188 206.1875 115.414062 206.378906 115.480469 C 206.570312 115.550781 206.753906 115.640625 206.925781 115.746094 C 207.097656 115.855469 207.253906 115.980469 207.398438 116.125 C 207.542969 116.265625 207.671875 116.421875 207.78125 116.59375 C 207.890625 116.765625 207.984375 116.945312 208.054688 117.132812 C 208.125 117.324219 208.175781 117.519531 208.203125 117.722656 C 208.230469 117.921875 208.238281 118.125 208.222656 118.328125 C 208.253906 121.675781 208.253906 125.03125 208.222656 128.386719 C 208.230469 128.753906 208.167969 129.113281 208.03125 129.457031 C 207.898438 129.800781 207.703125 130.109375 207.449219 130.375 C 207.195312 130.644531 206.898438 130.855469 206.5625 131.003906 C 206.222656 131.15625 205.871094 131.238281 205.5 131.25 C 203.4375 131.25 199.5 131.289062 197.488281 131.289062 C 197.324219 131.289062 197.164062 131.320312 197.007812 131.382812 C 196.851562 131.449219 196.71875 131.539062 196.597656 131.65625 C 196.480469 131.773438 196.390625 131.910156 196.324219 132.066406 C 196.261719 132.21875 196.230469 132.378906 196.230469 132.546875 L 196.230469 136.34375 C 196.230469 136.527344 196.265625 136.703125 196.335938 136.871094 C 196.410156 137.039062 196.507812 137.1875 196.640625 137.320312 C 196.769531 137.449219 196.917969 137.546875 197.089844 137.617188 C 197.257812 137.6875 197.433594 137.722656 197.617188 137.722656 L 238.214844 137.722656 C 242.421875 137.65625 242.496094 142.550781 238.289062 142.613281 C 218.578125 142.925781 197.835938 142.613281 178.125 142.613281 C 174.324219 142.613281 172.238281 141.050781 171.105469 137.363281 C 170.121094 134.054688 169.710938 130.675781 169.882812 127.230469 C 170.058594 120.492188 171.589844 114.082031 174.480469 107.992188 C 181.980469 92.550781 193.90625 82.492188 210.636719 78.441406 C 223.460938 75.34375 236.136719 76.085938 248.203125 81.601562 C 264.464844 89.03125 275.136719 101.429688 278.953125 119.03125 C 279.6875 122.238281 280.09375 125.480469 280.179688 128.769531 C 280.261719 132.054688 280.023438 135.316406 279.457031 138.554688 C 278.890625 141.792969 278.011719 144.941406 276.820312 148.003906 C 275.625 151.066406 274.144531 153.984375 272.371094 156.75 C 270.792969 159.316406 268.847656 161.566406 266.535156 163.5 C 265.753906 164.175781 264.84375 164.496094 263.8125 164.46875 C 257.574219 164.46875 245.910156 164.46875 241.980469 164.46875 C 241.800781 164.46875 241.632812 164.5 241.46875 164.570312 C 241.304688 164.636719 241.160156 164.734375 241.035156 164.859375 C 240.90625 164.988281 240.8125 165.132812 240.746094 165.296875 C 240.675781 165.460938 240.644531 165.632812 240.644531 165.808594 L 240.644531 173.414062 C 240.644531 173.59375 240.679688 173.765625 240.746094 173.933594 C 240.816406 174.097656 240.914062 174.246094 241.039062 174.371094 C 241.167969 174.5 241.3125 174.597656 241.476562 174.667969 C 241.644531 174.734375 241.816406 174.769531 241.996094 174.773438 L 256.898438 174.808594 C 256.898438 174.058594 256.941406 173.355469 256.980469 172.558594 L 258.097656 172.558594 C 259.714844 172.613281 261.328125 172.582031 262.941406 172.460938 C 265.636719 172.15625 267.816406 170.675781 269.886719 169.058594 C 275.203125 164.863281 278.851562 159.398438 281.550781 153.238281 C 283.835938 147.957031 285.3125 142.457031 285.976562 136.738281 C 286.585938 131.839844 286.589844 126.9375 285.988281 122.03125 Z M 285.988281 122.03125 " fill-opacity="1" fill-rule="nonzero"/></svg>