<?xml version="1.0" standalone="no"?>
<!DOCTYPE svg PUBLIC "-//W3C//DTD SVG 1.1//EN" "http://www.w3.org/Graphics/SVG/1.1/DTD/svg11.dtd">
<svg xmlns="http://www.w3.org/2000/svg" xmlns:xlink="http://www.w3.org/1999/xlink" width="375" zoomAndPan="magnify" viewBox="0 0 375 374.999991" height="375" preserveAspectRatio="xMidYMid meet" version="1.0"><defs><clipPath id="a42d4178e6"><path d="M 80.007812 153.355469 L 131.757812 153.355469 L 131.757812 202.855469 L 80.007812 202.855469 Z M 80.007812 153.355469 " clip-rule="nonzero"/></clipPath><clipPath id="d1574b0fc2"><path d="M 132.300781 153.355469 L 282.300781 153.355469 L 282.300781 203.605469 L 132.300781 203.605469 Z M 132.300781 153.355469 " clip-rule="nonzero"/></clipPath></defs><g clip-path="url(#a42d4178e6)"><path fill="#ffffff" d="M 15.625 123.589844 L 195.480469 123.589844 L 195.480469 273.890625 L 15.625 273.890625 Z M 15.625 123.589844 " fill-opacity="1" fill-rule="nonzero"/><path fill="#ffffff" d="M 15.625 123.589844 L 195.480469 123.589844 L 195.480469 273.890625 L 15.625 273.890625 Z M 15.625 123.589844 " fill-opacity="1" fill-rule="nonzero"/></g><path fill="#212121" d="M 111.257812 201.390625 C 110.757812 201.390625 110.238281 201.390625 109.726562 201.375 C 109.371094 201.371094 109.015625 201.335938 108.660156 201.269531 C 108.308594 201.203125 107.96875 201.101562 107.632812 200.972656 C 107.296875 200.84375 106.976562 200.6875 106.671875 200.5 C 106.367188 200.3125 106.082031 200.097656 105.8125 199.859375 C 105.542969 199.621094 105.300781 199.359375 105.078125 199.078125 C 104.859375 198.792969 104.664062 198.496094 104.496094 198.175781 C 104.328125 197.859375 104.191406 197.527344 104.085938 197.1875 C 103.976562 196.84375 103.898438 196.492188 103.855469 196.136719 L 103.210938 196.136719 C 102.671875 196.140625 102.140625 196.082031 101.617188 195.96875 C 101.089844 195.851562 100.585938 195.679688 100.097656 195.449219 C 99.609375 195.222656 99.15625 194.941406 98.730469 194.609375 C 98.304688 194.277344 97.921875 193.90625 97.578125 193.488281 C 96.902344 192.699219 96.394531 191.8125 96.0625 190.828125 C 95.386719 190.710938 94.746094 190.480469 94.148438 190.140625 C 93.554688 189.800781 93.03125 189.371094 92.582031 188.847656 L 89.777344 188.847656 C 89.234375 188.851562 88.695312 188.8125 88.160156 188.734375 C 86.160156 188.410156 84.550781 187.261719 83.460938 185.417969 C 82.695312 184.046875 82.253906 182.582031 82.144531 181.015625 C 81.957031 179.171875 82.011719 177.335938 82.308594 175.507812 C 82.605469 173.679688 83.132812 171.917969 83.890625 170.230469 C 84.582031 168.664062 85.4375 167.199219 86.460938 165.828125 C 87.484375 164.460938 88.644531 163.222656 89.945312 162.113281 C 91.265625 160.988281 92.695312 160.023438 94.234375 159.222656 C 95.769531 158.417969 97.378906 157.796875 99.054688 157.355469 C 101.183594 156.785156 103.351562 156.507812 105.550781 156.515625 C 106.226562 156.515625 106.921875 156.542969 107.621094 156.589844 C 109.234375 156.710938 110.820312 156.992188 112.378906 157.445312 C 113.933594 157.894531 115.425781 158.5 116.855469 159.261719 C 117.917969 159.816406 118.933594 160.453125 119.894531 161.167969 C 120.855469 161.882812 121.757812 162.667969 122.59375 163.527344 C 123.433594 164.386719 124.199219 165.304688 124.890625 166.285156 C 125.585938 167.265625 126.199219 168.292969 126.730469 169.367188 C 127.863281 171.613281 128.589844 173.984375 128.910156 176.484375 C 129.128906 178.273438 129.140625 180.066406 128.941406 181.859375 C 128.691406 184.277344 128.070312 186.59375 127.078125 188.808594 C 125.894531 191.429688 124.363281 193.453125 122.398438 195.003906 C 121.507812 195.710938 120.402344 196.449219 118.96875 196.71875 C 118.878906 197.046875 118.761719 197.363281 118.617188 197.671875 C 118.476562 197.980469 118.308594 198.277344 118.121094 198.558594 C 117.929688 198.839844 117.722656 199.105469 117.488281 199.351562 C 117.257812 199.601562 117.007812 199.828125 116.738281 200.035156 C 116.46875 200.246094 116.1875 200.429688 115.890625 200.59375 C 115.59375 200.753906 115.285156 200.894531 114.964844 201.007812 C 114.644531 201.121094 114.316406 201.207031 113.984375 201.269531 C 113.648438 201.328125 113.3125 201.363281 112.976562 201.371094 C 112.421875 201.386719 111.839844 201.390625 111.257812 201.390625 Z M 105.140625 194.765625 L 105.160156 195.429688 C 105.167969 195.730469 105.199219 196.027344 105.261719 196.324219 C 105.324219 196.617188 105.414062 196.898438 105.53125 197.175781 C 105.652344 197.453125 105.792969 197.714844 105.960938 197.964844 C 106.128906 198.210938 106.320312 198.441406 106.53125 198.65625 C 106.742188 198.867188 106.976562 199.054688 107.222656 199.222656 C 107.472656 199.390625 107.734375 199.53125 108.011719 199.648438 C 108.289062 199.765625 108.574219 199.851562 108.867188 199.914062 C 109.160156 199.972656 109.457031 200.007812 109.753906 200.007812 C 110.824219 200.03125 111.90625 200.03125 112.949219 200.007812 C 113.230469 200.003906 113.507812 199.976562 113.785156 199.921875 C 114.066406 199.867188 114.335938 199.792969 114.601562 199.691406 C 114.863281 199.59375 115.117188 199.472656 115.363281 199.328125 C 115.605469 199.1875 115.835938 199.027344 116.054688 198.84375 C 116.269531 198.660156 116.46875 198.464844 116.652344 198.25 C 116.835938 198.03125 117 197.800781 117.144531 197.558594 C 117.289062 197.316406 117.410156 197.0625 117.511719 196.796875 C 117.613281 196.53125 117.691406 196.261719 117.746094 195.984375 L 117.847656 195.484375 L 118.386719 195.425781 C 119.703125 195.277344 120.730469 194.585938 121.558594 193.921875 C 123.34375 192.511719 124.746094 190.648438 125.839844 188.234375 C 126.769531 186.152344 127.355469 183.976562 127.585938 181.707031 C 127.777344 180.019531 127.765625 178.332031 127.558594 176.644531 C 127.257812 174.304688 126.578125 172.078125 125.515625 169.972656 C 125.015625 168.960938 124.4375 167.992188 123.785156 167.070312 C 123.132812 166.144531 122.414062 165.28125 121.625 164.472656 C 120.835938 163.664062 119.988281 162.921875 119.082031 162.25 C 118.175781 161.574219 117.226562 160.976562 116.226562 160.453125 C 114.875 159.734375 113.464844 159.167969 111.992188 158.742188 C 110.523438 158.320312 109.027344 158.058594 107.503906 157.949219 C 104.761719 157.726562 102.0625 157.96875 99.402344 158.664062 C 97.824219 159.078125 96.308594 159.667969 94.859375 160.425781 C 93.410156 161.179688 92.0625 162.089844 90.816406 163.152344 C 89.59375 164.191406 88.5 165.355469 87.539062 166.644531 C 86.578125 167.929688 85.773438 169.308594 85.121094 170.777344 C 84.414062 172.359375 83.921875 174.007812 83.644531 175.71875 C 83.367188 177.429688 83.3125 179.148438 83.488281 180.875 C 83.582031 182.238281 83.960938 183.519531 84.625 184.710938 C 85.503906 186.199219 86.796875 187.117188 88.371094 187.378906 C 88.839844 187.445312 89.308594 187.476562 89.78125 187.472656 L 93.222656 187.472656 L 93.429688 187.722656 C 94.308594 188.808594 95.390625 189.410156 96.644531 189.507812 L 97.113281 189.550781 L 97.242188 190.007812 C 97.511719 190.972656 97.972656 191.832031 98.628906 192.589844 C 98.90625 192.929688 99.21875 193.238281 99.566406 193.507812 C 99.910156 193.777344 100.285156 194.007812 100.679688 194.195312 C 101.078125 194.382812 101.492188 194.527344 101.917969 194.621094 C 102.347656 194.71875 102.78125 194.765625 103.222656 194.765625 Z M 105.140625 194.765625 " fill-opacity="1" fill-rule="nonzero"/><path fill="#cc5500" d="M 117.632812 189.472656 C 117.917969 189.480469 118.1875 189.425781 118.445312 189.3125 C 118.703125 189.199219 118.925781 189.03125 119.109375 188.816406 C 120.003906 187.785156 120.699219 186.632812 121.191406 185.359375 C 121.691406 184.105469 121.941406 182.796875 122.164062 181.464844 C 122.164062 181.429688 122.21875 181.097656 122.230469 181.097656 L 117.984375 181.097656 L 117.984375 181.660156 C 117.984375 183.355469 117.984375 185.050781 117.984375 186.75 C 117.984375 186.871094 117.960938 186.988281 117.914062 187.097656 C 117.867188 187.210938 117.804688 187.308594 117.71875 187.390625 C 117.632812 187.476562 117.535156 187.542969 117.425781 187.585938 C 117.316406 187.632812 117.199219 187.65625 117.078125 187.65625 L 114.296875 187.65625 C 114.25 187.65625 114.207031 187.667969 114.164062 187.683594 C 114.121094 187.703125 114.082031 187.726562 114.050781 187.761719 C 114.019531 187.792969 113.992188 187.832031 113.976562 187.875 C 113.957031 187.917969 113.949219 187.960938 113.949219 188.007812 L 113.949219 189.09375 C 113.949219 189.140625 113.957031 189.183594 113.976562 189.226562 C 113.992188 189.269531 114.015625 189.308594 114.050781 189.339844 C 114.082031 189.375 114.117188 189.398438 114.160156 189.417969 C 114.203125 189.433594 114.25 189.445312 114.292969 189.445312 C 115.09375 189.453125 116.890625 189.472656 117.632812 189.472656 Z M 117.632812 189.472656 " fill-opacity="1" fill-rule="nonzero"/><path fill="#cc5500" d="M 125.867188 176.875 C 125.691406 175.519531 125.375 174.199219 124.917969 172.914062 C 124.460938 171.628906 123.871094 170.40625 123.152344 169.246094 C 122.730469 168.5625 122.273438 167.910156 121.777344 167.28125 C 121.28125 166.65625 120.75 166.058594 120.183594 165.496094 C 119.613281 164.929688 119.015625 164.402344 118.386719 163.910156 C 117.757812 163.417969 117.101562 162.960938 116.417969 162.546875 C 115.734375 162.132812 115.027344 161.757812 114.300781 161.425781 C 113.574219 161.097656 112.832031 160.808594 112.070312 160.566406 C 111.308594 160.324219 110.535156 160.125 109.75 159.976562 C 108.96875 159.824219 108.175781 159.71875 107.378906 159.660156 C 104.832031 159.453125 102.316406 159.675781 99.84375 160.324219 C 98.386719 160.703125 96.988281 161.242188 95.652344 161.9375 C 94.316406 162.632812 93.074219 163.46875 91.925781 164.445312 C 90.800781 165.402344 89.792969 166.472656 88.90625 167.65625 C 88.019531 168.839844 87.28125 170.105469 86.679688 171.460938 C 86.03125 172.90625 85.578125 174.410156 85.324219 175.976562 C 85.070312 177.542969 85.023438 179.117188 85.183594 180.695312 C 85.296875 181.792969 85.515625 182.867188 86.089844 183.839844 C 86.664062 184.8125 87.488281 185.5 88.640625 185.6875 C 89.019531 185.742188 89.398438 185.765625 89.785156 185.761719 C 91.242188 185.761719 92.703125 185.761719 94.144531 185.761719 C 95.175781 187.640625 96.625 188.324219 98.640625 187.421875 C 98.652344 187.4375 98.65625 187.457031 98.664062 187.476562 C 98.664062 187.652344 98.664062 187.828125 98.664062 188.003906 C 98.648438 188.640625 98.746094 189.257812 98.960938 189.855469 C 99.175781 190.453125 99.488281 190.992188 99.902344 191.476562 C 100.105469 191.726562 100.328125 191.949219 100.578125 192.148438 C 100.828125 192.347656 101.101562 192.515625 101.390625 192.652344 C 101.679688 192.789062 101.976562 192.890625 102.289062 192.960938 C 102.601562 193.027344 102.917969 193.0625 103.238281 193.058594 C 104.273438 193.058594 105.308594 193.058594 106.347656 193.058594 L 106.863281 193.058594 C 106.863281 193.84375 106.847656 194.589844 106.863281 195.335938 C 106.867188 195.527344 106.886719 195.722656 106.929688 195.910156 C 106.96875 196.101562 107.027344 196.285156 107.101562 196.460938 C 107.179688 196.640625 107.269531 196.808594 107.378906 196.972656 C 107.484375 197.132812 107.609375 197.28125 107.746094 197.417969 C 107.882812 197.554688 108.03125 197.679688 108.191406 197.785156 C 108.347656 197.894531 108.519531 197.988281 108.695312 198.0625 C 108.875 198.136719 109.058594 198.195312 109.246094 198.238281 C 109.4375 198.277344 109.628906 198.300781 109.820312 198.304688 C 110.84375 198.328125 111.871094 198.328125 112.898438 198.304688 C 113.226562 198.300781 113.550781 198.25 113.867188 198.148438 C 114.183594 198.046875 114.476562 197.902344 114.746094 197.710938 C 115.019531 197.515625 115.253906 197.289062 115.457031 197.027344 C 115.65625 196.761719 115.816406 196.476562 115.929688 196.160156 C 114.960938 196.183594 113 196.195312 112.867188 196.195312 C 111.914062 196.195312 110.960938 196.195312 110.007812 196.195312 C 109.347656 196.195312 109.058594 195.910156 109.0625 195.253906 C 109.0625 194.25 109.0625 192.277344 109.074219 191.433594 C 109.074219 191.382812 109.0625 191.332031 109.042969 191.285156 C 109.023438 191.234375 108.996094 191.195312 108.960938 191.15625 C 108.921875 191.121094 108.878906 191.09375 108.832031 191.074219 C 108.785156 191.050781 108.734375 191.042969 108.683594 191.042969 L 106.324219 191.042969 C 105.390625 191.042969 104.457031 191.019531 103.523438 191.042969 C 102.304688 191.074219 101.027344 189.949219 100.839844 188.589844 C 100.730469 187.785156 100.808594 187.011719 101.339844 186.335938 C 101.476562 186.140625 101.652344 185.988281 101.863281 185.878906 C 102.074219 185.765625 102.296875 185.710938 102.535156 185.707031 C 104.398438 185.707031 106.261719 185.707031 108.148438 185.707031 C 108.253906 185.707031 108.359375 185.726562 108.460938 185.769531 C 108.558594 185.808594 108.648438 185.871094 108.726562 185.945312 C 108.800781 186.023438 108.859375 186.113281 108.902344 186.210938 C 108.945312 186.3125 108.964844 186.417969 108.964844 186.527344 L 108.964844 186.558594 C 108.964844 186.664062 108.945312 186.761719 108.90625 186.859375 C 108.867188 186.957031 108.8125 187.042969 108.738281 187.113281 C 108.664062 187.191406 108.582031 187.246094 108.484375 187.289062 C 108.386719 187.328125 108.289062 187.347656 108.183594 187.347656 L 103.378906 187.347656 C 102.984375 187.347656 102.578125 187.347656 102.457031 187.9375 C 102.425781 188.105469 102.433594 188.269531 102.472656 188.433594 C 102.511719 188.597656 102.585938 188.746094 102.6875 188.878906 C 102.800781 189.046875 102.945312 189.179688 103.121094 189.273438 C 103.300781 189.367188 103.488281 189.410156 103.6875 189.410156 C 105.554688 189.410156 107.417969 189.410156 109.28125 189.425781 L 111.84375 189.425781 C 111.898438 189.425781 111.953125 189.414062 112.003906 189.394531 C 112.058594 189.371094 112.101562 189.339844 112.144531 189.300781 C 112.183594 189.261719 112.214844 189.214844 112.234375 189.164062 C 112.257812 189.113281 112.269531 189.054688 112.269531 189 C 112.269531 188.910156 112.269531 188.820312 112.269531 188.730469 C 112.28125 188.128906 112.269531 187.523438 112.328125 186.929688 C 112.34375 186.804688 112.378906 186.6875 112.4375 186.578125 C 112.492188 186.46875 112.570312 186.371094 112.660156 186.289062 C 112.75 186.203125 112.855469 186.140625 112.96875 186.09375 C 113.085938 186.046875 113.203125 186.019531 113.328125 186.015625 C 114.050781 186.003906 115.507812 185.996094 116.074219 185.996094 C 116.136719 185.996094 116.191406 185.976562 116.234375 185.929688 C 116.277344 185.886719 116.296875 185.832031 116.296875 185.769531 L 116.296875 175.445312 C 116.296875 175.375 116.273438 175.316406 116.226562 175.265625 C 116.175781 175.21875 116.117188 175.191406 116.046875 175.191406 L 110.601562 175.191406 C 110.5 175.191406 110.394531 175.191406 110.292969 175.191406 C 109.558594 175.144531 109.191406 174.757812 109.1875 174.011719 C 109.1875 173.378906 109.1875 172.746094 109.171875 172.109375 C 109.171875 170.648438 109.171875 169.183594 109.171875 167.71875 C 109.171875 166.914062 109.546875 166.546875 110.355469 166.550781 C 110.878906 166.550781 111.398438 166.550781 111.917969 166.550781 C 112 166.554688 112.082031 166.566406 112.164062 166.589844 C 112.246094 166.609375 112.320312 166.644531 112.394531 166.6875 C 112.464844 166.726562 112.53125 166.777344 112.589844 166.835938 C 112.652344 166.894531 112.703125 166.960938 112.746094 167.03125 C 112.789062 167.105469 112.824219 167.179688 112.847656 167.261719 C 112.871094 167.339844 112.886719 167.421875 112.890625 167.503906 C 112.894531 167.589844 112.886719 167.671875 112.871094 167.753906 C 112.855469 167.835938 112.828125 167.914062 112.789062 167.992188 C 112.734375 168.121094 112.648438 168.230469 112.53125 168.3125 C 112.414062 168.394531 112.28125 168.4375 112.136719 168.441406 C 111.714844 168.441406 111.292969 168.441406 110.855469 168.441406 L 110.855469 173.523438 L 111.210938 173.523438 C 113.09375 173.523438 114.980469 173.523438 116.863281 173.523438 C 117.699219 173.523438 117.976562 173.800781 117.980469 174.644531 C 117.980469 176.097656 117.980469 177.554688 117.980469 179.003906 L 117.980469 179.507812 L 122.261719 179.507812 C 122.234375 178.964844 122.210938 178.421875 122.183594 177.84375 C 122.128906 177.242188 122.042969 176.644531 121.917969 176.050781 C 121.632812 174.761719 121.191406 173.527344 120.59375 172.351562 C 119.992188 171.171875 119.257812 170.089844 118.378906 169.101562 C 117.96875 168.628906 117.535156 168.179688 117.078125 167.757812 C 113.265625 164.296875 108.707031 163.042969 103.570312 163.464844 L 103.570312 165.578125 C 103.570312 165.636719 103.582031 165.6875 103.605469 165.738281 C 103.625 165.792969 103.65625 165.835938 103.695312 165.875 C 103.734375 165.914062 103.78125 165.945312 103.832031 165.96875 C 103.882812 165.988281 103.9375 166 103.992188 166 L 106.304688 166 C 106.421875 166 106.539062 166.023438 106.648438 166.066406 C 106.757812 166.113281 106.855469 166.179688 106.941406 166.265625 C 107.027344 166.351562 107.09375 166.449219 107.136719 166.558594 C 107.183594 166.671875 107.207031 166.785156 107.207031 166.90625 L 107.207031 175.457031 C 107.210938 175.5625 107.191406 175.660156 107.15625 175.761719 C 107.125 175.859375 107.070312 175.945312 107.003906 176.027344 C 106.9375 176.105469 106.859375 176.171875 106.765625 176.222656 C 106.675781 176.269531 106.578125 176.304688 106.476562 176.316406 C 106.359375 176.328125 106.246094 176.316406 106.136719 176.28125 C 106.027344 176.246094 105.929688 176.1875 105.84375 176.109375 C 105.757812 176.03125 105.691406 175.941406 105.644531 175.835938 C 105.597656 175.726562 105.574219 175.617188 105.574219 175.5 L 105.574219 168.074219 C 105.574219 168.015625 105.5625 167.957031 105.539062 167.902344 C 105.515625 167.84375 105.480469 167.796875 105.4375 167.753906 C 105.398438 167.710938 105.347656 167.675781 105.289062 167.652344 C 105.234375 167.628906 105.175781 167.617188 105.117188 167.617188 L 102.570312 167.617188 C 102.484375 167.617188 102.398438 167.601562 102.320312 167.566406 C 102.238281 167.535156 102.167969 167.484375 102.105469 167.425781 C 102.042969 167.363281 101.996094 167.292969 101.964844 167.210938 C 101.929688 167.128906 101.914062 167.046875 101.914062 166.960938 L 101.914062 163.671875 C 101.414062 163.78125 100.96875 163.863281 100.523438 163.984375 C 99.121094 164.355469 97.792969 164.910156 96.546875 165.660156 C 95.300781 166.410156 94.183594 167.316406 93.195312 168.382812 C 90.945312 170.785156 89.445312 173.558594 88.949219 176.835938 C 88.695312 178.277344 88.726562 179.710938 89.039062 181.136719 C 89.085938 181.375 89.175781 181.589844 89.3125 181.785156 C 89.4375 181.957031 89.605469 182.054688 89.8125 182.085938 C 91.144531 182.109375 92.472656 182.101562 93.824219 182.101562 C 93.886719 182.101562 93.941406 182.089844 94 182.066406 C 94.054688 182.042969 94.105469 182.007812 94.148438 181.964844 C 94.191406 181.921875 94.226562 181.871094 94.25 181.816406 C 94.273438 181.757812 94.285156 181.699219 94.285156 181.636719 L 94.285156 180.421875 C 94.285156 180.363281 94.273438 180.304688 94.25 180.246094 C 94.226562 180.191406 94.191406 180.140625 94.148438 180.097656 C 94.105469 180.050781 94.054688 180.019531 94 179.996094 C 93.941406 179.972656 93.886719 179.960938 93.824219 179.960938 L 91.660156 179.960938 C 91.546875 179.960938 91.433594 179.9375 91.328125 179.894531 C 91.222656 179.851562 91.132812 179.789062 91.050781 179.707031 C 90.96875 179.625 90.90625 179.53125 90.863281 179.425781 C 90.820312 179.316406 90.800781 179.207031 90.800781 179.09375 L 90.800781 179.070312 C 90.804688 178.957031 90.828125 178.847656 90.871094 178.746094 C 90.914062 178.640625 90.976562 178.546875 91.058594 178.46875 C 91.136719 178.390625 91.230469 178.328125 91.335938 178.285156 C 91.4375 178.242188 91.546875 178.21875 91.660156 178.21875 C 92.957031 178.21875 96.5 178.199219 97.796875 178.195312 C 97.863281 178.191406 97.925781 178.179688 97.984375 178.152344 C 98.042969 178.125 98.097656 178.089844 98.140625 178.042969 C 98.1875 177.996094 98.222656 177.941406 98.246094 177.878906 C 98.269531 177.820312 98.28125 177.757812 98.28125 177.691406 L 98.28125 176.824219 C 98.285156 176.757812 98.273438 176.695312 98.25 176.632812 C 98.226562 176.574219 98.191406 176.519531 98.148438 176.472656 C 98.101562 176.425781 98.050781 176.386719 97.988281 176.363281 C 97.929688 176.335938 97.867188 176.324219 97.800781 176.324219 C 97.078125 176.324219 95.707031 176.292969 95.027344 176.292969 C 94.9375 176.292969 94.847656 176.277344 94.765625 176.242188 C 94.679688 176.207031 94.601562 176.160156 94.535156 176.097656 C 94.46875 176.035156 94.417969 175.960938 94.378906 175.878906 C 94.339844 175.796875 94.316406 175.710938 94.3125 175.617188 C 94.3125 174.867188 94.3125 174.085938 94.3125 173.324219 L 94.3125 171.511719 C 94.3125 171.394531 94.335938 171.285156 94.378906 171.179688 C 94.421875 171.074219 94.484375 170.980469 94.566406 170.898438 C 94.644531 170.816406 94.738281 170.753906 94.84375 170.707031 C 94.949219 170.664062 95.058594 170.640625 95.175781 170.640625 C 96.195312 170.640625 97.214844 170.640625 98.265625 170.640625 L 98.265625 167.714844 C 98.265625 167.605469 98.289062 167.496094 98.335938 167.394531 C 98.378906 167.292969 98.445312 167.203125 98.527344 167.128906 C 98.609375 167.054688 98.703125 167 98.808594 166.964844 C 98.914062 166.929688 99.023438 166.914062 99.132812 166.925781 C 99.25 166.941406 99.359375 166.976562 99.460938 167.03125 C 99.5625 167.085938 99.652344 167.15625 99.730469 167.246094 C 99.804688 167.332031 99.863281 167.429688 99.90625 167.539062 C 99.945312 167.648438 99.96875 167.761719 99.96875 167.875 C 99.96875 168.78125 99.96875 169.691406 99.96875 170.648438 C 100.097656 170.648438 101.867188 170.648438 102.644531 170.648438 C 103.292969 170.648438 103.5625 170.917969 103.566406 171.578125 C 103.566406 173.597656 103.566406 175.609375 103.566406 177.621094 L 103.566406 178.179688 C 103.761719 178.179688 103.957031 178.164062 104.152344 178.132812 L 108.148438 178.105469 C 108.148438 178.105469 108.925781 178.179688 109.148438 177.886719 C 109.683594 177.207031 110.398438 177.152344 111.328125 177.179688 C 111.96875 177.199219 113.140625 177.148438 113.410156 177.152344 C 113.472656 177.144531 113.535156 177.148438 113.59375 177.15625 C 113.65625 177.164062 113.71875 177.179688 113.777344 177.203125 C 113.835938 177.222656 113.890625 177.25 113.941406 177.285156 C 113.992188 177.320312 114.042969 177.359375 114.085938 177.40625 C 114.128906 177.449219 114.167969 177.5 114.199219 177.550781 C 114.230469 177.605469 114.257812 177.660156 114.277344 177.71875 C 114.296875 177.777344 114.3125 177.839844 114.316406 177.902344 C 114.324219 177.964844 114.324219 178.027344 114.316406 178.089844 C 114.296875 179.757812 114.316406 181.433594 114.316406 183.097656 C 114.316406 183.203125 114.296875 183.300781 114.257812 183.398438 C 114.21875 183.492188 114.164062 183.578125 114.09375 183.648438 C 114.019531 183.722656 113.9375 183.78125 113.84375 183.820312 C 113.75 183.863281 113.648438 183.882812 113.546875 183.882812 L 113.4375 183.882812 C 113.332031 183.882812 113.234375 183.863281 113.136719 183.824219 C 113.042969 183.785156 112.960938 183.730469 112.886719 183.65625 C 112.8125 183.582031 112.753906 183.5 112.714844 183.402344 C 112.675781 183.308594 112.65625 183.207031 112.65625 183.101562 L 112.65625 179.335938 C 112.65625 179.28125 112.644531 179.226562 112.625 179.179688 C 112.605469 179.128906 112.574219 179.085938 112.535156 179.046875 C 112.5 179.007812 112.453125 178.980469 112.40625 178.960938 C 112.355469 178.9375 112.304688 178.929688 112.25 178.929688 C 111.785156 178.929688 111.335938 178.929688 110.890625 178.945312 C 110.734375 178.945312 110.566406 179.121094 110.441406 179.25 C 110.230469 179.472656 109.980469 179.636719 109.699219 179.746094 C 109.414062 179.859375 109.121094 179.902344 108.816406 179.882812 C 106.800781 179.847656 104.785156 179.882812 102.769531 179.882812 C 102.148438 179.882812 101.882812 179.621094 101.882812 178.996094 C 101.882812 177.210938 101.882812 173.734375 101.882812 172.632812 C 101.882812 172.589844 101.875 172.546875 101.859375 172.503906 C 101.84375 172.460938 101.820312 172.425781 101.792969 172.394531 C 101.761719 172.359375 101.726562 172.335938 101.683594 172.316406 C 101.644531 172.296875 101.601562 172.289062 101.558594 172.289062 L 96.441406 172.289062 C 96.378906 172.289062 96.316406 172.300781 96.261719 172.324219 C 96.203125 172.347656 96.152344 172.382812 96.105469 172.425781 C 96.0625 172.472656 96.027344 172.523438 96.003906 172.582031 C 95.980469 172.640625 95.96875 172.699219 95.96875 172.761719 L 95.96875 174.234375 C 95.96875 174.285156 95.976562 174.339844 96 174.386719 C 96.019531 174.4375 96.046875 174.480469 96.085938 174.515625 C 96.121094 174.554688 96.167969 174.582031 96.214844 174.605469 C 96.265625 174.625 96.316406 174.632812 96.367188 174.632812 C 97.027344 174.632812 98.308594 174.632812 98.953125 174.632812 C 99.019531 174.628906 99.089844 174.628906 99.15625 174.636719 C 99.222656 174.648438 99.289062 174.664062 99.351562 174.683594 C 99.414062 174.707031 99.476562 174.738281 99.535156 174.773438 C 99.589844 174.8125 99.644531 174.851562 99.691406 174.902344 C 99.738281 174.949219 99.78125 175 99.820312 175.058594 C 99.855469 175.113281 99.886719 175.175781 99.910156 175.238281 C 99.933594 175.300781 99.949219 175.367188 99.960938 175.433594 C 99.96875 175.5 99.972656 175.570312 99.964844 175.636719 C 99.976562 176.753906 99.976562 177.875 99.964844 178.996094 C 99.96875 179.117188 99.949219 179.238281 99.902344 179.355469 C 99.859375 179.46875 99.792969 179.570312 99.707031 179.660156 C 99.625 179.75 99.523438 179.820312 99.414062 179.871094 C 99.300781 179.921875 99.183594 179.949219 99.058594 179.953125 C 98.371094 179.953125 97.0625 179.964844 96.390625 179.964844 C 96.335938 179.964844 96.28125 179.976562 96.230469 179.996094 C 96.179688 180.019531 96.132812 180.050781 96.09375 180.089844 C 96.054688 180.128906 96.023438 180.171875 96.003906 180.226562 C 95.980469 180.277344 95.972656 180.328125 95.972656 180.386719 L 95.972656 181.652344 C 95.972656 181.714844 95.984375 181.773438 96.007812 181.828125 C 96.03125 181.886719 96.0625 181.9375 96.109375 181.980469 C 96.152344 182.023438 96.199219 182.054688 96.257812 182.078125 C 96.3125 182.101562 96.371094 182.113281 96.433594 182.113281 L 109.953125 182.113281 C 111.355469 182.09375 111.382812 183.726562 109.980469 183.746094 C 103.414062 183.851562 96.507812 183.746094 89.941406 183.746094 C 88.675781 183.746094 87.980469 183.226562 87.601562 181.996094 C 87.277344 180.890625 87.140625 179.761719 87.195312 178.609375 C 87.253906 176.359375 87.765625 174.21875 88.726562 172.183594 C 91.226562 167.027344 95.199219 163.667969 100.769531 162.3125 C 105.042969 161.28125 109.261719 161.527344 113.28125 163.371094 C 118.699219 165.851562 122.253906 169.992188 123.523438 175.871094 C 123.769531 176.941406 123.902344 178.027344 123.933594 179.125 C 123.960938 180.222656 123.878906 181.3125 123.691406 182.390625 C 123.503906 183.472656 123.210938 184.523438 122.8125 185.546875 C 122.414062 186.570312 121.921875 187.546875 121.332031 188.46875 C 120.804688 189.328125 120.15625 190.078125 119.386719 190.722656 C 119.128906 190.949219 118.824219 191.054688 118.480469 191.046875 C 116.402344 191.046875 112.519531 191.046875 111.210938 191.046875 C 111.148438 191.046875 111.09375 191.058594 111.039062 191.082031 C 110.984375 191.105469 110.9375 191.136719 110.894531 191.179688 C 110.851562 191.222656 110.820312 191.269531 110.796875 191.324219 C 110.773438 191.378906 110.765625 191.4375 110.765625 191.496094 L 110.765625 194.035156 C 110.765625 194.09375 110.777344 194.152344 110.796875 194.207031 C 110.820312 194.261719 110.855469 194.3125 110.894531 194.355469 C 110.9375 194.398438 110.988281 194.429688 111.042969 194.453125 C 111.097656 194.476562 111.15625 194.488281 111.214844 194.488281 L 116.179688 194.5 C 116.179688 194.25 116.191406 194.015625 116.207031 193.75 L 116.578125 193.75 C 117.117188 193.769531 117.652344 193.757812 118.191406 193.71875 C 119.089844 193.613281 119.8125 193.121094 120.503906 192.582031 C 122.273438 191.179688 123.488281 189.355469 124.386719 187.296875 C 125.148438 185.53125 125.640625 183.695312 125.863281 181.785156 C 126.066406 180.148438 126.066406 178.511719 125.867188 176.875 Z M 125.867188 176.875 " fill-opacity="1" fill-rule="nonzero"/><g clip-path="url(#d1574b0fc2)"><path fill="#ffffff" d="M 117.375 79.769531 L 297.226562 79.769531 L 297.226562 230.070312 L 117.375 230.070312 Z M 117.375 79.769531 " fill-opacity="1" fill-rule="nonzero"/><path fill="#ffffff" d="M 117.375 79.769531 L 297.226562 79.769531 L 297.226562 230.070312 L 117.375 230.070312 Z M 117.375 79.769531 " fill-opacity="1" fill-rule="nonzero"/></g><path fill="#212121" d="M 148.933594 162.222656 C 148.332031 162.238281 147.667969 162.25 146.933594 162.261719 C 146.203125 162.273438 145.464844 162.28125 144.71875 162.28125 L 140.691406 162.28125 C 139.953125 162.28125 139.214844 162.273438 138.476562 162.261719 C 137.738281 162.25 137.0625 162.238281 136.449219 162.222656 C 136.5 162.972656 136.535156 163.707031 136.554688 164.410156 C 136.570312 165.113281 136.585938 165.648438 136.585938 166.019531 C 136.585938 166.289062 136.585938 166.542969 136.585938 166.785156 C 136.582031 166.992188 136.566406 167.195312 136.535156 167.398438 L 136.976562 167.398438 C 137.199219 166.402344 137.554688 165.449219 138.046875 164.550781 C 138.367188 163.960938 138.800781 163.476562 139.355469 163.097656 C 139.777344 162.820312 140.238281 162.675781 140.742188 162.664062 L 140.761719 162.664062 L 140.761719 173.628906 C 140.78125 174.03125 140.726562 174.421875 140.597656 174.800781 C 140.542969 174.929688 140.460938 175.039062 140.351562 175.128906 C 140.242188 175.214844 140.117188 175.273438 139.980469 175.300781 C 139.535156 175.390625 139.089844 175.429688 138.640625 175.417969 L 138.640625 175.800781 C 139.074219 175.789062 139.640625 175.777344 140.339844 175.761719 C 141.039062 175.75 141.785156 175.742188 142.589844 175.742188 C 143.421875 175.742188 144.214844 175.75 144.96875 175.761719 C 145.722656 175.777344 146.328125 175.789062 146.773438 175.800781 L 146.773438 175.417969 C 146.328125 175.429688 145.878906 175.390625 145.4375 175.300781 C 145.300781 175.273438 145.175781 175.21875 145.066406 175.128906 C 144.957031 175.039062 144.871094 174.929688 144.816406 174.800781 C 144.691406 174.421875 144.636719 174.03125 144.65625 173.628906 L 144.65625 162.664062 L 144.675781 162.664062 C 145.175781 162.675781 145.640625 162.820312 146.058594 163.097656 C 146.605469 163.480469 147.035156 163.972656 147.351562 164.5625 C 147.84375 165.457031 148.195312 166.402344 148.410156 167.398438 L 148.847656 167.398438 C 148.847656 167.234375 148.824219 167.03125 148.8125 166.785156 C 148.800781 166.542969 148.792969 166.285156 148.792969 166.019531 C 148.792969 165.648438 148.792969 165.113281 148.820312 164.410156 C 148.851562 163.707031 148.882812 162.980469 148.933594 162.222656 Z M 148.933594 162.222656 " fill-opacity="1" fill-rule="nonzero"/><path fill="#212121" d="M 161.476562 162.28125 C 160.851562 162.28125 160.230469 162.273438 159.609375 162.261719 C 158.992188 162.25 158.484375 162.238281 158.089844 162.222656 L 158.089844 162.605469 C 158.390625 162.605469 158.679688 162.652344 158.960938 162.75 C 159.171875 162.835938 159.300781 162.992188 159.351562 163.210938 C 159.429688 163.554688 159.460938 163.90625 159.449219 164.257812 L 159.449219 168.78125 L 155.144531 168.78125 L 155.144531 164.257812 C 155.132812 163.90625 155.164062 163.554688 155.242188 163.210938 C 155.292969 162.992188 155.425781 162.835938 155.632812 162.75 C 155.917969 162.652344 156.207031 162.605469 156.503906 162.605469 L 156.503906 162.222656 C 156.136719 162.238281 155.660156 162.25 155.082031 162.261719 C 154.5 162.273438 153.910156 162.28125 153.3125 162.28125 C 152.625 162.28125 151.976562 162.273438 151.371094 162.261719 C 150.769531 162.25 150.28125 162.238281 149.90625 162.222656 L 149.90625 162.605469 C 150.207031 162.605469 150.496094 162.652344 150.78125 162.75 C 150.988281 162.835938 151.121094 162.992188 151.171875 163.210938 C 151.246094 163.554688 151.277344 163.90625 151.265625 164.257812 L 151.265625 173.777344 C 151.277344 174.125 151.246094 174.46875 151.171875 174.8125 C 151.125 175.03125 150.996094 175.183594 150.789062 175.269531 C 150.5 175.363281 150.207031 175.417969 149.90625 175.425781 L 149.90625 175.808594 C 150.277344 175.78125 150.765625 175.765625 151.371094 175.757812 C 151.976562 175.753906 152.625 175.753906 153.3125 175.757812 C 153.910156 175.757812 154.5 175.757812 155.082031 175.757812 C 155.660156 175.757812 156.136719 175.78125 156.503906 175.808594 L 156.503906 175.425781 C 156.210938 175.414062 155.925781 175.363281 155.644531 175.269531 C 155.4375 175.183594 155.304688 175.03125 155.25 174.8125 C 155.167969 174.46875 155.132812 174.125 155.144531 173.777344 L 155.144531 169.164062 L 159.449219 169.164062 L 159.449219 173.765625 C 159.460938 174.117188 159.429688 174.460938 159.351562 174.800781 C 159.304688 175.023438 159.179688 175.175781 158.972656 175.261719 C 158.683594 175.355469 158.390625 175.40625 158.089844 175.414062 L 158.089844 175.796875 C 158.484375 175.773438 158.992188 175.757812 159.609375 175.75 C 160.226562 175.742188 160.847656 175.742188 161.476562 175.75 C 162.125 175.75 162.738281 175.75 163.308594 175.75 C 163.882812 175.75 164.34375 175.773438 164.6875 175.796875 L 164.6875 175.414062 C 164.394531 175.40625 164.105469 175.355469 163.828125 175.261719 C 163.621094 175.171875 163.488281 175.019531 163.433594 174.800781 C 163.351562 174.460938 163.316406 174.117188 163.328125 173.765625 L 163.328125 164.246094 C 163.316406 163.894531 163.347656 163.546875 163.425781 163.203125 C 163.476562 162.980469 163.609375 162.828125 163.816406 162.742188 C 164.097656 162.644531 164.390625 162.59375 164.6875 162.597656 L 164.6875 162.210938 C 164.34375 162.226562 163.882812 162.238281 163.308594 162.253906 C 162.734375 162.265625 162.125 162.28125 161.476562 162.28125 Z M 161.476562 162.28125 " fill-opacity="1" fill-rule="nonzero"/><path fill="#212121" d="M 176.695312 172.574219 C 176.695312 171.863281 176.710938 171.273438 176.75 170.820312 L 176.3125 170.820312 C 176.171875 171.785156 175.871094 172.691406 175.410156 173.546875 C 175.101562 174.125 174.671875 174.59375 174.121094 174.957031 C 173.714844 175.214844 173.273438 175.351562 172.792969 175.367188 L 172.160156 175.367188 C 171.910156 175.375 171.660156 175.347656 171.414062 175.28125 C 171.242188 175.222656 171.128906 175.109375 171.078125 174.9375 C 171.011719 174.679688 170.984375 174.421875 170.992188 174.160156 L 170.992188 169.175781 L 171.1875 169.175781 C 171.644531 169.164062 172.070312 169.277344 172.464844 169.507812 C 172.84375 169.738281 173.144531 170.042969 173.375 170.417969 C 173.617188 170.816406 173.769531 171.246094 173.839844 171.703125 L 174.28125 171.703125 C 174.230469 170.976562 174.199219 170.421875 174.1875 170.035156 C 174.171875 169.652344 174.167969 169.300781 174.167969 168.980469 C 174.167969 168.660156 174.167969 168.3125 174.167969 167.929688 C 174.167969 167.546875 174.183594 166.988281 174.234375 166.261719 L 173.796875 166.261719 C 173.703125 166.664062 173.554688 167.046875 173.335938 167.398438 C 173.109375 167.789062 172.816406 168.117188 172.457031 168.386719 C 172.085938 168.664062 171.671875 168.796875 171.207031 168.789062 L 171.015625 168.789062 L 171.015625 163.875 C 171.003906 163.605469 171.035156 163.34375 171.101562 163.085938 C 171.15625 162.917969 171.265625 162.804688 171.4375 162.75 C 171.679688 162.683594 171.929688 162.652344 172.183594 162.664062 L 172.433594 162.664062 C 172.71875 162.660156 172.996094 162.699219 173.269531 162.773438 C 173.542969 162.847656 173.796875 162.957031 174.042969 163.105469 C 174.285156 163.25 174.503906 163.425781 174.695312 163.632812 C 174.890625 163.839844 175.050781 164.070312 175.183594 164.324219 C 175.59375 165.109375 175.851562 165.945312 175.945312 166.828125 L 176.386719 166.828125 C 176.386719 166.660156 176.359375 166.457031 176.347656 166.210938 C 176.335938 165.96875 176.328125 165.710938 176.328125 165.445312 C 176.328125 165.128906 176.328125 164.671875 176.355469 164.078125 C 176.382812 163.484375 176.410156 162.867188 176.460938 162.226562 C 175.875 162.253906 175.214844 162.265625 174.464844 162.273438 C 173.714844 162.277344 173.050781 162.273438 172.464844 162.273438 L 170.617188 162.273438 C 169.847656 162.273438 169.03125 162.273438 168.171875 162.253906 C 167.308594 162.238281 166.511719 162.230469 165.773438 162.214844 L 165.773438 162.597656 C 166.070312 162.597656 166.359375 162.644531 166.640625 162.742188 C 166.851562 162.828125 166.984375 162.984375 167.035156 163.203125 C 167.113281 163.546875 167.144531 163.898438 167.128906 164.25 L 167.128906 173.769531 C 167.140625 174.117188 167.109375 174.460938 167.035156 174.804688 C 166.988281 175.023438 166.859375 175.175781 166.652344 175.261719 C 166.367188 175.355469 166.074219 175.410156 165.773438 175.417969 L 165.773438 175.800781 C 166.511719 175.773438 167.3125 175.757812 168.171875 175.753906 C 169.03125 175.753906 169.847656 175.753906 170.617188 175.753906 L 172.464844 175.753906 C 173.101562 175.753906 173.828125 175.753906 174.644531 175.753906 C 175.457031 175.753906 176.191406 175.769531 176.84375 175.800781 C 176.78125 175.160156 176.742188 174.546875 176.726562 173.949219 C 176.699219 173.351562 176.695312 172.898438 176.695312 172.574219 Z M 176.695312 172.574219 " fill-opacity="1" fill-rule="nonzero"/><path fill="#212121" d="M 192.734375 169.296875 C 191.714844 168.910156 190.664062 168.710938 189.578125 168.699219 L 189.578125 168.65625 C 190.453125 168.570312 191.28125 168.328125 192.0625 167.921875 C 192.648438 167.617188 193.132812 167.195312 193.515625 166.65625 C 193.816406 166.242188 193.976562 165.777344 193.996094 165.265625 C 193.996094 164.386719 193.566406 163.664062 192.714844 163.101562 C 191.859375 162.535156 190.558594 162.25 188.816406 162.242188 C 188.566406 162.242188 188.160156 162.242188 187.566406 162.261719 C 186.976562 162.28125 186.367188 162.28125 185.730469 162.28125 C 185.09375 162.28125 184.511719 162.28125 183.90625 162.261719 C 183.300781 162.246094 182.8125 162.238281 182.441406 162.222656 L 182.441406 162.605469 C 182.742188 162.605469 183.03125 162.652344 183.3125 162.75 C 183.523438 162.839844 183.652344 162.992188 183.707031 163.210938 C 183.78125 163.554688 183.8125 163.90625 183.800781 164.257812 L 183.800781 173.777344 C 183.8125 174.125 183.78125 174.46875 183.707031 174.8125 C 183.652344 175.027344 183.523438 175.175781 183.320312 175.261719 C 183.035156 175.355469 182.742188 175.40625 182.4375 175.414062 L 182.4375 175.796875 C 182.808594 175.773438 183.296875 175.757812 183.902344 175.75 C 184.507812 175.742188 185.128906 175.742188 185.765625 175.75 C 186.597656 175.75 187.308594 175.757812 187.898438 175.78125 C 188.492188 175.796875 188.941406 175.808594 189.246094 175.808594 C 191.03125 175.808594 192.433594 175.507812 193.453125 174.90625 C 194.472656 174.304688 194.984375 173.363281 194.980469 172.085938 C 194.972656 171.519531 194.792969 171.011719 194.449219 170.5625 C 193.988281 169.988281 193.417969 169.566406 192.734375 169.296875 Z M 187.878906 162.9375 C 188.003906 162.722656 188.285156 162.609375 188.71875 162.609375 C 188.832031 162.609375 188.941406 162.621094 189.050781 162.65625 C 189.160156 162.6875 189.261719 162.734375 189.355469 162.800781 C 189.445312 162.867188 189.527344 162.945312 189.59375 163.035156 C 189.664062 163.125 189.714844 163.226562 189.75 163.332031 C 189.957031 163.8125 190.058594 164.523438 190.058594 165.46875 C 190.058594 165.988281 190.007812 166.503906 189.902344 167.011719 C 189.824219 167.445312 189.640625 167.832031 189.347656 168.160156 C 189.195312 168.3125 189.019531 168.425781 188.820312 168.5 C 188.621094 168.574219 188.414062 168.605469 188.203125 168.59375 L 187.683594 168.59375 L 187.683594 164.257812 C 187.683594 163.589844 187.75 163.152344 187.878906 162.9375 Z M 190.488281 174.488281 C 190.414062 174.628906 190.320312 174.757812 190.207031 174.871094 C 190.097656 174.980469 189.972656 175.078125 189.835938 175.152344 C 189.695312 175.230469 189.550781 175.289062 189.398438 175.324219 C 189.242188 175.359375 189.085938 175.371094 188.929688 175.359375 C 188.429688 175.359375 188.082031 175.261719 187.929688 175.0625 C 187.773438 174.863281 187.679688 174.433594 187.679688 173.769531 L 187.679688 168.914062 L 187.949219 168.914062 C 189.03125 168.914062 189.804688 169.183594 190.273438 169.71875 C 190.742188 170.257812 190.972656 171.019531 190.96875 172 C 190.976562 173.074219 190.816406 173.902344 190.488281 174.484375 Z M 190.488281 174.488281 " fill-opacity="1" fill-rule="nonzero"/><path fill="#212121" d="M 206.800781 162.28125 C 206.445312 162.28125 206.050781 162.28125 205.65625 162.261719 C 205.257812 162.246094 204.90625 162.238281 204.65625 162.222656 L 204.65625 162.605469 C 205.132812 162.632812 205.570312 162.777344 205.972656 163.03125 C 206.277344 163.289062 206.441406 163.617188 206.472656 164.015625 C 206.554688 164.667969 206.589844 165.324219 206.578125 165.980469 L 206.578125 170.429688 C 206.59375 171.308594 206.492188 172.175781 206.273438 173.027344 C 206.113281 173.71875 205.765625 174.304688 205.242188 174.78125 C 204.757812 175.195312 204.085938 175.402344 203.242188 175.402344 C 202.773438 175.417969 202.335938 175.316406 201.921875 175.097656 C 201.527344 174.855469 201.261719 174.511719 201.121094 174.066406 C 200.917969 173.421875 200.828125 172.761719 200.855469 172.085938 L 200.855469 164.257812 C 200.839844 163.902344 200.875 163.554688 200.96875 163.210938 C 201.039062 162.980469 201.1875 162.828125 201.414062 162.75 C 201.742188 162.652344 202.074219 162.605469 202.414062 162.605469 L 202.414062 162.222656 C 202.019531 162.238281 201.515625 162.25 200.902344 162.261719 C 200.292969 162.273438 199.65625 162.28125 198.992188 162.28125 C 198.332031 162.28125 197.695312 162.28125 197.089844 162.261719 C 196.484375 162.246094 196 162.238281 195.628906 162.222656 L 195.628906 162.605469 C 195.929688 162.605469 196.222656 162.652344 196.507812 162.75 C 196.710938 162.839844 196.839844 162.996094 196.890625 163.210938 C 196.964844 163.554688 196.996094 163.90625 196.984375 164.257812 L 196.984375 170.269531 C 196.980469 170.96875 197.019531 171.664062 197.101562 172.359375 C 197.160156 172.921875 197.316406 173.457031 197.558594 173.96875 C 197.796875 174.441406 198.128906 174.832031 198.558594 175.136719 C 199.089844 175.507812 199.671875 175.75 200.308594 175.867188 C 200.917969 175.992188 201.539062 176.054688 202.164062 176.058594 C 203.074219 176.097656 203.953125 175.9375 204.789062 175.578125 C 205.414062 175.292969 205.90625 174.859375 206.273438 174.277344 C 206.597656 173.710938 206.804688 173.101562 206.894531 172.453125 C 207.003906 171.710938 207.058594 170.964844 207.058594 170.210938 L 207.058594 165.597656 C 207.046875 165.03125 207.078125 164.464844 207.152344 163.902344 C 207.183594 163.558594 207.316406 163.261719 207.542969 163.011719 C 207.792969 162.789062 208.085938 162.65625 208.414062 162.605469 L 208.414062 162.222656 C 208.222656 162.238281 207.984375 162.25 207.695312 162.261719 C 207.410156 162.273438 207.097656 162.28125 206.800781 162.28125 Z M 206.800781 162.28125 " fill-opacity="1" fill-rule="nonzero"/><path fill="#212121" d="M 222.367188 174.972656 C 222.261719 175.015625 222.152344 175.035156 222.042969 175.03125 C 221.9375 175.035156 221.839844 175.011719 221.75 174.964844 C 221.65625 174.917969 221.582031 174.847656 221.523438 174.761719 C 221.351562 174.457031 221.234375 174.132812 221.179688 173.785156 L 220.78125 171.78125 C 220.714844 171.402344 220.574219 171.058594 220.355469 170.742188 C 220.136719 170.425781 219.863281 170.171875 219.53125 169.980469 C 218.875 169.589844 217.902344 169.355469 216.617188 169.28125 C 217.128906 169.242188 217.636719 169.15625 218.136719 169.03125 C 218.824219 168.875 219.453125 168.585938 220.023438 168.167969 C 220.445312 167.847656 220.773438 167.441406 220.996094 166.953125 C 221.183594 166.511719 221.28125 166.050781 221.28125 165.570312 C 221.296875 165.316406 221.273438 165.0625 221.214844 164.8125 C 221.15625 164.5625 221.0625 164.328125 220.9375 164.101562 C 220.808594 163.878906 220.65625 163.679688 220.472656 163.5 C 220.289062 163.320312 220.085938 163.171875 219.859375 163.050781 C 218.90625 162.507812 217.460938 162.234375 215.527344 162.234375 C 215.277344 162.234375 214.871094 162.234375 214.277344 162.253906 C 213.6875 162.273438 213.082031 162.273438 212.445312 162.273438 C 211.808594 162.273438 211.222656 162.273438 210.617188 162.253906 C 210.015625 162.238281 209.523438 162.230469 209.15625 162.214844 L 209.15625 162.597656 C 209.453125 162.597656 209.746094 162.644531 210.027344 162.742188 C 210.234375 162.828125 210.367188 162.984375 210.417969 163.203125 C 210.492188 163.546875 210.527344 163.898438 210.511719 164.25 L 210.511719 173.769531 C 210.523438 174.117188 210.492188 174.460938 210.417969 174.804688 C 210.371094 175.023438 210.242188 175.175781 210.035156 175.261719 C 209.75 175.355469 209.457031 175.410156 209.15625 175.417969 L 209.15625 175.800781 C 209.523438 175.773438 210.011719 175.757812 210.617188 175.753906 C 211.226562 175.746094 211.871094 175.746094 212.558594 175.753906 C 213.15625 175.753906 213.746094 175.753906 214.328125 175.753906 C 214.90625 175.753906 215.382812 175.773438 215.75 175.800781 L 215.75 175.417969 C 215.457031 175.40625 215.171875 175.355469 214.890625 175.261719 C 214.683594 175.175781 214.550781 175.023438 214.5 174.804688 C 214.414062 174.460938 214.378906 174.117188 214.394531 173.769531 L 214.394531 169.359375 L 215.253906 169.359375 C 215.40625 169.351562 215.550781 169.375 215.6875 169.4375 C 215.828125 169.496094 215.945312 169.585938 216.042969 169.699219 C 216.261719 169.992188 216.414062 170.316406 216.5 170.667969 C 216.628906 171.128906 216.722656 171.597656 216.789062 172.066406 L 217.074219 173.984375 C 217.191406 174.765625 217.503906 175.304688 218.011719 175.605469 C 218.636719 175.933594 219.304688 176.085938 220.011719 176.054688 C 220.546875 176.0625 221.074219 175.988281 221.585938 175.835938 C 222.085938 175.671875 222.515625 175.398438 222.878906 175.019531 L 222.628906 174.769531 C 222.554688 174.855469 222.46875 174.921875 222.367188 174.972656 Z M 214.585938 162.9375 C 214.714844 162.722656 214.992188 162.609375 215.425781 162.609375 C 215.574219 162.601562 215.71875 162.613281 215.863281 162.644531 C 216.003906 162.679688 216.140625 162.734375 216.269531 162.808594 C 216.394531 162.882812 216.507812 162.972656 216.609375 163.082031 C 216.707031 163.191406 216.789062 163.3125 216.851562 163.445312 C 217.125 164 217.261719 164.785156 217.261719 165.796875 C 217.265625 166.335938 217.207031 166.867188 217.082031 167.394531 C 216.972656 167.855469 216.746094 168.238281 216.390625 168.546875 C 215.949219 168.871094 215.457031 169.015625 214.910156 168.976562 L 214.394531 168.976562 L 214.394531 164.257812 C 214.394531 163.589844 214.457031 163.152344 214.585938 162.9375 Z M 214.585938 162.9375 " fill-opacity="1" fill-rule="nonzero"/><path fill="#212121" d="M 234.351562 162.28125 C 233.996094 162.28125 233.601562 162.28125 233.203125 162.261719 C 232.808594 162.246094 232.457031 162.238281 232.207031 162.222656 L 232.207031 162.605469 C 232.683594 162.632812 233.121094 162.777344 233.523438 163.03125 C 233.828125 163.289062 233.992188 163.617188 234.023438 164.015625 C 234.105469 164.667969 234.140625 165.324219 234.128906 165.980469 L 234.128906 170.507812 L 226.3125 162.222656 C 226.0625 162.238281 225.792969 162.25 225.488281 162.261719 C 225.183594 162.273438 224.871094 162.28125 224.554688 162.28125 C 224.234375 162.28125 223.984375 162.28125 223.691406 162.261719 C 223.398438 162.246094 223.15625 162.238281 222.964844 162.222656 L 222.964844 162.605469 C 223.265625 162.605469 223.554688 162.652344 223.835938 162.75 C 224.042969 162.839844 224.175781 162.992188 224.226562 163.210938 C 224.304688 163.554688 224.335938 163.90625 224.324219 164.257812 L 224.324219 172.421875 C 224.332031 172.988281 224.300781 173.550781 224.226562 174.113281 C 224.199219 174.449219 224.070312 174.746094 223.84375 175 C 223.589844 175.21875 223.296875 175.355469 222.964844 175.414062 L 222.964844 175.796875 C 223.207031 175.769531 223.449219 175.753906 223.691406 175.75 C 223.984375 175.75 224.273438 175.75 224.554688 175.75 C 224.910156 175.75 225.300781 175.75 225.699219 175.75 C 226.097656 175.75 226.449219 175.773438 226.699219 175.796875 L 226.699219 175.414062 C 226.230469 175.371094 225.792969 175.226562 225.390625 174.984375 C 225.238281 174.863281 225.121094 174.71875 225.03125 174.546875 C 224.941406 174.378906 224.886719 174.199219 224.871094 174.003906 C 224.792969 173.351562 224.757812 172.699219 224.769531 172.039062 L 224.769531 166.527344 L 233.238281 175.796875 C 233.488281 175.773438 233.738281 175.757812 233.953125 175.757812 C 234.164062 175.757812 234.367188 175.769531 234.574219 175.796875 L 234.574219 165.597656 C 234.5625 165.03125 234.597656 164.464844 234.671875 163.902344 C 234.703125 163.558594 234.832031 163.261719 235.0625 163.011719 C 235.316406 162.789062 235.605469 162.65625 235.933594 162.605469 L 235.933594 162.222656 C 235.742188 162.238281 235.503906 162.25 235.214844 162.261719 C 234.929688 162.273438 234.644531 162.28125 234.351562 162.28125 Z M 234.351562 162.28125 " fill-opacity="1" fill-rule="nonzero"/><path fill="#212121" d="M 247.964844 162.777344 C 246.769531 162.199219 245.507812 161.925781 244.179688 161.953125 C 242.855469 161.929688 241.605469 162.226562 240.433594 162.855469 C 239.347656 163.449219 238.5 164.285156 237.882812 165.363281 C 237.582031 165.9375 237.351562 166.542969 237.195312 167.175781 C 237.039062 167.808594 236.957031 168.453125 236.953125 169.105469 C 236.953125 169.757812 237.027344 170.402344 237.179688 171.035156 C 237.332031 171.667969 237.558594 172.277344 237.855469 172.855469 C 238.148438 173.367188 238.511719 173.828125 238.941406 174.234375 C 239.371094 174.636719 239.847656 174.972656 240.378906 175.234375 C 241.574219 175.8125 242.835938 176.089844 244.164062 176.058594 C 245.492188 176.082031 246.738281 175.78125 247.910156 175.160156 C 248.445312 174.871094 248.925781 174.511719 249.363281 174.085938 C 249.796875 173.660156 250.160156 173.183594 250.460938 172.652344 C 251.105469 171.484375 251.410156 170.230469 251.378906 168.898438 C 251.421875 167.558594 251.125 166.308594 250.480469 165.140625 C 250.1875 164.628906 249.824219 164.175781 249.394531 163.773438 C 248.96875 163.371094 248.492188 163.039062 247.964844 162.777344 Z M 246.992188 172.472656 C 246.804688 173.347656 246.441406 174.144531 245.898438 174.859375 C 245.707031 175.125 245.460938 175.335938 245.171875 175.488281 C 244.878906 175.640625 244.566406 175.71875 244.234375 175.722656 C 243.917969 175.710938 243.613281 175.636719 243.324219 175.492188 C 243.039062 175.351562 242.792969 175.15625 242.59375 174.90625 C 242.019531 174.222656 241.625 173.453125 241.410156 172.585938 C 241.09375 171.425781 240.945312 170.25 240.96875 169.050781 C 240.953125 167.863281 241.078125 166.695312 241.351562 165.542969 C 241.539062 164.667969 241.902344 163.875 242.441406 163.164062 C 242.636719 162.898438 242.878906 162.691406 243.171875 162.539062 C 243.464844 162.386719 243.773438 162.308594 244.101562 162.300781 C 244.421875 162.3125 244.726562 162.390625 245.015625 162.53125 C 245.300781 162.671875 245.546875 162.867188 245.746094 163.117188 C 246.320312 163.796875 246.714844 164.566406 246.933594 165.429688 C 247.25 166.589844 247.394531 167.773438 247.375 168.972656 C 247.390625 170.15625 247.261719 171.320312 246.992188 172.472656 Z M 246.992188 172.472656 " fill-opacity="1" fill-rule="nonzero"/><path fill="#212121" d="M 263.414062 162.28125 C 263.054688 162.28125 262.664062 162.28125 262.265625 162.261719 C 261.867188 162.246094 261.519531 162.238281 261.269531 162.222656 L 261.269531 162.605469 C 261.742188 162.632812 262.183594 162.777344 262.585938 163.03125 C 262.886719 163.289062 263.054688 163.617188 263.085938 164.015625 C 263.167969 164.667969 263.203125 165.324219 263.191406 165.980469 L 263.191406 170.429688 C 263.203125 171.308594 263.101562 172.175781 262.882812 173.027344 C 262.722656 173.71875 262.378906 174.304688 261.851562 174.78125 C 261.367188 175.195312 260.699219 175.402344 259.855469 175.402344 C 259.386719 175.417969 258.945312 175.316406 258.535156 175.097656 C 258.140625 174.855469 257.875 174.511719 257.734375 174.066406 C 257.527344 173.421875 257.4375 172.761719 257.464844 172.085938 L 257.464844 164.257812 C 257.449219 163.902344 257.488281 163.554688 257.582031 163.210938 C 257.652344 162.980469 257.800781 162.828125 258.027344 162.75 C 258.351562 162.652344 258.675781 162.605469 259.015625 162.605469 L 259.015625 162.222656 C 258.617188 162.238281 258.117188 162.25 257.515625 162.261719 C 256.914062 162.273438 256.265625 162.28125 255.605469 162.28125 C 254.941406 162.28125 254.304688 162.28125 253.703125 162.261719 C 253.097656 162.246094 252.609375 162.238281 252.238281 162.222656 L 252.238281 162.605469 C 252.539062 162.605469 252.832031 162.652344 253.121094 162.75 C 253.324219 162.839844 253.449219 162.996094 253.5 163.210938 C 253.578125 163.554688 253.609375 163.90625 253.597656 164.257812 L 253.597656 170.269531 C 253.59375 170.96875 253.628906 171.664062 253.710938 172.359375 C 253.773438 172.921875 253.925781 173.457031 254.171875 173.96875 C 254.40625 174.441406 254.742188 174.832031 255.171875 175.136719 C 255.699219 175.507812 256.285156 175.75 256.917969 175.867188 C 257.53125 175.992188 258.148438 176.054688 258.773438 176.058594 C 259.867188 176.058594 260.746094 175.898438 261.402344 175.578125 C 262.027344 175.292969 262.519531 174.859375 262.882812 174.277344 C 263.199219 173.707031 263.398438 173.101562 263.480469 172.457031 C 263.589844 171.710938 263.644531 170.964844 263.644531 170.214844 L 263.644531 165.597656 C 263.632812 165.03125 263.664062 164.464844 263.738281 163.902344 C 263.769531 163.558594 263.902344 163.261719 264.128906 163.011719 C 264.382812 162.789062 264.671875 162.65625 265 162.605469 L 265 162.222656 C 264.808594 162.238281 264.570312 162.25 264.28125 162.261719 C 263.996094 162.273438 263.707031 162.28125 263.414062 162.28125 Z M 263.414062 162.28125 " fill-opacity="1" fill-rule="nonzero"/><path fill="#212121" d="M 278.019531 166.019531 C 278.019531 165.648438 278.019531 165.113281 278.046875 164.410156 C 278.078125 163.707031 278.101562 162.980469 278.152344 162.222656 C 277.554688 162.238281 276.886719 162.25 276.15625 162.261719 C 275.421875 162.273438 274.683594 162.28125 273.9375 162.28125 L 269.914062 162.28125 C 269.171875 162.28125 268.433594 162.273438 267.695312 162.261719 C 266.957031 162.25 266.28125 162.238281 265.667969 162.222656 C 265.71875 162.972656 265.753906 163.707031 265.773438 164.410156 C 265.792969 165.113281 265.804688 165.648438 265.804688 166.019531 C 265.804688 166.289062 265.804688 166.542969 265.804688 166.785156 C 265.800781 166.992188 265.785156 167.195312 265.753906 167.398438 L 266.195312 167.398438 C 266.414062 166.402344 266.765625 165.453125 267.253906 164.550781 C 267.570312 163.960938 268.007812 163.476562 268.5625 163.097656 C 268.984375 162.820312 269.445312 162.675781 269.949219 162.664062 L 269.96875 162.664062 L 269.96875 173.628906 C 269.988281 174.03125 269.933594 174.421875 269.804688 174.800781 C 269.75 174.929688 269.667969 175.039062 269.558594 175.128906 C 269.445312 175.214844 269.324219 175.273438 269.183594 175.300781 C 268.742188 175.390625 268.292969 175.429688 267.84375 175.417969 L 267.84375 175.800781 C 268.277344 175.789062 268.847656 175.777344 269.546875 175.761719 C 270.246094 175.75 270.996094 175.742188 271.785156 175.742188 C 272.613281 175.742188 273.40625 175.742188 274.164062 175.761719 C 274.921875 175.78125 275.523438 175.789062 275.972656 175.800781 L 275.972656 175.417969 C 275.519531 175.429688 275.074219 175.390625 274.632812 175.300781 C 274.492188 175.273438 274.371094 175.214844 274.261719 175.128906 C 274.152344 175.039062 274.066406 174.929688 274.011719 174.800781 C 273.882812 174.421875 273.828125 174.03125 273.851562 173.628906 L 273.851562 162.664062 L 273.867188 162.664062 C 274.371094 162.675781 274.832031 162.820312 275.253906 163.097656 C 275.808594 163.480469 276.25 163.96875 276.574219 164.5625 C 277.066406 165.457031 277.421875 166.402344 277.636719 167.398438 L 278.074219 167.398438 C 278.0625 167.234375 278.046875 167.03125 278.035156 166.785156 C 278.023438 166.542969 278.019531 166.289062 278.019531 166.019531 Z M 278.019531 166.019531 " fill-opacity="1" fill-rule="nonzero"/><path fill="#cc5500" d="M 188.316406 181.792969 C 188.464844 181.410156 188.691406 181.082031 189.003906 180.8125 C 189.332031 180.542969 189.703125 180.417969 190.128906 180.433594 C 190.328125 180.433594 190.519531 180.464844 190.707031 180.527344 C 190.894531 180.589844 191.074219 180.675781 191.242188 180.78125 C 191.492188 180.9375 191.703125 181.144531 191.863281 181.394531 C 192.015625 181.640625 192.121094 181.90625 192.1875 182.191406 C 192.265625 182.527344 192.316406 182.871094 192.339844 183.214844 L 192.617188 183.214844 C 192.617188 182.457031 192.617188 181.847656 192.617188 181.386719 C 192.617188 180.925781 192.636719 180.535156 192.652344 180.214844 L 192.375 180.214844 C 192.378906 180.449219 192.320312 180.667969 192.203125 180.871094 C 192.117188 180.960938 192 180.949219 191.839844 180.832031 C 191.558594 180.609375 191.257812 180.429688 190.933594 180.285156 C 190.519531 180.109375 190.085938 180.03125 189.640625 180.050781 C 188.808594 180.03125 188.027344 180.21875 187.292969 180.613281 C 186.613281 180.984375 186.082031 181.507812 185.695312 182.183594 C 185.507812 182.546875 185.363281 182.925781 185.265625 183.320312 C 185.164062 183.714844 185.117188 184.121094 185.113281 184.527344 C 185.113281 184.933594 185.160156 185.339844 185.253906 185.734375 C 185.347656 186.132812 185.488281 186.511719 185.675781 186.875 C 186.054688 187.53125 186.578125 188.027344 187.257812 188.363281 C 188.007812 188.726562 188.796875 188.898438 189.625 188.878906 C 190.066406 188.894531 190.492188 188.816406 190.898438 188.644531 C 191.230469 188.488281 191.542969 188.308594 191.839844 188.097656 C 192.015625 187.988281 192.140625 187.972656 192.214844 188.0625 C 192.324219 188.265625 192.378906 188.480469 192.375 188.710938 L 192.652344 188.710938 C 192.636719 188.382812 192.625 187.976562 192.617188 187.492188 C 192.609375 187.007812 192.617188 186.375 192.617188 185.589844 L 192.339844 185.589844 C 192.3125 186.140625 192.21875 186.683594 192.0625 187.210938 C 191.917969 187.644531 191.648438 187.976562 191.257812 188.210938 C 191.085938 188.3125 190.910156 188.394531 190.722656 188.464844 C 190.433594 188.566406 190.136719 188.589844 189.835938 188.542969 C 189.535156 188.492188 189.261719 188.375 189.019531 188.1875 C 188.707031 187.917969 188.480469 187.585938 188.332031 187.203125 C 188.160156 186.777344 188.046875 186.335938 187.988281 185.882812 C 187.863281 184.957031 187.863281 184.035156 187.988281 183.113281 C 188.042969 182.660156 188.152344 182.21875 188.316406 181.792969 Z M 188.316406 181.792969 " fill-opacity="1" fill-rule="nonzero"/><path fill="#cc5500" d="M 200.601562 180.578125 C 199.855469 180.214844 199.066406 180.042969 198.234375 180.0625 C 197.402344 180.042969 196.621094 180.230469 195.890625 180.625 C 195.207031 181 194.675781 181.523438 194.292969 182.199219 C 194.101562 182.558594 193.960938 182.9375 193.863281 183.335938 C 193.765625 183.730469 193.714844 184.132812 193.710938 184.539062 C 193.710938 184.949219 193.757812 185.351562 193.851562 185.746094 C 193.949219 186.144531 194.089844 186.523438 194.273438 186.886719 C 194.648438 187.542969 195.175781 188.039062 195.855469 188.375 C 196.601562 188.738281 197.390625 188.910156 198.222656 188.890625 C 199.054688 188.90625 199.835938 188.71875 200.574219 188.328125 C 201.253906 187.957031 201.789062 187.433594 202.171875 186.757812 C 202.570312 186.023438 202.761719 185.242188 202.746094 184.402344 C 202.769531 183.570312 202.582031 182.789062 202.179688 182.058594 C 201.804688 181.40625 201.277344 180.910156 200.601562 180.578125 Z M 199.992188 186.640625 C 199.875 187.195312 199.648438 187.695312 199.308594 188.144531 C 199.1875 188.3125 199.035156 188.445312 198.851562 188.539062 C 198.671875 188.632812 198.476562 188.683594 198.269531 188.6875 C 198.070312 188.679688 197.878906 188.636719 197.699219 188.546875 C 197.523438 188.460938 197.371094 188.339844 197.242188 188.183594 C 196.878906 187.757812 196.628906 187.277344 196.492188 186.734375 C 196.296875 186.007812 196.203125 185.273438 196.21875 184.519531 C 196.210938 183.777344 196.292969 183.046875 196.46875 182.324219 C 196.585938 181.777344 196.8125 181.285156 197.148438 180.835938 C 197.273438 180.671875 197.425781 180.539062 197.609375 180.445312 C 197.789062 180.347656 197.984375 180.300781 198.191406 180.296875 C 198.390625 180.300781 198.582031 180.347656 198.761719 180.433594 C 198.941406 180.523438 199.09375 180.644531 199.222656 180.796875 C 199.578125 181.222656 199.828125 181.703125 199.96875 182.242188 C 200.167969 182.96875 200.257812 183.707031 200.246094 184.460938 C 200.25 185.199219 200.164062 185.925781 199.992188 186.640625 Z M 199.992188 186.640625 " fill-opacity="1" fill-rule="nonzero"/><path fill="#cc5500" d="M 211.125 181.304688 C 210.316406 180.582031 209.070312 180.222656 207.394531 180.222656 C 207.148438 180.222656 206.84375 180.222656 206.46875 180.234375 L 205.472656 180.257812 C 205.089844 180.257812 204.707031 180.257812 204.328125 180.257812 L 203.414062 180.230469 L 203.414062 180.480469 C 203.601562 180.476562 203.785156 180.507812 203.960938 180.570312 C 204.089844 180.625 204.171875 180.71875 204.207031 180.859375 C 204.257812 181.074219 204.277344 181.292969 204.269531 181.511719 L 204.269531 187.460938 C 204.277344 187.679688 204.253906 187.894531 204.207031 188.109375 C 204.175781 188.25 204.09375 188.34375 203.960938 188.398438 C 203.78125 188.457031 203.597656 188.488281 203.410156 188.492188 L 203.410156 188.742188 C 203.640625 188.726562 203.945312 188.71875 204.324219 188.714844 C 204.703125 188.707031 205.089844 188.714844 205.492188 188.714844 C 205.769531 188.714844 206.089844 188.714844 206.453125 188.730469 C 206.816406 188.75 207.09375 188.75 207.285156 188.75 C 208.230469 188.773438 209.140625 188.59375 210.007812 188.207031 C 210.734375 187.878906 211.308594 187.378906 211.734375 186.703125 C 212.152344 186 212.351562 185.238281 212.332031 184.417969 C 212.335938 183.054688 211.933594 182.019531 211.125 181.304688 Z M 209.605469 186.648438 C 209.5 187.179688 209.265625 187.640625 208.890625 188.03125 C 208.714844 188.195312 208.515625 188.320312 208.289062 188.402344 C 208.0625 188.484375 207.828125 188.519531 207.589844 188.507812 C 207.222656 188.507812 206.980469 188.441406 206.863281 188.300781 C 206.71875 188.046875 206.660156 187.769531 206.691406 187.476562 L 206.691406 181.472656 C 206.660156 181.179688 206.714844 180.90625 206.859375 180.648438 C 206.972656 180.511719 207.210938 180.445312 207.574219 180.445312 C 207.75 180.433594 207.921875 180.449219 208.09375 180.492188 C 208.261719 180.53125 208.425781 180.59375 208.578125 180.683594 C 208.726562 180.769531 208.863281 180.875 208.984375 181.003906 C 209.105469 181.128906 209.207031 181.269531 209.285156 181.425781 C 209.648438 182.082031 209.824219 183.085938 209.824219 184.433594 C 209.835938 185.179688 209.765625 185.917969 209.605469 186.648438 Z M 209.605469 186.648438 " fill-opacity="1" fill-rule="nonzero"/><path fill="#cc5500" d="M 219.851562 186.707031 C 219.851562 186.261719 219.851562 185.894531 219.886719 185.605469 L 219.613281 185.605469 C 219.523438 186.207031 219.335938 186.773438 219.050781 187.308594 C 218.855469 187.671875 218.582031 187.964844 218.242188 188.191406 C 217.988281 188.347656 217.710938 188.429688 217.410156 188.441406 L 217.015625 188.441406 C 216.859375 188.449219 216.703125 188.429688 216.550781 188.382812 C 216.441406 188.351562 216.371094 188.277344 216.339844 188.167969 C 216.296875 188.011719 216.277344 187.847656 216.285156 187.683594 L 216.285156 184.574219 L 216.402344 184.574219 C 216.691406 184.566406 216.957031 184.636719 217.207031 184.78125 C 217.441406 184.925781 217.632812 185.113281 217.777344 185.351562 C 217.925781 185.601562 218.023438 185.867188 218.066406 186.15625 L 218.34375 186.15625 C 218.308594 185.707031 218.292969 185.359375 218.292969 185.109375 C 218.292969 184.871094 218.292969 184.652344 218.292969 184.453125 C 218.292969 184.25 218.292969 184.03125 218.292969 183.792969 C 218.292969 183.554688 218.292969 183.203125 218.335938 182.75 L 218.042969 182.75 C 217.988281 183.003906 217.890625 183.242188 217.753906 183.460938 C 217.613281 183.707031 217.429688 183.914062 217.203125 184.082031 C 216.96875 184.253906 216.707031 184.339844 216.414062 184.332031 L 216.292969 184.332031 L 216.292969 181.261719 C 216.285156 181.089844 216.304688 180.925781 216.347656 180.761719 C 216.382812 180.652344 216.453125 180.582031 216.558594 180.550781 C 216.710938 180.507812 216.867188 180.488281 217.027344 180.496094 L 217.179688 180.496094 C 217.359375 180.492188 217.53125 180.515625 217.703125 180.5625 C 217.875 180.609375 218.035156 180.679688 218.1875 180.769531 C 218.339844 180.859375 218.476562 180.972656 218.597656 181.101562 C 218.71875 181.230469 218.820312 181.375 218.902344 181.535156 C 219.164062 182.023438 219.324219 182.546875 219.382812 183.097656 L 219.65625 183.097656 C 219.65625 182.992188 219.640625 182.867188 219.632812 182.714844 C 219.625 182.558594 219.621094 182.402344 219.621094 182.234375 C 219.621094 182.066406 219.621094 181.75 219.640625 181.375 C 219.65625 181.003906 219.675781 180.625 219.703125 180.21875 C 219.335938 180.238281 218.921875 180.246094 218.457031 180.25 L 216.042969 180.25 C 215.5625 180.25 215.054688 180.246094 214.511719 180.238281 L 213.015625 180.210938 L 213.015625 180.460938 C 213.203125 180.460938 213.382812 180.488281 213.558594 180.550781 C 213.691406 180.605469 213.773438 180.703125 213.808594 180.839844 C 213.855469 181.054688 213.875 181.273438 213.867188 181.492188 L 213.867188 187.441406 C 213.875 187.660156 213.855469 187.878906 213.808594 188.09375 C 213.777344 188.230469 213.699219 188.324219 213.570312 188.378906 C 213.390625 188.4375 213.207031 188.472656 213.019531 188.476562 L 213.019531 188.726562 C 213.480469 188.707031 213.984375 188.699219 214.519531 188.695312 C 215.054688 188.691406 215.566406 188.695312 216.050781 188.695312 L 217.203125 188.695312 C 217.601562 188.695312 218.058594 188.695312 218.566406 188.695312 C 219.078125 188.695312 219.535156 188.707031 219.945312 188.726562 C 219.902344 188.324219 219.882812 187.941406 219.871094 187.566406 C 219.863281 187.199219 219.851562 186.90625 219.851562 186.707031 Z M 219.851562 186.707031 " fill-opacity="1" fill-rule="nonzero"/><path fill="#cc5500" d="M 229.105469 188.328125 C 228.960938 188.1875 228.835938 188.035156 228.726562 187.871094 L 225.703125 183.570312 L 227.121094 181.816406 C 227.359375 181.527344 227.613281 181.253906 227.894531 181.007812 C 228.140625 180.773438 228.421875 180.59375 228.738281 180.460938 L 228.738281 180.210938 C 228.472656 180.238281 228.085938 180.25 227.578125 180.25 C 227.386719 180.25 227.128906 180.25 226.808594 180.238281 C 226.488281 180.222656 226.21875 180.222656 225.988281 180.210938 L 225.988281 180.460938 C 226.464844 180.5 226.734375 180.710938 226.816406 181.101562 C 226.898438 181.492188 226.695312 181.957031 226.226562 182.5 L 225.535156 183.347656 L 223.789062 180.878906 C 223.675781 180.710938 223.675781 180.601562 223.789062 180.554688 C 224.003906 180.480469 224.226562 180.453125 224.453125 180.46875 L 224.453125 180.21875 L 223.632812 180.25 C 223.273438 180.25 222.902344 180.265625 222.527344 180.265625 C 222.113281 180.265625 221.699219 180.265625 221.277344 180.25 L 220.351562 180.21875 L 220.351562 180.46875 C 220.492188 180.46875 220.613281 180.511719 220.722656 180.601562 C 220.863281 180.746094 220.984375 180.902344 221.09375 181.070312 L 223.84375 184.980469 L 222.410156 186.785156 C 222.101562 187.179688 221.757812 187.542969 221.378906 187.871094 C 221.09375 188.125 220.773438 188.332031 220.421875 188.488281 L 220.421875 188.738281 C 220.6875 188.714844 221.074219 188.703125 221.585938 188.703125 C 221.710938 188.703125 221.910156 188.703125 222.179688 188.703125 L 223.007812 188.714844 C 223.285156 188.714844 223.507812 188.714844 223.652344 188.734375 L 223.652344 188.484375 C 223.332031 188.476562 223.066406 188.351562 222.851562 188.117188 C 222.761719 187.996094 222.703125 187.863281 222.671875 187.714844 C 222.640625 187.570312 222.644531 187.421875 222.679688 187.277344 C 222.78125 186.84375 222.976562 186.457031 223.273438 186.121094 L 224.003906 185.207031 L 226 188.0625 C 226.113281 188.222656 226.113281 188.328125 226 188.386719 C 225.785156 188.460938 225.5625 188.488281 225.335938 188.472656 L 225.335938 188.722656 L 226.238281 188.691406 C 226.632812 188.679688 227.027344 188.671875 227.421875 188.671875 C 227.8125 188.671875 228.207031 188.671875 228.589844 188.691406 L 229.464844 188.722656 L 229.464844 188.472656 C 229.328125 188.460938 229.210938 188.414062 229.105469 188.328125 Z M 229.105469 188.328125 " fill-opacity="1" fill-rule="nonzero"/><path fill="#212121" d="M 136.609375 191.746094 L 137.421875 191.746094 L 137.421875 196.078125 L 139.105469 196.078125 L 139.105469 196.699219 L 136.609375 196.699219 Z M 136.609375 191.746094 " fill-opacity="1" fill-rule="nonzero"/><path fill="#212121" d="M 142.507812 191.746094 L 142.507812 192.382812 L 140.585938 192.382812 L 140.585938 193.882812 L 142.292969 193.882812 L 142.292969 194.511719 L 140.585938 194.511719 L 140.585938 196.074219 L 142.507812 196.074219 L 142.507812 196.707031 L 139.777344 196.707031 L 139.777344 191.746094 Z M 142.507812 191.746094 " fill-opacity="1" fill-rule="nonzero"/><path fill="#212121" d="M 146.835938 196.707031 L 146.480469 195.707031 L 144.414062 195.707031 L 144.054688 196.707031 L 143.210938 196.707031 L 144.980469 191.746094 L 145.917969 191.746094 L 147.691406 196.707031 Z M 144.632812 195.0625 L 146.261719 195.0625 L 145.449219 192.730469 Z M 144.632812 195.0625 " fill-opacity="1" fill-rule="nonzero"/><path fill="#212121" d="M 149.269531 194.699219 L 149.269531 196.703125 L 148.457031 196.703125 L 148.457031 191.746094 L 150.164062 191.746094 C 150.648438 191.714844 151.082031 191.851562 151.457031 192.164062 C 151.605469 192.296875 151.722656 192.457031 151.800781 192.640625 C 151.878906 192.824219 151.917969 193.019531 151.910156 193.21875 C 151.914062 193.554688 151.8125 193.855469 151.609375 194.117188 C 151.367188 194.414062 151.058594 194.585938 150.683594 194.640625 L 151.992188 196.699219 L 150.992188 196.699219 L 149.742188 194.695312 Z M 149.269531 192.386719 L 149.269531 194.0625 L 150.164062 194.0625 C 150.421875 194.085938 150.652344 194.011719 150.851562 193.84375 C 150.925781 193.757812 150.980469 193.664062 151.019531 193.554688 C 151.0625 193.449219 151.082031 193.339844 151.082031 193.226562 C 151.082031 193.113281 151.0625 193.003906 151.019531 192.898438 C 150.980469 192.792969 150.925781 192.695312 150.851562 192.609375 C 150.652344 192.441406 150.421875 192.367188 150.164062 192.386719 Z M 149.269531 192.386719 " fill-opacity="1" fill-rule="nonzero"/><path fill="#212121" d="M 156.199219 191.746094 L 157.011719 191.746094 L 157.011719 196.707031 L 156.199219 196.707031 L 153.761719 193.007812 L 153.761719 196.707031 L 152.949219 196.707031 L 152.949219 191.746094 L 153.761719 191.746094 L 156.199219 195.4375 Z M 156.199219 191.746094 " fill-opacity="1" fill-rule="nonzero"/><path fill="#212121" d="M 159.953125 192.386719 L 159.953125 191.746094 L 163.402344 191.746094 L 163.402344 192.378906 L 162.089844 192.378906 L 162.089844 196.699219 L 161.277344 196.699219 L 161.277344 192.386719 Z M 159.953125 192.386719 " fill-opacity="1" fill-rule="nonzero"/><path fill="#212121" d="M 167.351562 191.746094 L 168.164062 191.746094 L 168.164062 196.699219 L 167.351562 196.699219 L 167.351562 194.511719 L 165.027344 194.511719 L 165.027344 196.699219 L 164.21875 196.699219 L 164.21875 191.746094 L 165.027344 191.746094 L 165.027344 193.882812 L 167.351562 193.882812 Z M 167.351562 191.746094 " fill-opacity="1" fill-rule="nonzero"/><path fill="#212121" d="M 171.960938 191.746094 L 171.960938 192.382812 L 170.042969 192.382812 L 170.042969 193.882812 L 171.75 193.882812 L 171.75 194.511719 L 170.042969 194.511719 L 170.042969 196.074219 L 171.960938 196.074219 L 171.960938 196.707031 L 169.230469 196.707031 L 169.230469 191.746094 Z M 171.960938 191.746094 " fill-opacity="1" fill-rule="nonzero"/><path fill="#212121" d="M 175.550781 196.039062 C 175.433594 195.917969 175.328125 195.789062 175.238281 195.648438 C 175.148438 195.507812 175.070312 195.359375 175.007812 195.203125 C 174.945312 195.046875 174.898438 194.886719 174.867188 194.722656 C 174.835938 194.558594 174.820312 194.390625 174.820312 194.222656 C 174.820312 194.054688 174.835938 193.890625 174.867188 193.722656 C 174.898438 193.558594 174.945312 193.398438 175.007812 193.242188 C 175.070312 193.085938 175.148438 192.9375 175.238281 192.796875 C 175.328125 192.65625 175.433594 192.527344 175.550781 192.40625 C 175.789062 192.167969 176.0625 191.988281 176.375 191.867188 C 176.6875 191.742188 177.007812 191.679688 177.34375 191.6875 C 177.851562 191.679688 178.316406 191.8125 178.746094 192.078125 C 179.167969 192.34375 179.464844 192.710938 179.640625 193.179688 L 178.664062 193.179688 C 178.601562 193.058594 178.523438 192.949219 178.433594 192.851562 C 178.339844 192.753906 178.234375 192.671875 178.117188 192.605469 C 178 192.539062 177.875 192.492188 177.742188 192.460938 C 177.609375 192.429688 177.476562 192.417969 177.34375 192.429688 C 177.113281 192.421875 176.890625 192.460938 176.679688 192.546875 C 176.46875 192.636719 176.28125 192.761719 176.125 192.929688 C 175.972656 193.113281 175.851562 193.3125 175.773438 193.539062 C 175.691406 193.761719 175.648438 193.992188 175.648438 194.230469 C 175.648438 194.46875 175.691406 194.699219 175.773438 194.921875 C 175.851562 195.148438 175.972656 195.351562 176.125 195.53125 C 176.28125 195.699219 176.46875 195.824219 176.679688 195.914062 C 176.890625 196 177.113281 196.039062 177.34375 196.03125 C 177.476562 196.042969 177.609375 196.03125 177.742188 196 C 177.875 195.972656 178 195.921875 178.117188 195.855469 C 178.234375 195.789062 178.339844 195.707031 178.433594 195.609375 C 178.523438 195.511719 178.601562 195.402344 178.664062 195.28125 L 179.640625 195.28125 C 179.464844 195.75 179.167969 196.117188 178.746094 196.382812 C 178.316406 196.644531 177.847656 196.773438 177.34375 196.765625 C 177.007812 196.769531 176.683594 196.707031 176.375 196.582031 C 176.0625 196.457031 175.789062 196.277344 175.550781 196.039062 Z M 175.550781 196.039062 " fill-opacity="1" fill-rule="nonzero"/><path fill="#212121" d="M 182.839844 196.753906 C 182.507812 196.761719 182.183594 196.703125 181.871094 196.578125 C 181.558594 196.457031 181.285156 196.273438 181.046875 196.039062 C 180.929688 195.917969 180.824219 195.785156 180.734375 195.644531 C 180.644531 195.503906 180.566406 195.355469 180.503906 195.199219 C 180.441406 195.042969 180.394531 194.882812 180.359375 194.71875 C 180.328125 194.554688 180.3125 194.386719 180.3125 194.21875 C 180.3125 194.050781 180.328125 193.886719 180.359375 193.71875 C 180.394531 193.554688 180.441406 193.394531 180.503906 193.238281 C 180.566406 193.082031 180.644531 192.933594 180.734375 192.792969 C 180.824219 192.652344 180.929688 192.523438 181.046875 192.402344 C 181.164062 192.285156 181.296875 192.183594 181.433594 192.09375 C 181.574219 192.007812 181.71875 191.929688 181.871094 191.871094 C 182.027344 191.808594 182.183594 191.761719 182.347656 191.730469 C 182.507812 191.699219 182.671875 191.683594 182.839844 191.683594 C 183.003906 191.683594 183.167969 191.699219 183.328125 191.730469 C 183.492188 191.761719 183.648438 191.808594 183.804688 191.871094 C 183.957031 191.929688 184.105469 192.007812 184.242188 192.09375 C 184.382812 192.183594 184.511719 192.285156 184.632812 192.402344 C 184.8125 192.578125 184.964844 192.777344 185.085938 193 C 185.207031 193.222656 185.296875 193.457031 185.347656 193.707031 C 185.398438 193.953125 185.410156 194.203125 185.386719 194.457031 C 185.363281 194.707031 185.304688 194.949219 185.207031 195.1875 C 185.113281 195.421875 184.984375 195.636719 184.824219 195.832031 C 184.664062 196.027344 184.476562 196.195312 184.265625 196.335938 C 184.054688 196.472656 183.828125 196.578125 183.585938 196.652344 C 183.339844 196.722656 183.09375 196.757812 182.839844 196.753906 Z M 182.839844 196.019531 C 183.070312 196.027344 183.292969 195.988281 183.503906 195.902344 C 183.714844 195.8125 183.902344 195.6875 184.058594 195.519531 C 184.214844 195.335938 184.328125 195.132812 184.410156 194.910156 C 184.492188 194.6875 184.53125 194.457031 184.53125 194.214844 C 184.53125 193.980469 184.492188 193.746094 184.410156 193.523438 C 184.328125 193.300781 184.214844 193.097656 184.058594 192.914062 C 183.980469 192.835938 183.890625 192.765625 183.796875 192.707031 C 183.703125 192.644531 183.601562 192.59375 183.496094 192.550781 C 183.394531 192.507812 183.285156 192.476562 183.175781 192.457031 C 183.066406 192.433594 182.953125 192.425781 182.839844 192.425781 C 182.730469 192.425781 182.617188 192.433594 182.507812 192.457031 C 182.394531 192.476562 182.289062 192.507812 182.183594 192.550781 C 182.078125 192.59375 181.980469 192.644531 181.886719 192.707031 C 181.789062 192.765625 181.703125 192.835938 181.621094 192.914062 C 181.46875 193.097656 181.351562 193.300781 181.269531 193.523438 C 181.1875 193.746094 181.148438 193.976562 181.148438 194.214844 C 181.148438 194.457031 181.1875 194.6875 181.269531 194.910156 C 181.351562 195.132812 181.46875 195.335938 181.621094 195.519531 C 181.777344 195.6875 181.964844 195.816406 182.175781 195.902344 C 182.386719 195.992188 182.609375 196.03125 182.839844 196.023438 Z M 182.839844 196.019531 " fill-opacity="1" fill-rule="nonzero"/><path fill="#212121" d="M 187.773438 191.746094 C 188.121094 191.726562 188.460938 191.777344 188.792969 191.894531 C 189.121094 192.011719 189.417969 192.183594 189.679688 192.417969 C 189.925781 192.65625 190.109375 192.933594 190.234375 193.25 C 190.359375 193.566406 190.410156 193.894531 190.394531 194.234375 C 190.414062 194.574219 190.359375 194.902344 190.234375 195.214844 C 190.109375 195.53125 189.925781 195.804688 189.679688 196.039062 C 189.417969 196.269531 189.121094 196.441406 188.789062 196.554688 C 188.460938 196.667969 188.121094 196.714844 187.773438 196.699219 L 186.160156 196.699219 L 186.160156 191.746094 Z M 186.96875 196.078125 L 187.773438 196.078125 C 188.019531 196.089844 188.257812 196.054688 188.488281 195.96875 C 188.71875 195.882812 188.921875 195.75 189.097656 195.578125 C 189.25 195.382812 189.363281 195.171875 189.445312 194.941406 C 189.523438 194.710938 189.5625 194.472656 189.5625 194.226562 C 189.5625 193.984375 189.523438 193.746094 189.445312 193.515625 C 189.363281 193.285156 189.25 193.070312 189.097656 192.878906 C 188.921875 192.707031 188.71875 192.578125 188.488281 192.496094 C 188.253906 192.410156 188.019531 192.375 187.773438 192.390625 L 186.96875 192.390625 Z M 186.96875 196.078125 " fill-opacity="1" fill-rule="nonzero"/><path fill="#212121" d="M 193.929688 191.746094 L 193.929688 192.382812 L 192.007812 192.382812 L 192.007812 193.882812 L 193.714844 193.882812 L 193.714844 194.511719 L 192.007812 194.511719 L 192.007812 196.074219 L 193.929688 196.074219 L 193.929688 196.707031 L 191.199219 196.707031 L 191.199219 191.746094 Z M 193.929688 191.746094 " fill-opacity="1" fill-rule="nonzero"/><path fill="#212121" d="M 195.5625 196.570312 C 195.464844 196.667969 195.347656 196.710938 195.214844 196.707031 C 195.078125 196.710938 194.960938 196.664062 194.867188 196.566406 C 194.820312 196.519531 194.789062 196.46875 194.765625 196.40625 C 194.738281 196.347656 194.726562 196.285156 194.726562 196.21875 C 194.726562 196.15625 194.738281 196.09375 194.765625 196.035156 C 194.789062 195.976562 194.820312 195.921875 194.867188 195.875 C 194.960938 195.777344 195.078125 195.730469 195.214844 195.734375 C 195.28125 195.730469 195.34375 195.742188 195.40625 195.765625 C 195.46875 195.792969 195.523438 195.828125 195.570312 195.875 C 195.617188 195.921875 195.65625 195.976562 195.679688 196.039062 C 195.703125 196.101562 195.714844 196.164062 195.714844 196.234375 C 195.710938 196.367188 195.660156 196.480469 195.5625 196.570312 Z M 195.5625 196.570312 " fill-opacity="1" fill-rule="nonzero"/><path fill="#212121" d="M 199.539062 194.699219 L 199.539062 196.703125 L 198.730469 196.703125 L 198.730469 191.746094 L 200.433594 191.746094 C 200.921875 191.714844 201.351562 191.851562 201.726562 192.164062 C 201.878906 192.296875 201.992188 192.457031 202.070312 192.640625 C 202.152344 192.824219 202.1875 193.019531 202.183594 193.21875 C 202.1875 193.554688 202.085938 193.855469 201.882812 194.117188 C 201.636719 194.414062 201.328125 194.585938 200.949219 194.640625 L 202.261719 196.699219 L 201.261719 196.699219 L 200.023438 194.695312 Z M 199.539062 192.386719 L 199.539062 194.0625 L 200.433594 194.0625 C 200.695312 194.085938 200.921875 194.011719 201.125 193.84375 C 201.195312 193.757812 201.253906 193.664062 201.292969 193.554688 C 201.332031 193.449219 201.351562 193.339844 201.351562 193.226562 C 201.351562 193.113281 201.332031 193.003906 201.292969 192.898438 C 201.253906 192.792969 201.195312 192.695312 201.125 192.609375 C 200.921875 192.441406 200.695312 192.367188 200.433594 192.386719 Z M 199.539062 192.386719 " fill-opacity="1" fill-rule="nonzero"/><path fill="#212121" d="M 205.949219 191.746094 L 205.949219 192.382812 L 204.03125 192.382812 L 204.03125 193.882812 L 205.738281 193.882812 L 205.738281 194.511719 L 204.03125 194.511719 L 204.03125 196.074219 L 205.949219 196.074219 L 205.949219 196.707031 L 203.21875 196.707031 L 203.21875 191.746094 Z M 205.949219 191.746094 " fill-opacity="1" fill-rule="nonzero"/><path fill="#212121" d="M 207.410156 196.039062 C 207.292969 195.917969 207.1875 195.789062 207.097656 195.648438 C 207.003906 195.507812 206.929688 195.359375 206.863281 195.203125 C 206.800781 195.046875 206.753906 194.886719 206.722656 194.722656 C 206.691406 194.558594 206.675781 194.390625 206.675781 194.222656 C 206.675781 194.054688 206.691406 193.886719 206.722656 193.722656 C 206.753906 193.558594 206.800781 193.398438 206.863281 193.242188 C 206.929688 193.085938 207.003906 192.9375 207.097656 192.796875 C 207.1875 192.65625 207.292969 192.527344 207.410156 192.40625 C 207.644531 192.167969 207.921875 191.988281 208.230469 191.863281 C 208.542969 191.742188 208.867188 191.679688 209.199219 191.6875 C 209.707031 191.679688 210.175781 191.8125 210.601562 192.078125 C 211.023438 192.34375 211.320312 192.710938 211.496094 193.179688 L 210.519531 193.179688 C 210.460938 193.058594 210.382812 192.949219 210.289062 192.851562 C 210.195312 192.753906 210.089844 192.671875 209.972656 192.605469 C 209.855469 192.539062 209.730469 192.492188 209.597656 192.460938 C 209.46875 192.429688 209.335938 192.417969 209.199219 192.429688 C 208.96875 192.421875 208.75 192.460938 208.539062 192.546875 C 208.324219 192.636719 208.140625 192.761719 207.980469 192.929688 C 207.828125 193.113281 207.710938 193.3125 207.628906 193.539062 C 207.546875 193.761719 207.503906 193.992188 207.503906 194.230469 C 207.503906 194.46875 207.546875 194.699219 207.628906 194.921875 C 207.710938 195.148438 207.828125 195.351562 207.980469 195.53125 C 208.140625 195.699219 208.324219 195.824219 208.539062 195.914062 C 208.75 196 208.96875 196.039062 209.199219 196.03125 C 209.335938 196.042969 209.46875 196.03125 209.597656 196 C 209.730469 195.972656 209.855469 195.921875 209.972656 195.855469 C 210.089844 195.789062 210.195312 195.707031 210.289062 195.609375 C 210.382812 195.511719 210.460938 195.402344 210.519531 195.28125 L 211.496094 195.28125 C 211.324219 195.75 211.023438 196.117188 210.601562 196.382812 C 210.171875 196.640625 209.703125 196.765625 209.199219 196.753906 C 208.867188 196.761719 208.542969 196.703125 208.230469 196.578125 C 207.921875 196.457031 207.648438 196.277344 207.410156 196.039062 Z M 207.410156 196.039062 " fill-opacity="1" fill-rule="nonzero"/><path fill="#212121" d="M 212.441406 191.746094 L 213.25 191.746094 L 213.25 196.078125 L 214.921875 196.078125 L 214.921875 196.699219 L 212.441406 196.699219 Z M 212.441406 191.746094 " fill-opacity="1" fill-rule="nonzero"/><path fill="#212121" d="M 218.933594 196.707031 L 218.578125 195.707031 L 216.507812 195.707031 L 216.152344 196.707031 L 215.308594 196.707031 L 217.074219 191.746094 L 218.015625 191.746094 L 219.792969 196.707031 Z M 216.730469 195.0625 L 218.355469 195.0625 L 217.542969 192.730469 Z M 216.730469 195.0625 " fill-opacity="1" fill-rule="nonzero"/><path fill="#212121" d="M 220.554688 196.707031 L 220.554688 191.746094 L 221.363281 191.746094 L 221.363281 196.699219 Z M 220.554688 196.707031 " fill-opacity="1" fill-rule="nonzero"/><path fill="#212121" d="M 227.636719 191.746094 L 227.636719 196.699219 L 226.824219 196.699219 L 226.824219 193.316406 L 225.324219 196.707031 L 224.761719 196.707031 L 223.25 193.316406 L 223.25 196.707031 L 222.4375 196.707031 L 222.4375 191.746094 L 223.308594 191.746094 L 225.035156 195.640625 L 226.765625 191.746094 Z M 227.636719 191.746094 " fill-opacity="1" fill-rule="nonzero"/><path fill="#212121" d="M 232.859375 196.707031 L 232.046875 196.707031 L 232.046875 194.914062 L 230.40625 191.746094 L 231.308594 191.746094 L 232.449219 194.160156 L 233.585938 191.746094 L 234.496094 191.746094 L 232.859375 194.902344 Z M 232.859375 196.707031 " fill-opacity="1" fill-rule="nonzero"/><path fill="#212121" d="M 237.390625 196.753906 C 237.058594 196.761719 236.734375 196.703125 236.421875 196.578125 C 236.109375 196.457031 235.835938 196.273438 235.597656 196.039062 C 235.480469 195.917969 235.375 195.785156 235.285156 195.644531 C 235.195312 195.503906 235.117188 195.355469 235.054688 195.199219 C 234.992188 195.042969 234.945312 194.882812 234.910156 194.71875 C 234.878906 194.554688 234.863281 194.386719 234.863281 194.21875 C 234.863281 194.050781 234.878906 193.886719 234.910156 193.71875 C 234.945312 193.554688 234.992188 193.394531 235.054688 193.238281 C 235.117188 193.082031 235.195312 192.933594 235.285156 192.792969 C 235.375 192.652344 235.480469 192.523438 235.597656 192.402344 C 235.714844 192.285156 235.847656 192.183594 235.984375 192.09375 C 236.125 192.007812 236.269531 191.929688 236.421875 191.871094 C 236.578125 191.808594 236.734375 191.761719 236.898438 191.730469 C 237.058594 191.699219 237.222656 191.683594 237.390625 191.683594 C 237.554688 191.683594 237.71875 191.699219 237.878906 191.730469 C 238.042969 191.761719 238.199219 191.808594 238.355469 191.871094 C 238.507812 191.929688 238.65625 192.007812 238.792969 192.09375 C 238.933594 192.183594 239.0625 192.285156 239.183594 192.402344 C 239.296875 192.523438 239.402344 192.652344 239.492188 192.792969 C 239.582031 192.933594 239.660156 193.082031 239.722656 193.238281 C 239.785156 193.394531 239.832031 193.554688 239.863281 193.71875 C 239.894531 193.886719 239.910156 194.050781 239.910156 194.21875 C 239.910156 194.386719 239.894531 194.554688 239.863281 194.71875 C 239.832031 194.882812 239.785156 195.042969 239.722656 195.199219 C 239.660156 195.355469 239.582031 195.503906 239.492188 195.644531 C 239.402344 195.785156 239.296875 195.917969 239.183594 196.039062 C 238.945312 196.273438 238.671875 196.457031 238.359375 196.578125 C 238.050781 196.703125 237.726562 196.761719 237.390625 196.753906 Z M 237.390625 196.019531 C 237.621094 196.027344 237.84375 195.988281 238.054688 195.902344 C 238.265625 195.8125 238.453125 195.6875 238.609375 195.519531 C 238.765625 195.335938 238.882812 195.132812 238.964844 194.910156 C 239.042969 194.6875 239.085938 194.457031 239.085938 194.214844 C 239.085938 193.976562 239.042969 193.746094 238.964844 193.523438 C 238.882812 193.300781 238.765625 193.097656 238.609375 192.914062 C 238.53125 192.835938 238.441406 192.765625 238.347656 192.707031 C 238.253906 192.644531 238.152344 192.59375 238.046875 192.550781 C 237.945312 192.507812 237.835938 192.476562 237.726562 192.457031 C 237.617188 192.433594 237.503906 192.425781 237.390625 192.425781 C 237.28125 192.425781 237.167969 192.433594 237.058594 192.457031 C 236.945312 192.476562 236.839844 192.507812 236.734375 192.550781 C 236.628906 192.59375 236.53125 192.644531 236.4375 192.707031 C 236.339844 192.765625 236.253906 192.835938 236.171875 192.914062 C 236.019531 193.097656 235.902344 193.300781 235.824219 193.523438 C 235.742188 193.746094 235.703125 193.980469 235.703125 194.214844 C 235.703125 194.457031 235.742188 194.6875 235.824219 194.910156 C 235.902344 195.132812 236.019531 195.335938 236.171875 195.519531 C 236.328125 195.6875 236.515625 195.8125 236.726562 195.902344 C 236.9375 195.988281 237.160156 196.03125 237.386719 196.023438 Z M 237.390625 196.019531 " fill-opacity="1" fill-rule="nonzero"/><path fill="#212121" d="M 240.703125 194.898438 L 240.703125 191.746094 L 241.523438 191.746094 L 241.523438 194.886719 C 241.5 195.214844 241.597656 195.496094 241.820312 195.738281 C 241.9375 195.828125 242.066406 195.898438 242.207031 195.949219 C 242.347656 195.996094 242.492188 196.023438 242.640625 196.023438 C 242.792969 196.023438 242.9375 195.996094 243.078125 195.949219 C 243.21875 195.898438 243.347656 195.828125 243.46875 195.738281 C 243.6875 195.496094 243.789062 195.214844 243.765625 194.886719 L 243.765625 191.746094 L 244.574219 191.746094 L 244.574219 194.886719 C 244.589844 195.148438 244.546875 195.398438 244.449219 195.640625 C 244.351562 195.882812 244.207031 196.09375 244.015625 196.269531 C 243.617188 196.605469 243.152344 196.765625 242.628906 196.75 C 242.378906 196.757812 242.136719 196.722656 241.898438 196.640625 C 241.660156 196.558594 241.445312 196.433594 241.257812 196.269531 C 241.066406 196.09375 240.921875 195.886719 240.828125 195.648438 C 240.730469 195.40625 240.6875 195.15625 240.703125 194.898438 Z M 240.703125 194.898438 " fill-opacity="1" fill-rule="nonzero"/><path fill="#212121" d="M 246.425781 194.699219 L 246.425781 196.703125 L 245.613281 196.703125 L 245.613281 191.746094 L 247.316406 191.746094 C 247.804688 191.714844 248.238281 191.851562 248.613281 192.164062 C 248.761719 192.296875 248.878906 192.457031 248.957031 192.640625 C 249.035156 192.824219 249.074219 193.019531 249.066406 193.21875 C 249.070312 193.554688 248.96875 193.855469 248.765625 194.117188 C 248.523438 194.414062 248.214844 194.585938 247.839844 194.640625 L 249.148438 196.699219 L 248.148438 196.699219 L 246.910156 194.695312 Z M 246.425781 192.386719 L 246.425781 194.0625 L 247.316406 194.0625 C 247.578125 194.085938 247.808594 194.011719 248.011719 193.84375 C 248.082031 193.757812 248.140625 193.660156 248.179688 193.554688 C 248.214844 193.449219 248.234375 193.339844 248.234375 193.226562 C 248.234375 193.113281 248.214844 193.003906 248.179688 192.898438 C 248.140625 192.792969 248.082031 192.695312 248.011719 192.609375 C 247.808594 192.441406 247.578125 192.367188 247.316406 192.386719 Z M 246.425781 192.386719 " fill-opacity="1" fill-rule="nonzero"/><path fill="#212121" d="M 255.242188 192.171875 C 255.386719 192.304688 255.5 192.460938 255.582031 192.640625 C 255.660156 192.824219 255.699219 193.015625 255.695312 193.210938 C 255.699219 193.410156 255.664062 193.601562 255.589844 193.785156 C 255.515625 193.96875 255.40625 194.128906 255.265625 194.265625 C 254.980469 194.554688 254.539062 194.699219 253.945312 194.699219 L 253.050781 194.699219 L 253.050781 196.703125 L 252.238281 196.703125 L 252.238281 191.746094 L 253.945312 191.746094 C 254.433594 191.714844 254.863281 191.859375 255.242188 192.171875 Z M 253.050781 194.0625 L 253.945312 194.0625 C 254.207031 194.085938 254.433594 194.011719 254.636719 193.84375 C 254.707031 193.757812 254.765625 193.664062 254.804688 193.554688 C 254.84375 193.449219 254.863281 193.339844 254.863281 193.226562 C 254.863281 193.113281 254.84375 193.003906 254.804688 192.898438 C 254.765625 192.792969 254.707031 192.695312 254.636719 192.609375 C 254.4375 192.441406 254.207031 192.367188 253.945312 192.386719 L 253.050781 192.386719 Z M 253.050781 194.0625 " fill-opacity="1" fill-rule="nonzero"/><path fill="#212121" d="M 258.726562 196.753906 C 258.390625 196.761719 258.070312 196.703125 257.757812 196.578125 C 257.445312 196.457031 257.167969 196.273438 256.929688 196.039062 C 256.816406 195.917969 256.710938 195.785156 256.621094 195.644531 C 256.527344 195.503906 256.453125 195.355469 256.390625 195.199219 C 256.328125 195.042969 256.277344 194.882812 256.246094 194.71875 C 256.214844 194.554688 256.199219 194.386719 256.199219 194.21875 C 256.199219 194.050781 256.214844 193.886719 256.246094 193.71875 C 256.277344 193.554688 256.328125 193.394531 256.390625 193.238281 C 256.453125 193.082031 256.527344 192.933594 256.621094 192.792969 C 256.710938 192.652344 256.816406 192.523438 256.929688 192.402344 C 257.050781 192.285156 257.179688 192.183594 257.320312 192.09375 C 257.460938 192.007812 257.605469 191.929688 257.757812 191.871094 C 257.914062 191.808594 258.070312 191.761719 258.234375 191.730469 C 258.394531 191.699219 258.558594 191.683594 258.722656 191.683594 C 258.890625 191.683594 259.054688 191.699219 259.214844 191.730469 C 259.378906 191.761719 259.535156 191.808594 259.691406 191.871094 C 259.84375 191.929688 259.992188 192.007812 260.128906 192.09375 C 260.269531 192.183594 260.398438 192.285156 260.519531 192.402344 C 260.632812 192.523438 260.738281 192.652344 260.828125 192.792969 C 260.917969 192.933594 260.996094 193.082031 261.058594 193.238281 C 261.121094 193.394531 261.167969 193.554688 261.199219 193.71875 C 261.230469 193.886719 261.246094 194.050781 261.246094 194.21875 C 261.246094 194.386719 261.230469 194.554688 261.199219 194.71875 C 261.167969 194.882812 261.121094 195.042969 261.058594 195.199219 C 260.996094 195.355469 260.917969 195.503906 260.828125 195.644531 C 260.738281 195.785156 260.632812 195.917969 260.519531 196.039062 C 260.28125 196.273438 260.007812 196.457031 259.695312 196.578125 C 259.382812 196.703125 259.0625 196.761719 258.726562 196.753906 Z M 258.726562 196.019531 C 258.957031 196.027344 259.175781 195.988281 259.390625 195.902344 C 259.601562 195.8125 259.789062 195.6875 259.945312 195.519531 C 260.101562 195.335938 260.214844 195.132812 260.296875 194.910156 C 260.378906 194.6875 260.421875 194.457031 260.421875 194.214844 C 260.421875 193.976562 260.378906 193.746094 260.296875 193.523438 C 260.214844 193.300781 260.101562 193.097656 259.945312 192.914062 C 259.867188 192.835938 259.777344 192.765625 259.683594 192.707031 C 259.589844 192.644531 259.488281 192.59375 259.382812 192.550781 C 259.28125 192.507812 259.171875 192.476562 259.0625 192.457031 C 258.949219 192.433594 258.839844 192.425781 258.726562 192.425781 C 258.613281 192.425781 258.503906 192.433594 258.394531 192.457031 C 258.28125 192.476562 258.175781 192.507812 258.070312 192.550781 C 257.964844 192.59375 257.867188 192.644531 257.773438 192.707031 C 257.675781 192.765625 257.589844 192.835938 257.507812 192.914062 C 257.355469 193.097656 257.238281 193.300781 257.15625 193.523438 C 257.074219 193.746094 257.035156 193.980469 257.035156 194.214844 C 257.035156 194.457031 257.074219 194.6875 257.15625 194.910156 C 257.238281 195.132812 257.355469 195.335938 257.507812 195.519531 C 257.664062 195.6875 257.851562 195.8125 258.0625 195.902344 C 258.273438 195.988281 258.492188 196.03125 258.722656 196.023438 Z M 258.726562 196.019531 " fill-opacity="1" fill-rule="nonzero"/><path fill="#212121" d="M 267.609375 191.746094 L 268.476562 191.746094 L 267.003906 196.707031 L 266.085938 196.707031 L 265.046875 192.949219 L 263.945312 196.707031 L 263.035156 196.707031 L 261.644531 191.746094 L 262.507812 191.746094 L 263.527344 195.78125 L 264.636719 191.746094 L 265.550781 191.746094 L 266.578125 195.753906 Z M 267.609375 191.746094 " fill-opacity="1" fill-rule="nonzero"/><path fill="#212121" d="M 271.875 191.746094 L 271.875 192.382812 L 269.953125 192.382812 L 269.953125 193.882812 L 271.664062 193.882812 L 271.664062 194.511719 L 269.953125 194.511719 L 269.953125 196.074219 L 271.875 196.074219 L 271.875 196.707031 L 269.144531 196.707031 L 269.144531 191.746094 Z M 271.875 191.746094 " fill-opacity="1" fill-rule="nonzero"/><path fill="#212121" d="M 273.679688 194.699219 L 273.679688 196.703125 L 272.871094 196.703125 L 272.871094 191.746094 L 274.574219 191.746094 C 275.0625 191.714844 275.496094 191.851562 275.871094 192.164062 C 276.019531 192.296875 276.132812 192.457031 276.214844 192.640625 C 276.292969 192.824219 276.328125 193.019531 276.324219 193.21875 C 276.328125 193.554688 276.226562 193.855469 276.027344 194.117188 C 275.785156 194.414062 275.472656 194.585938 275.097656 194.640625 L 276.40625 196.699219 L 275.40625 196.699219 L 274.167969 194.695312 Z M 273.679688 192.386719 L 273.679688 194.0625 L 274.574219 194.0625 C 274.835938 194.085938 275.066406 194.011719 275.265625 193.84375 C 275.339844 193.757812 275.394531 193.664062 275.433594 193.554688 C 275.472656 193.449219 275.492188 193.339844 275.492188 193.226562 C 275.492188 193.113281 275.472656 193.003906 275.433594 192.898438 C 275.394531 192.792969 275.339844 192.695312 275.265625 192.609375 C 275.066406 192.441406 274.835938 192.367188 274.574219 192.386719 Z M 273.679688 192.386719 " fill-opacity="1" fill-rule="nonzero"/><path fill="#212121" d="M 278.011719 196.570312 C 277.914062 196.667969 277.796875 196.710938 277.664062 196.707031 C 277.527344 196.710938 277.410156 196.664062 277.316406 196.566406 C 277.273438 196.519531 277.238281 196.46875 277.214844 196.40625 C 277.191406 196.347656 277.179688 196.285156 277.179688 196.21875 C 277.179688 196.15625 277.191406 196.09375 277.214844 196.035156 C 277.238281 195.976562 277.273438 195.921875 277.316406 195.875 C 277.410156 195.777344 277.527344 195.730469 277.664062 195.734375 C 277.726562 195.730469 277.792969 195.742188 277.855469 195.765625 C 277.917969 195.792969 277.972656 195.828125 278.019531 195.875 C 278.066406 195.921875 278.101562 195.976562 278.125 196.039062 C 278.152344 196.101562 278.164062 196.164062 278.160156 196.234375 C 278.160156 196.367188 278.109375 196.480469 278.011719 196.570312 Z M 278.011719 196.570312 " fill-opacity="1" fill-rule="nonzero"/><path fill="#212121" d="M 233.179688 184 L 272.804688 184 L 272.804688 184.953125 L 233.179688 184.953125 Z M 233.179688 184 " fill-opacity="1" fill-rule="nonzero"/><path fill="#212121" d="M 141.792969 184 L 181.421875 184 L 181.421875 184.953125 L 141.792969 184.953125 Z M 141.792969 184 " fill-opacity="1" fill-rule="nonzero"/></svg>