<svg id="Layer_1" data-name="Layer 1" xmlns="http://www.w3.org/2000/svg" viewBox="0 0 600 500"><defs><style>.cls-1{fill:#212121;}.cls-2{fill:#bd4d00;}</style></defs><path class="cls-1" d="M66.34,279.15q-3.6.09-8,.16t-8.87.07H33.35q-4.44,0-8.87-.07t-8.12-.16c.21,3,.35,5.92.42,8.73s.12,4.95.12,6.43c0,1.07,0,2.09,0,3.06a21.3,21.3,0,0,1-.19,2.45h1.76a43.17,43.17,0,0,1,4.28-11.37A16.6,16.6,0,0,1,28,282.64a10.5,10.5,0,0,1,5.55-1.73h.07v43.78a12.67,12.67,0,0,1-.65,4.67,3.41,3.41,0,0,1-2.48,2,23.43,23.43,0,0,1-5.36.46v1.53q2.6-.07,6.81-.15c2.8-.05,5.79-.08,9-.08q5,0,9.53.08t7.23.15v-1.53a23.27,23.27,0,0,1-5.35-.46,3.41,3.41,0,0,1-2.49-2,12.67,12.67,0,0,1-.65-4.67V280.91h.08a10.49,10.49,0,0,1,5.54,1.73A16.85,16.85,0,0,1,60,288.49a41.62,41.62,0,0,1,4.24,11.33H66c0-.66-.1-1.48-.15-2.45s-.08-2-.08-3.06c0-1.48,0-3.63.12-6.43S66.14,282.17,66.34,279.15Z"/><path class="cls-1" d="M116.55,279.38q-3.75,0-7.47-.07t-6.08-.16v1.53a10.54,10.54,0,0,1,3.48.58,2.64,2.64,0,0,1,1.57,1.84,16.28,16.28,0,0,1,.38,4.17v18.06H91.21V287.27a16.18,16.18,0,0,1,.39-4.17,2.63,2.63,0,0,1,1.56-1.84,10.66,10.66,0,0,1,3.49-.58v-1.53c-1.48.06-3.38.11-5.7.16s-4.69.07-7.08.07q-4.14,0-7.77-.07t-5.86-.16v1.53a10.66,10.66,0,0,1,3.49.58,2.63,2.63,0,0,1,1.56,1.84,16.18,16.18,0,0,1,.39,4.17v38a16.3,16.3,0,0,1-.39,4.13,2.56,2.56,0,0,1-1.53,1.84,12.35,12.35,0,0,1-3.52.61v1.53q2.22-.15,5.86-.19t7.77,0q3.59,0,7.08,0c2.32,0,4.22.09,5.7.19v-1.53a12.2,12.2,0,0,1-3.45-.61,2.7,2.7,0,0,1-1.57-1.84,15.18,15.18,0,0,1-.42-4.13V306.86h17.22v18.37a16.39,16.39,0,0,1-.38,4.13,2.56,2.56,0,0,1-1.53,1.84,12.35,12.35,0,0,1-3.52.61v1.53q2.37-.15,6.08-.19t7.47,0q3.9,0,7.34,0c2.3,0,4.14.09,5.52.19v-1.53a12.13,12.13,0,0,1-3.45-.61,2.7,2.7,0,0,1-1.57-1.84,15.18,15.18,0,0,1-.42-4.13v-38a16.75,16.75,0,0,1,.38-4.17,2.67,2.67,0,0,1,1.57-1.84,10.56,10.56,0,0,1,3.49-.58v-1.53c-1.38.06-3.22.11-5.52.16S119.15,279.38,116.55,279.38Z"/><path class="cls-1" d="M177.47,320.48c0-2.85.07-5.2.23-7h-1.76a32.72,32.72,0,0,1-3.6,10.87,15.54,15.54,0,0,1-5.17,5.63,10.56,10.56,0,0,1-5.32,1.64h-2.52a9.77,9.77,0,0,1-3-.34,2.08,2.08,0,0,1-1.34-1.38,10.81,10.81,0,0,1-.34-3.1v-19.9h.77a9.75,9.75,0,0,1,5.12,1.34,10.8,10.8,0,0,1,3.64,3.63,13.91,13.91,0,0,1,1.87,5.13h1.77q-.32-4.36-.39-6.66c-.05-1.53-.07-2.93-.07-4.21s0-2.67,0-4.2.06-3.76.27-6.66h-1.76a15.06,15.06,0,0,1-1.84,4.55,13.3,13.3,0,0,1-3.52,3.94,8.21,8.21,0,0,1-5,1.61h-.77V285.74a10.74,10.74,0,0,1,.34-3.14,2.06,2.06,0,0,1,1.34-1.34,9.72,9.72,0,0,1,3-.35h1a12.29,12.29,0,0,1,11,6.62,28.09,28.09,0,0,1,3.06,10h1.76c0-.66-.11-1.48-.16-2.45s-.07-2-.07-3.06c0-1.27,0-3.1.11-5.47s.22-4.83.42-7.39c-2.34.11-5,.17-8,.19s-5.66,0-8,0h-7.39c-3.09,0-6.35,0-9.8-.07s-6.64-.1-9.6-.16v1.53a10.54,10.54,0,0,1,3.48.58,2.64,2.64,0,0,1,1.57,1.84,16.28,16.28,0,0,1,.38,4.17v38a16.39,16.39,0,0,1-.38,4.13,2.56,2.56,0,0,1-1.53,1.84,12.35,12.35,0,0,1-3.52.61v1.53q4.44-.15,9.6-.19c3.45,0,6.71,0,9.8,0h7.39q3.83,0,8.72,0t8.8.19q-.37-3.82-.46-7.38C177.49,323.58,177.47,321.76,177.47,320.48Z"/><path class="cls-1" d="M241.68,307.39A36.68,36.68,0,0,0,229.05,305v-.16a27.53,27.53,0,0,0,9.95-2.94,16.58,16.58,0,0,0,5.82-5.05,10.11,10.11,0,0,0,1.91-5.55q0-5.28-5.13-8.65T226,279.23c-1,0-2.63,0-5,.08s-4.8.07-7.35.07-4.89,0-7.31-.07-4.38-.1-5.86-.16v1.53a10.56,10.56,0,0,1,3.49.58,2.67,2.67,0,0,1,1.57,1.84,16.75,16.75,0,0,1,.38,4.17v38a16.88,16.88,0,0,1-.38,4.13A2.61,2.61,0,0,1,204,331.2a12.44,12.44,0,0,1-3.53.61v1.53q2.22-.15,5.86-.19t7.46,0q5,0,8.53.12c2.38.07,4.18.11,5.4.11q10.71,0,16.84-3.6t6.12-11.25a10.19,10.19,0,0,0-2.14-6.08A16.34,16.34,0,0,0,241.68,307.39ZM222.24,282c.51-.86,1.63-1.3,3.37-1.3a4.23,4.23,0,0,1,4.13,2.88q1.23,2.87,1.23,8.53a29.36,29.36,0,0,1-.62,6.16,9.51,9.51,0,0,1-2.22,4.59,6,6,0,0,1-4.59,1.72h-2.07V287.27Q221.47,283.28,222.24,282Zm10.45,46.12a6.63,6.63,0,0,1-6.24,3.48c-2,0-3.38-.39-4-1.19s-1-2.51-1-5.16V305.86h1.08q6.49,0,9.3,3.22t2.79,9.11C234.64,322.47,234,325.78,232.69,328.1Z"/><path class="cls-1" d="M298,279.38c-1.43,0-3,0-4.59-.07s-3-.1-4-.16v1.53a11.2,11.2,0,0,1,5.28,1.69,5.84,5.84,0,0,1,2,3.94,55.05,55.05,0,0,1,.42,7.84v17.76a39.28,39.28,0,0,1-1.23,10.37,13.53,13.53,0,0,1-4.13,7c-1.94,1.66-4.62,2.48-8,2.48a10.47,10.47,0,0,1-5.28-1.22,7.47,7.47,0,0,1-3.21-4.1,23.22,23.22,0,0,1-1.07-7.92V287.27a13.71,13.71,0,0,1,.46-4.17,2.83,2.83,0,0,1,1.79-1.84,13.43,13.43,0,0,1,4-.58v-1.53c-1.59.06-3.6.11-6.05.16s-5,.07-7.65.07-5.2,0-7.62-.07-4.37-.1-5.85-.16v1.53a10.47,10.47,0,0,1,3.52.58,2.69,2.69,0,0,1,1.53,1.84,16.75,16.75,0,0,1,.38,4.17v24a67.08,67.08,0,0,0,.46,8.34,19.87,19.87,0,0,0,1.84,6.43,12.89,12.89,0,0,0,4,4.67,18,18,0,0,0,7,2.91,38.64,38.64,0,0,0,7.43.76,24.42,24.42,0,0,0,10.52-1.91,13.73,13.73,0,0,0,5.93-5.2,20.13,20.13,0,0,0,2.49-7.28,59,59,0,0,0,.65-8.95V292.62a45.33,45.33,0,0,1,.38-6.77,6.21,6.21,0,0,1,1.57-3.56,6.89,6.89,0,0,1,3.48-1.61v-1.53c-.76.06-1.72.11-2.87.16S299.18,279.38,298,279.38Z"/><path class="cls-1" d="M360.31,330.05a3.36,3.36,0,0,1-1.3.23,2.42,2.42,0,0,1-2.07-1.07,11.51,11.51,0,0,1-1.38-3.9l-1.6-8a10.32,10.32,0,0,0-5-7.19c-2.62-1.57-6.52-2.49-11.67-2.79a37.19,37.19,0,0,0,6.09-1,20.66,20.66,0,0,0,7.54-3.44,12.77,12.77,0,0,0,3.9-4.86,14,14,0,0,0,1.15-5.51,10.81,10.81,0,0,0-5.7-10.07q-5.72-3.25-17.34-3.25c-1,0-2.63,0-5,.08s-4.79.07-7.34.07-4.89,0-7.31-.07-4.38-.1-5.86-.16v1.53a10.66,10.66,0,0,1,3.49.58,2.63,2.63,0,0,1,1.56,1.84,16.18,16.18,0,0,1,.39,4.17v38a16.3,16.3,0,0,1-.39,4.13,2.56,2.56,0,0,1-1.53,1.84,12.35,12.35,0,0,1-3.52.61v1.53q2.22-.15,5.86-.19t7.77,0q3.58,0,7.08,0c2.32,0,4.22.09,5.7.19v-1.53a12.2,12.2,0,0,1-3.45-.61,2.7,2.7,0,0,1-1.57-1.84,15.18,15.18,0,0,1-.42-4.13v-17.6h3.45A3.85,3.85,0,0,1,335,309a10.73,10.73,0,0,1,1.83,3.87,45,45,0,0,1,1.15,5.58l1.15,7.66c.46,3.11,1.71,5.27,3.75,6.46a15.75,15.75,0,0,0,8,1.8,20.87,20.87,0,0,0,6.31-.88,12.72,12.72,0,0,0,5.17-3.25l-1-1A3.54,3.54,0,0,1,360.31,330.05ZM329.16,282c.51-.86,1.63-1.3,3.37-1.3a5.84,5.84,0,0,1,5.7,3.33c1.1,2.22,1.64,5.35,1.64,9.38a26.24,26.24,0,0,1-.72,6.39,8.68,8.68,0,0,1-2.76,4.59,8.93,8.93,0,0,1-5.93,1.72h-2.07V287.27Q328.39,283.28,329.16,282Z"/><path class="cls-1" d="M408.29,279.38c-1.42,0-3,0-4.59-.07s-3-.1-4-.16v1.53a11.2,11.2,0,0,1,5.28,1.69,5.8,5.8,0,0,1,2,3.94,55.05,55.05,0,0,1,.42,7.84v18.07l-31.3-33.07c-1,.06-2.07.11-3.29.16s-2.48.07-3.75.07-2.27,0-3.44-.07-2.15-.1-2.91-.16v1.53a10.54,10.54,0,0,1,3.48.58,2.67,2.67,0,0,1,1.57,1.84,16.75,16.75,0,0,1,.38,4.17v32.6a46.94,46.94,0,0,1-.38,6.74,6.18,6.18,0,0,1-1.53,3.55,7.28,7.28,0,0,1-3.52,1.65v1.53a28.85,28.85,0,0,1,2.91-.19c1.17,0,2.32,0,3.44,0,1.43,0,3,0,4.59,0s3,.09,4,.19v-1.53a12.34,12.34,0,0,1-5.24-1.72,5.59,5.59,0,0,1-2.07-3.9,55.21,55.21,0,0,1-.42-7.85v-22l33.91,37c1-.1,2-.15,2.87-.15a19.1,19.1,0,0,1,2.48.15V292.62a45.08,45.08,0,0,1,.39-6.77,6.09,6.09,0,0,1,1.57-3.56,6.85,6.85,0,0,1,3.48-1.61v-1.53c-.77.06-1.72.11-2.87.16S409.47,279.38,408.29,279.38Z"/><path class="cls-1" d="M462.79,281.37a33.21,33.21,0,0,0-15.15-3.29,30.5,30.5,0,0,0-15,3.6,26.25,26.25,0,0,0-10.21,10,32.41,32.41,0,0,0-.12,29.92,23.92,23.92,0,0,0,10.1,9.49,33.09,33.09,0,0,0,15.16,3.29,30.83,30.83,0,0,0,15-3.59,25.92,25.92,0,0,0,10.21-10,29.72,29.72,0,0,0,3.68-15,29.15,29.15,0,0,0-3.6-15A24,24,0,0,0,462.79,281.37Zm-3.9,38.69a24.21,24.21,0,0,1-4.37,9.53,8.4,8.4,0,0,1-6.66,3.45,8.82,8.82,0,0,1-6.58-3.26,23.11,23.11,0,0,1-4.74-9.26,50.2,50.2,0,0,1-1.76-14.12,57.48,57.48,0,0,1,1.53-14,24.14,24.14,0,0,1,4.36-9.49,8.44,8.44,0,0,1,6.66-3.44,8.84,8.84,0,0,1,6.58,3.25,23.24,23.24,0,0,1,4.75,9.23,50.45,50.45,0,0,1,1.76,14.15A57.48,57.48,0,0,1,458.89,320.06Z"/><path class="cls-1" d="M524.63,279.38c-1.43,0-3,0-4.59-.07s-3-.1-4-.16v1.53a11.2,11.2,0,0,1,5.28,1.69,5.88,5.88,0,0,1,2,3.94,55.05,55.05,0,0,1,.42,7.84v17.76a39.28,39.28,0,0,1-1.23,10.37,13.53,13.53,0,0,1-4.13,7c-1.94,1.66-4.62,2.48-8,2.48a10.47,10.47,0,0,1-5.28-1.22,7.47,7.47,0,0,1-3.21-4.1,23.22,23.22,0,0,1-1.07-7.92V287.27a13.71,13.71,0,0,1,.46-4.17,2.83,2.83,0,0,1,1.79-1.84,13.43,13.43,0,0,1,3.95-.58v-1.53c-1.59.06-3.6.11-6,.16s-5,.07-7.65.07-5.2,0-7.62-.07-4.37-.1-5.86-.16v1.53a10.48,10.48,0,0,1,3.53.58,2.69,2.69,0,0,1,1.53,1.84,16.75,16.75,0,0,1,.38,4.17v24a67.08,67.08,0,0,0,.46,8.34,19.87,19.87,0,0,0,1.84,6.43,12.87,12.87,0,0,0,4,4.67,18.12,18.12,0,0,0,7,2.91,38.62,38.62,0,0,0,7.42.76q6.58,0,10.53-1.91a13.73,13.73,0,0,0,5.93-5.2A20.13,20.13,0,0,0,524.9,320a59,59,0,0,0,.65-8.95V292.62a45.33,45.33,0,0,1,.38-6.77,6.21,6.21,0,0,1,1.57-3.56,6.89,6.89,0,0,1,3.48-1.61v-1.53c-.76.06-1.72.11-2.87.16S525.8,279.38,524.63,279.38Z"/><path class="cls-1" d="M583.1,294.31c0-1.48,0-3.63.12-6.43s.21-5.71.42-8.73q-3.6.09-8,.16t-8.88.07H550.65q-4.44,0-8.88-.07t-8.11-.16c.2,3,.34,5.92.42,8.73s.12,4.95.12,6.43c0,1.07,0,2.09,0,3.06a19,19,0,0,1-.2,2.45h1.77A43.17,43.17,0,0,1,540,288.45a16.51,16.51,0,0,1,5.25-5.81,10.49,10.49,0,0,1,5.54-1.73h.08v43.78a12.67,12.67,0,0,1-.65,4.67,3.41,3.41,0,0,1-2.49,2,23.31,23.31,0,0,1-5.36.46v1.53q2.61-.07,6.82-.15c2.8-.05,5.79-.08,8.95-.08,3.32,0,6.49,0,9.53.08s5.44.1,7.23.15v-1.53a23.37,23.37,0,0,1-5.36-.46,3.41,3.41,0,0,1-2.48-2,12.46,12.46,0,0,1-.65-4.67V280.91h.07a10.5,10.5,0,0,1,5.55,1.73,16.93,16.93,0,0,1,5.28,5.85,41.28,41.28,0,0,1,4.25,11.33h1.76c-.05-.66-.1-1.48-.15-2.45S583.1,295.38,583.1,294.31Z"/><path class="cls-2" d="M224,357.28a9.88,9.88,0,0,1,2.75-3.92,6.67,6.67,0,0,1,4.5-1.51,7,7,0,0,1,2.32.38,9.88,9.88,0,0,1,2.14,1,8.1,8.1,0,0,1,2.49,2.45,10.82,10.82,0,0,1,1.29,3.18,27.43,27.43,0,0,1,.62,4.09h1.1q0-4.54,0-7.3c0-1.83.08-3.39.14-4.67h-1.1a5.09,5.09,0,0,1-.69,2.61c-.34.37-.82.31-1.46-.16a17.84,17.84,0,0,0-3.62-2.18,12.38,12.38,0,0,0-5.19-.94,19.07,19.07,0,0,0-9.39,2.25,16.41,16.41,0,0,0-6.39,6.28,20.27,20.27,0,0,0-.08,18.72,14.89,14.89,0,0,0,6.33,5.94,20.75,20.75,0,0,0,9.48,2.06,11.94,11.94,0,0,0,5.1-.94,25,25,0,0,0,3.76-2.17c.7-.45,1.2-.5,1.51-.15a5.47,5.47,0,0,1,.64,2.59h1.1c-.06-1.31-.11-2.93-.14-4.86s0-4.46,0-7.59h-1.1A27.73,27.73,0,0,1,239,378.9a7.39,7.39,0,0,1-3.23,4,12,12,0,0,1-2.14,1,7.22,7.22,0,0,1-6.82-1.1,10,10,0,0,1-2.75-3.93,21.55,21.55,0,0,1-1.37-5.27,40.43,40.43,0,0,1,0-11.06A21.55,21.55,0,0,1,224,357.28Z"/><path class="cls-2" d="M273.18,352.42a20.75,20.75,0,0,0-9.48-2.06,19.13,19.13,0,0,0-9.39,2.25,16.48,16.48,0,0,0-6.39,6.28,20.31,20.31,0,0,0-.07,18.72,14.92,14.92,0,0,0,6.32,5.94,20.78,20.78,0,0,0,9.48,2.06,19.2,19.2,0,0,0,9.41-2.25,16.28,16.28,0,0,0,6.4-6.27,18.67,18.67,0,0,0,2.3-9.39,18.28,18.28,0,0,0-2.26-9.36A14.94,14.94,0,0,0,273.18,352.42Zm-2.44,24.21a15.09,15.09,0,0,1-2.73,6,5.26,5.26,0,0,1-4.17,2.16,5.49,5.49,0,0,1-4.11-2,14.43,14.43,0,0,1-3-5.79,31.4,31.4,0,0,1-1.1-8.84,35.82,35.82,0,0,1,1-8.76,15.19,15.19,0,0,1,2.73-5.94,5.26,5.26,0,0,1,4.17-2.16,5.53,5.53,0,0,1,4.12,2,14.66,14.66,0,0,1,3,5.77,31.67,31.67,0,0,1,1.1,8.86A35.9,35.9,0,0,1,270.74,376.63Z"/><path class="cls-2" d="M315.3,355.32Q310.44,351,300.38,351c-1,0-2.22,0-3.71.05l-4,.1c-1.53,0-3.05,0-4.57,0l-3.66-.12v1a6.41,6.41,0,0,1,2.18.36,1.68,1.68,0,0,1,1,1.15,10.32,10.32,0,0,1,.24,2.61v23.75a10.41,10.41,0,0,1-.24,2.59,1.62,1.62,0,0,1-1,1.15,7.57,7.57,0,0,1-2.2.38v1c.92-.07,2.14-.1,3.66-.12s3.07,0,4.67,0c1.12,0,2.4,0,3.85.07s2.57.07,3.33.07a25.13,25.13,0,0,0,10.9-2.16,15.9,15.9,0,0,0,6.92-6,17.19,17.19,0,0,0,2.39-9.13Q320.16,359.6,315.3,355.32Zm-6.08,21.33a11.11,11.11,0,0,1-2.85,5.53,7.18,7.18,0,0,1-5.22,1.9c-1.47,0-2.43-.27-2.9-.82a5.44,5.44,0,0,1-.69-3.3V356a5.54,5.54,0,0,1,.67-3.3c.45-.54,1.4-.81,2.87-.81a7.27,7.27,0,0,1,6.85,3.92q2.16,3.93,2.15,12A38.06,38.06,0,0,1,309.22,376.65Z"/><path class="cls-2" d="M350.24,376.89c0-1.78,0-3.25.14-4.4h-1.1a20.4,20.4,0,0,1-2.25,6.8,9.73,9.73,0,0,1-3.24,3.52,6.62,6.62,0,0,1-3.32,1h-1.58a5.86,5.86,0,0,1-1.87-.22,1.27,1.27,0,0,1-.84-.86,6.64,6.64,0,0,1-.22-1.94V368.37h.48a6.05,6.05,0,0,1,3.21.84,6.69,6.69,0,0,1,2.28,2.27,8.71,8.71,0,0,1,1.17,3.21h1.1Q344,372,344,370.52c0-.95,0-1.83,0-2.63s0-1.68,0-2.63,0-2.35.17-4.17H343a9.38,9.38,0,0,1-1.15,2.85,8.43,8.43,0,0,1-2.21,2.47,5.09,5.09,0,0,1-3.16,1H336V355.15a6.56,6.56,0,0,1,.22-2,1.26,1.26,0,0,1,.84-.84,6.22,6.22,0,0,1,1.87-.21h.62a7.62,7.62,0,0,1,6.89,4.14,17.09,17.09,0,0,1,1.92,6.25h1.1c0-.42-.06-.93-.09-1.54s-.05-1.24-.05-1.91,0-1.94.07-3.43.14-3,.26-4.62c-1.47.07-3.13.11-5,.12l-5,0H335q-2.89,0-6.13-.05l-6-.1v1a6.31,6.31,0,0,1,2.18.36,1.66,1.66,0,0,1,1,1.15,10.32,10.32,0,0,1,.24,2.61v23.75a10.41,10.41,0,0,1-.24,2.59,1.61,1.61,0,0,1-.95,1.15,7.65,7.65,0,0,1-2.21.38v1c1.85-.07,3.86-.1,6-.12s4.2,0,6.13,0h4.62c1.6,0,3.42,0,5.46,0s3.88.05,5.51.12c-.16-1.6-.25-3.14-.29-4.62S350.24,377.69,350.24,376.89Z"/><path class="cls-2" d="M387.28,383.36a11.52,11.52,0,0,1-1.51-1.82l-12.1-17.17,5.68-7a26.6,26.6,0,0,1,3.09-3.23,11.28,11.28,0,0,1,3.37-2.18v-1c-1.05.1-2.6.15-4.64.15-.77,0-1.79,0-3.07-.05s-2.37-.06-3.3-.1v1c1.92.16,3,1,3.33,2.56s-.49,3.41-2.37,5.58L373,363.48l-7-9.86q-.68-1,0-1.29a6.63,6.63,0,0,1,2.66-.34v-1l-3.28.12c-1.45,0-2.93.07-4.43.07-1.66,0-3.31,0-5-.07l-3.71-.12v1a2.33,2.33,0,0,1,1.49.53,12,12,0,0,1,1.48,1.87L366.23,370l-5.75,7.2a29.88,29.88,0,0,1-4.12,4.33,14.92,14.92,0,0,1-3.83,2.47v1c1.06-.1,2.6-.14,4.65-.14.51,0,1.31,0,2.39,0l3.31.05c1.11,0,2,0,2.58.07v-1a4.5,4.5,0,0,1-3.21-1.46,4,4,0,0,1-.69-3.35,10.71,10.71,0,0,1,2.37-4.62l2.93-3.65,8,11.4c.45.64.45,1.07,0,1.3a6.85,6.85,0,0,1-2.66.33v1l3.6-.12c1.59-.05,3.17-.07,4.74-.07s3.16,0,4.69.07l3.5.12v-1A2.51,2.51,0,0,1,387.28,383.36Z"/><path class="cls-1" d="M17,397h3.25v17.3H27v2.48H17Z"/><path class="cls-1" d="M40.61,397v2.54H32.92v6h6.84v2.51H32.92v6.23h7.69v2.53H29.68V397Z"/><path class="cls-1" d="M57.94,416.82l-1.42-4H48.24l-1.43,4H43.43L50.51,397h3.76l7.09,19.81Zm-8.82-6.57h6.52l-3.25-9.31Z"/><path class="cls-1" d="M67.68,408.8v8H64.43V397h6.83a7.4,7.4,0,0,1,5.18,1.67,5.44,5.44,0,0,1,1.82,4.22,5.76,5.76,0,0,1-1.21,3.59,5.85,5.85,0,0,1-3.71,2.08l5.24,8.22h-4l-5-8Zm0-9.23v6.69h3.58a3.8,3.8,0,0,0,2.76-.88,3.78,3.78,0,0,0,0-4.92,3.8,3.8,0,0,0-2.76-.89Z"/><path class="cls-1" d="M95.42,397h3.25v19.81H95.42l-9.76-14.77v14.77H82.42V397h3.24l9.76,14.75Z"/><path class="cls-1" d="M110.45,399.57V397h13.81v2.53H119v17.25h-3.24V399.57Z"/><path class="cls-1" d="M140.08,397h3.24v19.78h-3.24v-8.74h-9.31v8.74h-3.24V397h3.24v8.54h9.31Z"/><path class="cls-1" d="M158.52,397v2.54h-7.68v6h6.83v2.51h-6.83v6.23h7.68v2.53H147.59V397Z"/><path class="cls-1" d="M172.89,414.15a10.45,10.45,0,0,1,0-14.51,9.93,9.93,0,0,1,7.18-2.86,10.28,10.28,0,0,1,5.62,1.56,8.83,8.83,0,0,1,3.57,4.39h-3.9a5.53,5.53,0,0,0-5.29-3,6.46,6.46,0,0,0-4.88,2,8.05,8.05,0,0,0,0,10.39,6.46,6.46,0,0,0,4.88,2,5.53,5.53,0,0,0,5.29-3h3.9a8.79,8.79,0,0,1-3.57,4.39,10.44,10.44,0,0,1-5.62,1.53A10,10,0,0,1,172.89,414.15Z"/><path class="cls-1" d="M202.08,417a9.9,9.9,0,0,1-7.19-2.86,10.46,10.46,0,0,1,0-14.52,10.44,10.44,0,0,1,14.36,0A10.12,10.12,0,0,1,202.08,417Zm0-2.93a6.45,6.45,0,0,0,4.88-2,8.1,8.1,0,0,0,0-10.4,7.06,7.06,0,0,0-9.76,0,8.07,8.07,0,0,0,0,10.4A6.44,6.44,0,0,0,202.07,414.09Z"/><path class="cls-1" d="M221.82,397a10.71,10.71,0,0,1,7.64,2.69,9.47,9.47,0,0,1,2.86,7.26,9.3,9.3,0,0,1-2.86,7.2,10.86,10.86,0,0,1-7.64,2.63h-6.46V397Zm-3.22,17.3h3.22a7,7,0,0,0,5.31-2,8.73,8.73,0,0,0,0-10.77,7,7,0,0,0-5.31-1.95H218.6Z"/><path class="cls-1" d="M246.47,397v2.54h-7.69v6h6.83v2.51h-6.83v6.23h7.69v2.53H235.54V397Z"/><path class="cls-1" d="M253,416.27a1.92,1.92,0,0,1-1.39.55,1.85,1.85,0,0,1-1.39-.57,2,2,0,0,1,0-2.76,1.85,1.85,0,0,1,1.39-.57,1.95,1.95,0,0,1,2,2A1.85,1.85,0,0,1,253,416.27Z"/><path class="cls-1" d="M268.92,408.8v8h-3.24V397h6.83a7.42,7.42,0,0,1,5.18,1.67,5.47,5.47,0,0,1,1.82,4.22,5.82,5.82,0,0,1-1.21,3.59,5.9,5.9,0,0,1-3.72,2.08l5.24,8.22h-4l-4.95-8Zm0-9.23v6.69h3.59a3.83,3.83,0,0,0,2.76-.88,3.78,3.78,0,0,0,0-4.92,3.83,3.83,0,0,0-2.76-.89Z"/><path class="cls-1" d="M294.59,397v2.54h-7.68v6h6.83v2.51h-6.83v6.23h7.68v2.53H283.66V397Z"/><path class="cls-1" d="M300.43,414.15a10.42,10.42,0,0,1,0-14.51,9.89,9.89,0,0,1,7.17-2.86,10.28,10.28,0,0,1,5.62,1.56,8.83,8.83,0,0,1,3.57,4.39h-3.9a5.53,5.53,0,0,0-5.29-3,6.47,6.47,0,0,0-4.88,2,8.05,8.05,0,0,0,0,10.39,6.47,6.47,0,0,0,4.88,2,5.53,5.53,0,0,0,5.29-3h3.9a8.79,8.79,0,0,1-3.57,4.39A10.44,10.44,0,0,1,307.6,417,9.91,9.91,0,0,1,300.43,414.15Z"/><path class="cls-1" d="M320.58,397h3.24v17.3h6.69v2.48h-9.93Z"/><path class="cls-1" d="M346.56,416.82l-1.42-4h-8.29l-1.42,4h-3.38L339.13,397h3.76L350,416.82Zm-8.82-6.57h6.51L341,400.94Z"/><path class="cls-1" d="M353.05,416.82V397h3.24v19.78Z"/><path class="cls-1" d="M381.4,397v19.78h-3.25V403.27l-6,13.55h-2.25l-6.06-13.55v13.55h-3.25V397h3.5L371,412.55,377.92,397Z"/><path class="cls-1" d="M402.31,416.82h-3.24v-7.17L392.5,397h3.61l4.56,9.65,4.55-9.65h3.64l-6.55,12.61Z"/><path class="cls-1" d="M420.46,417a9.9,9.9,0,0,1-7.19-2.86,10.46,10.46,0,0,1,0-14.52,10.44,10.44,0,0,1,14.36,0,10.49,10.49,0,0,1,0,14.52A9.83,9.83,0,0,1,420.46,417Zm0-2.93a6.44,6.44,0,0,0,4.88-2,8.07,8.07,0,0,0,0-10.4,7.06,7.06,0,0,0-9.76,0,8.1,8.1,0,0,0,0,10.4A6.47,6.47,0,0,0,420.44,414.09Z"/><path class="cls-1" d="M433.71,409.59V397H437v12.55a4.49,4.49,0,0,0,1.18,3.39,5.35,5.35,0,0,0,6.6,0,4.5,4.5,0,0,0,1.19-3.39V397h3.24v12.55a6.9,6.9,0,0,1-2.23,5.51,8.22,8.22,0,0,1-5.55,1.92,8,8,0,0,1-5.5-1.91A6.94,6.94,0,0,1,433.71,409.59Z"/><path class="cls-1" d="M456.62,408.8v8h-3.25V397h6.83a7.4,7.4,0,0,1,5.18,1.67,5.44,5.44,0,0,1,1.82,4.22,5.76,5.76,0,0,1-1.21,3.59,5.85,5.85,0,0,1-3.71,2.08l5.24,8.22h-4l-4.95-8Zm0-9.23v6.69h3.58a3.84,3.84,0,0,0,2.77-.88,3.81,3.81,0,0,0,0-4.92,3.84,3.84,0,0,0-2.77-.89Z"/><path class="cls-1" d="M491.91,398.71a5.4,5.4,0,0,1,1.82,4.15,5.7,5.7,0,0,1-1.72,4.21q-1.72,1.73-5.28,1.73h-3.59v8H479.9V397h6.83A7.42,7.42,0,0,1,491.91,398.71Zm-8.77,7.55h3.59a3.83,3.83,0,0,0,2.76-.88,3.78,3.78,0,0,0,0-4.92,3.83,3.83,0,0,0-2.76-.89h-3.59Z"/><path class="cls-1" d="M505.87,417a9.9,9.9,0,0,1-7.19-2.86,10.46,10.46,0,0,1,0-14.52,10.44,10.44,0,0,1,14.36,0,10.49,10.49,0,0,1,0,14.52A9.83,9.83,0,0,1,505.87,417Zm0-2.93a6.44,6.44,0,0,0,4.88-2,8.07,8.07,0,0,0,0-10.4,7.06,7.06,0,0,0-9.76,0,8.1,8.1,0,0,0,0,10.4A6.47,6.47,0,0,0,505.85,414.09Z"/><path class="cls-1" d="M541.43,397h3.47L539,416.82h-3.67l-4.16-15-4.41,15-3.64,0L517.55,397H521l4.09,16.11L529.53,397h3.65l4.12,16Z"/><path class="cls-1" d="M558.51,397v2.54h-7.69v6h6.84v2.51h-6.84v6.23h7.69v2.53H547.58V397Z"/><path class="cls-1" d="M565.73,408.8v8h-3.24V397h6.83a7.4,7.4,0,0,1,5.18,1.67,5.47,5.47,0,0,1,1.82,4.22,5.81,5.81,0,0,1-1.2,3.59,5.9,5.9,0,0,1-3.72,2.08l5.24,8.22h-4l-4.95-8Zm0-9.23v6.69h3.59a3.81,3.81,0,0,0,2.76-.88,3.78,3.78,0,0,0,0-4.92,3.81,3.81,0,0,0-2.76-.89Z"/><path class="cls-1" d="M583.07,416.27a1.93,1.93,0,0,1-1.4.55,1.85,1.85,0,0,1-1.38-.57,2,2,0,0,1,0-2.76,1.85,1.85,0,0,1,1.38-.57,1.95,1.95,0,0,1,2,2A1.85,1.85,0,0,1,583.07,416.27Z"/><rect class="cls-1" x="403.6" y="366.08" width="158.63" height="3.81"/><rect class="cls-1" x="37.76" y="366.08" width="158.63" height="3.81"/><path class="cls-1" d="M322.84,260.59c-2,0-4.09,0-6.13-.07a23.93,23.93,0,0,1-23.51-20.91h-2.58a29,29,0,0,1-22.54-10.57A32,32,0,0,1,262,218.41a23.73,23.73,0,0,1-13.93-7.9h-3.22l-8,0a40.93,40.93,0,0,1-6.48-.46c-8-1.29-14.45-5.87-18.81-13.24a41.92,41.92,0,0,1-5.28-17.56,84.39,84.39,0,0,1,7-43.07,90.69,90.69,0,0,1,24.23-32.39,92.59,92.59,0,0,1,36.48-19,99.58,99.58,0,0,1,26-3.35c2.7,0,5.49.1,8.28.3A93.37,93.37,0,0,1,345.25,92.4a91,91,0,0,1,39.52,40.35,87.49,87.49,0,0,1,8.73,28.4,92.15,92.15,0,0,1,.13,21.47,90.38,90.38,0,0,1-7.46,27.73c-4.74,10.46-10.87,18.55-18.73,24.74-3.57,2.82-8,5.77-13.73,6.84a25.47,25.47,0,0,1-24,18.57C327.49,260.56,325.16,260.59,322.84,260.59Zm-24.49-26.46.08,2.66a18.61,18.61,0,0,0,18.39,18.28c4.28.09,8.61.09,12.78,0A20,20,0,0,0,348.81,239l.4-2,2.16-.23c5.28-.6,9.38-3.35,12.7-6,7.15-5.64,12.76-13.07,17.14-22.71a85,85,0,0,0,7-26.06,86.21,86.21,0,0,0-.12-20.2,82.17,82.17,0,0,0-8.18-26.64,85.66,85.66,0,0,0-37.19-38,87.82,87.82,0,0,0-34.92-10,97.35,97.35,0,0,0-32.42,2.86A87.26,87.26,0,0,0,241,107.93a85.22,85.22,0,0,0-22.79,30.45,79,79,0,0,0-6.55,40.3A36.71,36.71,0,0,0,216.22,194c3.51,5.94,8.69,9.61,15,10.64a36.11,36.11,0,0,0,5.64.38l8,0h5.78l.82,1c3.53,4.33,7.86,6.73,12.87,7.13l1.89.16.51,1.83a26.67,26.67,0,0,0,5.54,10.31,23.75,23.75,0,0,0,18.39,8.68Z"/><path class="cls-2" d="M348.36,213a7.43,7.43,0,0,0,5.9-2.62,46.88,46.88,0,0,0,8.34-13.8c2-5,3-10.23,3.9-15.55,0-.13.22-1.45.26-1.45h-17v2.23c0,6.78,0,13.55,0,20.33a3.63,3.63,0,0,1-3.62,3.62H335a1.4,1.4,0,0,0-1.39,1.4v4.33a1.39,1.39,0,0,0,1.38,1.4C338.19,212.92,345.38,213,348.36,213Z"/><path class="cls-2" d="M381.32,162.71a76,76,0,0,0-10.87-30.45A81,81,0,0,0,307.31,94a90.22,90.22,0,0,0-30.17,2.65,80,80,0,0,0-31.69,16.45,78.05,78.05,0,0,0-21,28,71.81,71.81,0,0,0-6,36.86c.45,4.39,1.33,8.68,3.63,12.56s5.6,6.62,10.21,7.37a29.13,29.13,0,0,0,4.58.3c5.84,0,11.68,0,17.46,0,4.13,7.5,9.93,10.23,18,6.63a1.31,1.31,0,0,1,.08.21c0,.71,0,1.41,0,2.11A20.56,20.56,0,0,0,277.38,221a16.84,16.84,0,0,0,13.35,6.31q6.22,0,12.44,0h2.07c0,3.15-.05,6.12,0,9.1a12.08,12.08,0,0,0,11.84,11.85c4.1.09,8.21.09,12.32,0a13,13,0,0,0,12.13-8.55c-3.87.09-11.72.13-12.26.13-3.81,0-7.63,0-11.44,0-2.65,0-3.8-1.13-3.79-3.76,0-4,0-11.88.05-15.25a1.56,1.56,0,0,0-1.56-1.56h-9.45c-3.73,0-7.47-.08-11.2,0-4.89.12-10-4.37-10.75-9.79-.44-3.21-.12-6.29,2-9a6,6,0,0,1,4.79-2.51c7.46,0,14.92,0,22.46,0a3.28,3.28,0,0,1,3.28,3.27v.13a3.13,3.13,0,0,1-3.13,3.15H291.29c-1.57,0-3.2,0-3.68,2.36a4.7,4.7,0,0,0,.92,3.76,4.8,4.8,0,0,0,4,2.12c7.47,0,14.93,0,22.39.06h10.26a1.71,1.71,0,0,0,1.7-1.7c0-.36,0-.72,0-1.08.06-2.4,0-4.82.24-7.19a4.16,4.16,0,0,1,4-3.64c2.89-.06,8.73-.08,11-.08a.89.89,0,0,0,.89-.9V157a1,1,0,0,0-1-1l-21.8,0c-.41,0-.83,0-1.24,0-2.94-.2-4.4-1.74-4.43-4.71,0-2.53,0-5.06-.05-7.59q0-8.76,0-17.54c0-3.21,1.5-4.67,4.74-4.66,2.09,0,4.17,0,6.25,0a4,4,0,0,1,3.49,5.75,2.92,2.92,0,0,1-2.61,1.79c-1.69,0-3.38,0-5.14,0v20.29h1.42q11.32,0,22.64,0c3.34,0,4.46,1.11,4.47,4.48,0,5.8,0,11.61,0,17.41v2h17.13c-.1-2.16-.2-4.33-.3-6.63a62.78,62.78,0,0,0-1.07-7.16,61.93,61.93,0,0,0-14.16-27.75,67.15,67.15,0,0,0-5.22-5.36c-15.26-13.81-33.51-18.82-54.06-17.14v8.44a1.68,1.68,0,0,0,1.68,1.68H303a3.62,3.62,0,0,1,3.62,3.62v34.13a3.4,3.4,0,0,1-2.93,3.44,3.28,3.28,0,0,1-3.61-3.26V127.59a1.83,1.83,0,0,0-1.83-1.83H288.06a2.63,2.63,0,0,1-2.63-2.63V110c-2,.44-3.79.77-5.56,1.25a61.43,61.43,0,0,0-29.35,17.56c-9,9.59-15,20.66-17,33.75a44.3,44.3,0,0,0,.36,17.17,6.75,6.75,0,0,0,1.11,2.59,3.06,3.06,0,0,0,2,1.2c5.32.09,10.64.06,16.05.06a1.86,1.86,0,0,0,1.85-1.85v-4.85a1.85,1.85,0,0,0-1.85-1.85h-8.66a3.42,3.42,0,0,1-3.43-3.46v-.09a3.44,3.44,0,0,1,3.43-3.4c5.2,0,19.37-.08,24.57-.1a2,2,0,0,0,1.94-2v-3.47a1.94,1.94,0,0,0-1.92-2c-2.91,0-8.39-.12-11.11-.12A2.87,2.87,0,0,1,255,157.7c0-3,0-6.11,0-9.16V141.3a3.47,3.47,0,0,1,3.45-3.47c4.08,0,8.17,0,12.38,0V126.15A3.16,3.16,0,0,1,274.3,123a3.84,3.84,0,0,1,3.34,3.79c0,3.62,0,7.24,0,11.07.51,0,7.6,0,10.71,0,2.6,0,3.68,1.08,3.69,3.71q0,12.08,0,24.13v2.22a13.32,13.32,0,0,0,2.35-.19l16-.11s3.11.3,4-.87c2.14-2.71,5-2.93,8.73-2.82,2.57.08,7.25-.12,8.33-.11a3.36,3.36,0,0,1,3.63,3.74c-.08,6.67,0,13.35,0,20v0A3.13,3.13,0,0,1,332,190.7h-.44a3.13,3.13,0,0,1-3.13-3.12V172.53a1.63,1.63,0,0,0-1.62-1.62c-1.86,0-3.66,0-5.45.07-.62,0-1.29.7-1.8,1.22a8.21,8.21,0,0,1-6.5,2.52c-8.07-.14-16.14,0-24.21,0-2.48,0-3.55-1.05-3.55-3.54,0-7.12,0-21,0-25.4A1.34,1.34,0,0,0,284,144.4H263.52a1.89,1.89,0,0,0-1.89,1.9v5.87a1.59,1.59,0,0,0,1.6,1.6c2.63,0,7.76,0,10.35,0a3.73,3.73,0,0,1,4.05,4q.06,6.7,0,13.41A3.75,3.75,0,0,1,274,175c-2.75,0-8,.05-10.68.05a1.68,1.68,0,0,0-1.68,1.68v5.06a1.85,1.85,0,0,0,1.85,1.84h54.13c5.61-.09,5.71,6.44.1,6.52-26.28.42-53.94,0-80.22,0-5.07,0-7.85-2.08-9.36-7a40.36,40.36,0,0,1-1.63-13.51,63.7,63.7,0,0,1,6.13-25.65c10-20.59,25.9-34,48.21-39.4,17.1-4.13,34-3.14,50.09,4.21,21.68,9.91,35.91,26.44,41,49.91A66,66,0,0,1,363.16,209a37,37,0,0,1-7.78,9,5.32,5.32,0,0,1-3.63,1.29c-8.32,0-23.87,0-29.11,0a1.78,1.78,0,0,0-1.78,1.79v10.14a1.81,1.81,0,0,0,1.8,1.81l19.87.05c0-1,.06-1.94.11-3h1.49a60.4,60.4,0,0,0,6.46-.13c3.59-.41,6.5-2.38,9.26-4.54,7.09-5.59,11.95-12.88,15.55-21.09a77.92,77.92,0,0,0,5.9-22A79.84,79.84,0,0,0,381.32,162.71Z"/></svg>